<svg width="164" height="164" fill="none" xmlns="http://www.w3.org/2000/svg"><g clip-path="url(#clip0)"><path d="M160.399 83.8c0 44.294-35.906 80.2-80.2 80.2C35.907 164 0 128.094 0 83.8 0 39.507 35.906 3.601 80.2 3.601c44.293 0 80.199 35.906 80.199 80.2z" fill="#424242"/><path d="M16.04 88.384h16.366v59.823a80.698 80.698 0 01-16.367-16.282V88.384zm91.656 70.777a79.962 79.962 0 0016.367-8.215V49.102h-16.367V159.16zm-31.424 4.743a80.839 80.839 0 0016.367-.865V78.563H76.272v85.341zM45.5 156.125a79.61 79.61 0 0016.367 5.768v-73.51H45.5v67.742zm91.657-133.21v117.34a80.318 80.318 0 0016.367-23.93v-93.41h-16.367z" fill="#6F70E8"/><path d="M163.947 2.046l-9.458 36.78c-.315 1.227-1.845 1.645-2.741.749l-6.718-6.717L93.739 84.15l-8.619 8.617a6.548 6.548 0 01-4.63 1.918H31.939c-.868 0-1.701.345-2.314.958L7.522 117.745a79.646 79.646 0 01-6.52-21.256L20.53 76.961a6.546 6.546 0 014.628-1.916h48.554c.868 0 1.7-.346 2.314-.96l3.824-3.824 51.293-51.291-6.718-6.717c-.896-.897-.478-2.427.749-2.742l36.78-9.458a1.638 1.638 0 011.993 1.993z" fill="#1DB86A"/><path d="M163.764.795l-20.765 21.993-59.746 59.746a9.755 9.755 0 01-6.943 2.875H27.757L4.077 109.09a79.694 79.694 0 01-3.075-12.602L20.53 76.96a6.548 6.548 0 014.63-1.918h48.552a3.27 3.27 0 002.314-.958l3.824-3.824 51.293-51.291-6.718-6.717c-.896-.897-.478-2.427.749-2.742l36.78-9.458a1.632 1.632 0 011.81.742z" fill="#1DB86A"/></g><defs><clipPath id="clip0"><path fill="#fff" d="M0 0h164v164H0z"/></clipPath></defs></svg>