<svg width="164" height="164" fill="none" xmlns="http://www.w3.org/2000/svg"><path d="M12.575 67.992a6.375 6.375 0 00.618 7.11l56.723 69.667a6.172 6.172 0 004.788 2.288 6.174 6.174 0 004.789-2.288l56.722-69.666a6.373 6.373 0 00.619-7.111H12.574z" fill="#2CCD7C"/><path d="M50.207 71.509l24.491 75.548h.009L99.2 71.509H50.206zm86.405-3.891l-20.243-31.145a6.187 6.187 0 00-5.185-2.833h-72.96a6.19 6.19 0 00-5.186 2.833L12.795 67.618a6.36 6.36 0 00-1.01 3.89h125.836a6.365 6.365 0 00-1.009-3.89z" fill="#41EA95"/><path d="M34.666 18.091c-8.337-2.336-9.809-3.829-12.11-12.288A2.427 2.427 0 0020.221 4c-1.09 0-2.045.738-2.335 1.803-2.302 8.46-3.773 9.953-12.11 12.288A2.451 2.451 0 004 20.46c0 1.105.727 2.074 1.776 2.368 8.338 2.336 9.81 3.83 12.111 12.289a2.428 2.428 0 002.335 1.803 2.427 2.427 0 002.333-1.803c2.302-8.46 3.774-9.953 12.111-12.289a2.45 2.45 0 001.777-2.368 2.45 2.45 0 00-1.777-2.367zm123.743 125.584c-6.908-1.936-8.128-3.172-10.035-10.182a2.01 2.01 0 00-1.933-1.493 2.01 2.01 0 00-1.934 1.493c-1.907 7.01-3.127 8.247-10.035 10.182a2.031 2.031 0 00-1.472 1.962c0 .916.603 1.718 1.472 1.963 6.908 1.935 8.128 3.172 10.035 10.182a2.01 2.01 0 001.934 1.493 2.01 2.01 0 001.933-1.493c1.907-7.01 3.127-8.247 10.035-10.182a2.033 2.033 0 001.472-1.963c0-.915-.602-1.718-1.472-1.962z" fill="#424242"/><path d="M151.493 101.077H83.36l-.806 1.239a3.591 3.591 0 00.224 4.215l31.951 39.242a3.476 3.476 0 002.697 1.289 3.477 3.477 0 002.698-1.289l31.951-39.242a3.59 3.59 0 00.223-4.215l-.805-1.239z" fill="#8B8CF4"/><path d="M152.299 102.316l-11.402-17.544a3.488 3.488 0 00-2.922-1.596H96.879c-1.176 0-2.274.6-2.921 1.596l-11.403 17.544a3.585 3.585 0 00-.569 2.191h70.882a3.59 3.59 0 00-.569-2.191z" fill="#A7A8FF"/><path d="M95.289 83.569c-.53.274-.993.682-1.33 1.202l-11.404 17.545a3.58 3.58 0 00-.569 2.191H108.9L95.29 83.569z" fill="#6F70E8"/><path d="M103.627 104.507l13.798 42.563 13.798-42.563h-27.596z" fill="#A7A8FF"/><path opacity=".1" d="M91.088 106.531a3.59 3.59 0 01-.224-4.214l11.403-17.545a3.487 3.487 0 012.921-1.595h-8.31c-1.175 0-2.273.6-2.92 1.595l-11.404 17.545a3.59 3.59 0 00.224 4.214l31.951 39.242c.665.817-23.641-39.242-23.641-39.242z" fill="#6F70E8"/><path d="M125.955 104.507h26.913a3.575 3.575 0 00-.569-2.191l-11.404-17.545a3.484 3.484 0 00-1.33-1.202l-13.61 20.938z" fill="#6F70E8"/><path d="M136.611 67.618l-20.244-31.147a6.23 6.23 0 00-2.363-2.136L89.844 71.51h47.777a6.359 6.359 0 00-1.01-3.89zM33.04 36.472L12.794 67.618a6.363 6.363 0 00-1.01 3.89h47.778L35.401 34.336a6.226 6.226 0 00-2.363 2.137z" fill="#1DB86A"/><path opacity=".1" d="M22.657 75.103a6.376 6.376 0 01-.397-7.484l20.243-31.146a6.189 6.189 0 015.186-2.832h-9.465a6.19 6.19 0 00-5.185 2.832L12.796 67.618a6.376 6.376 0 00.396 7.484l56.724 69.667c1.18 1.45-47.26-69.666-47.26-69.666z" fill="#000"/><path d="M74.669 33.64L50.057 71.51h49.296L74.74 33.64h-.071z" fill="#2CCD7C"/><path d="M117.407 83.177l-13.864 21.33h27.768l-13.864-21.33h-.04z" fill="#8B8CF4"/></svg>