<svg width="164" height="164" fill="none" xmlns="http://www.w3.org/2000/svg"><g clip-path="url(#clip0)"><path fill-rule="evenodd" clip-rule="evenodd" d="M22.424 89.877l-6.572 6.56a3.496 3.496 0 00-.009 4.94l2.67 2.681a28.448 28.448 0 00-2.293 5.667l-3.847-.009a3.502 3.502 0 00-3.497 3.492l-.019 9.289a3.494 3.494 0 003.48 3.501l3.994.01a29.254 29.254 0 002.292 5.501l-2.844 2.847a3.495 3.495 0 00-.01 4.939l6.545 6.589c1.362 1.354 3.58 1.364 4.943.009l2.853-2.847a28.52 28.52 0 005.477 2.313v3.999a3.508 3.508 0 003.479 3.511l9.287.018a3.513 3.513 0 003.497-3.492l.01-3.852a29.39 29.39 0 005.66-2.267l2.67 2.682a3.514 3.514 0 004.942.009l6.572-6.561c1.362-1.355 1.362-3.585.01-4.948l-2.522-2.534a29.31 29.31 0 002.494-5.805l3.497.009a3.502 3.502 0 003.498-3.493l.018-9.288c.01-1.926-1.565-3.502-3.489-3.511h-3.35a28.768 28.768 0 00-2.44-5.999l2.357-2.35a3.503 3.503 0 00.01-4.939l-6.545-6.588a3.505 3.505 0 00-4.943-.01l-2.356 2.35a28.673 28.673 0 00-5.983-2.46l.01-3.363c.009-1.917-1.565-3.493-3.48-3.502l-9.287-.019a3.502 3.502 0 00-3.497 3.493l-.01 3.502a29.205 29.205 0 00-5.807 2.47l-2.522-2.535a3.505 3.505 0 00-4.943-.01z" fill="#424242"/><path fill-rule="evenodd" clip-rule="evenodd" d="M43.796 109.099c-4.87-.01-8.818 3.934-8.827 8.8-.01 4.874 3.92 8.828 8.79 8.836 4.869.019 8.817-3.925 8.827-8.799.009-4.866-3.93-8.828-8.79-8.837z" fill="#FCFCFC"/><path fill-rule="evenodd" clip-rule="evenodd" d="M71.29 128.164h35.574c0-28.63 27.668-32.335 27.631-63.112-.027-29.34-22.725-43.77-45.414-43.448-22.697-.322-45.386 14.108-45.423 43.448-.037 30.778 27.632 34.482 27.632 63.112z" fill="#1DB86A"/><path d="M89 16c-1.657 0-3-1.463-3-3.268V3.268C86 1.463 87.343 0 89 0c1.658 0 3 1.463 3 3.268v9.463C92 14.537 90.657 16 89 16zm-34.215 8a3.204 3.204 0 01-2.273-.942l-6.575-6.578a3.21 3.21 0 01.004-4.541 3.215 3.215 0 014.543.003l6.575 6.578A3.21 3.21 0 0154.785 24zm68.428 0a3.21 3.21 0 01-2.274-5.48l6.575-6.578a3.215 3.215 0 014.544-.003 3.21 3.21 0 01.003 4.54l-6.575 6.58a3.201 3.201 0 01-2.273.941z" fill="#1DB86A"/><path d="M96.132 72.022H80.844a2.438 2.438 0 100 4.876h5.349v47.653a2.438 2.438 0 104.876 0V76.898h5.064a2.438 2.438 0 100-4.876z" fill="#FCFCFC"/><path fill-rule="evenodd" clip-rule="evenodd" d="M74.281 143.829l13.65-5.474 15.951 5.474v10.081c0 5.547-4.538 10.09-10.079 10.09h-9.452c-5.541 0-10.07-4.543-10.07-10.09v-10.081z" fill="#424242"/><path fill-rule="evenodd" clip-rule="evenodd" d="M69.062 124.552H109.1a3.246 3.246 0 013.24 3.243v12.781c0 1.788-1.454 3.253-3.24 3.253H69.062a3.262 3.262 0 01-3.25-3.253v-12.781a3.254 3.254 0 013.25-3.243z" fill="#737373"/><path fill-rule="evenodd" clip-rule="evenodd" d="M107.821 150.252c10.825 10.836 28.377 10.836 39.201 0 10.825-10.837 10.825-28.4 0-39.237-10.824-10.836-28.376-10.836-39.201 0-10.824 10.837-10.824 28.4 0 39.237z" fill="#6F70E8"/><path d="M137.601 124.883l-8.45-8.459a1.238 1.238 0 00-.099-.089 2.434 2.434 0 00-3.352.09l-8.457 8.458a2.437 2.437 0 103.449 3.448l4.296-4.297v19.086a2.438 2.438 0 104.877 0v-19.081l4.286 4.291a2.431 2.431 0 001.725.715 2.44 2.44 0 001.725-4.162z" fill="#FCFCFC"/></g><defs><clipPath id="clip0"><path fill="#fff" d="M0 0h164v164H0z"/></clipPath></defs></svg>