<svg width="164" height="164" fill="none" xmlns="http://www.w3.org/2000/svg"><g clip-path="url(#clip0)"><path d="M68.333 164C30.654 164 0 133.346 0 95.667c0-37.68 30.654-68.334 68.333-68.334s68.334 30.655 68.334 68.334S106.012 164 68.333 164z" fill="#424242"/><path d="M68.333 164C30.654 164 0 133.346 0 95.667c0-37.68 30.654-68.334 68.333-68.334s68.334 30.655 68.334 68.334S106.012 164 68.333 164zm0-126.416c-32.027 0-58.083 26.055-58.083 58.083s26.056 58.083 58.083 58.083c32.028 0 58.084-26.055 58.084-58.083s-26.056-58.084-58.084-58.084z" fill="#6F70E8"/><path d="M68.333 140.083c-24.491 0-44.417-19.926-44.417-44.416 0-24.491 19.926-44.417 44.417-44.417 24.49 0 44.416 19.926 44.416 44.417 0 24.49-19.926 44.416-44.416 44.416zm0-78.583c-18.84 0-34.167 15.327-34.167 34.167 0 18.839 15.327 34.166 34.167 34.166 18.84 0 34.166-15.327 34.166-34.166 0-18.84-15.327-34.167-34.166-34.167z" fill="#6F70E8"/><path d="M68.334 116.167c-11.302 0-20.5-9.198-20.5-20.5s9.198-20.5 20.5-20.5 20.5 9.198 20.5 20.5-9.198 20.5-20.5 20.5zm0-30.75c-5.651 0-10.25 4.599-10.25 10.25s4.599 10.25 10.25 10.25 10.25-4.599 10.25-10.25-4.599-10.25-10.25-10.25z" fill="#6F70E8"/><path d="M68.332 100.792a5.085 5.085 0 01-3.621-1.504 5.126 5.126 0 010-7.25l51.25-51.25a5.126 5.126 0 117.25 7.25l-51.25 51.25a5.112 5.112 0 01-3.629 1.504z" fill="#1DB86A"/><path d="M138.374 47.833h-17.083a5.127 5.127 0 01-5.125-5.125V25.625c0-1.36.54-2.665 1.503-3.622l20.5-20.5A5.135 5.135 0 01143.752.39a5.13 5.13 0 013.164 4.736v11.958h11.958a5.131 5.131 0 014.736 3.164 5.116 5.116 0 01-1.114 5.583l-20.5 20.5a5.104 5.104 0 01-3.622 1.503z" fill="#1DB86A"/><path d="M141.791 0c-1.332 0-2.644.52-3.628 1.503l-20.5 20.5a5.125 5.125 0 00-1.497 3.622v17.083c0 1.415.574 2.7 1.503 3.622l29.247-29.247V5.125A5.13 5.13 0 00141.791 0z" fill="#1DB86A"/></g><defs><clipPath id="clip0"><path fill="#fff" d="M0 0h164v164H0z"/></clipPath></defs></svg>