<svg width="250" height="250" fill="none" xmlns="http://www.w3.org/2000/svg"><path d="M59.082 149.093h36.621v-46.259L88.38 90.499c0-8.09-6.558-14.649-14.648-14.649s-14.65 6.558-14.65 14.65v58.594z" fill="#6F70E8"/><path d="M32.718 162.752l58.593-43.945 4.392 71.776H37.11a7.32 7.32 0 01-7.324-7.324V168.61a7.322 7.322 0 012.933-5.858z" fill="#EBEBEB"/><path d="M190.918 149.093h-36.621v-46.259l7.324-12.335c0-8.09 6.558-14.649 14.649-14.649 8.09 0 14.648 6.558 14.648 14.649v58.594z" fill="#6F70E8"/><path d="M217.282 162.752l-58.594-43.945-4.391 71.776h58.594a7.32 7.32 0 007.324-7.324V168.61a7.323 7.323 0 00-2.933-5.858z" fill="#EBEBEB"/><path d="M125 196.646c-11.767 0-21.342 9.635-21.342 21.477 0 10.788 15.331 26.242 18.407 29.174a4.245 4.245 0 005.869 0c3.076-2.932 18.407-18.386 18.407-29.174 0-11.842-9.574-21.477-21.341-21.477z" fill="#6F70E8"/><path d="M128.276.772a7.322 7.322 0 00-6.552 0c-20.571 10.286-33.345 31.445-33.345 54.44v3.87L104.8 73.731h42.558l14.263-14.649v-3.87c0-22.995-12.774-44.154-33.345-54.44z" fill="#37C37D"/><path d="M125 59.082H88.379v140.351a7.32 7.32 0 007.324 7.324h58.594a7.32 7.32 0 007.324-7.324V59.082H125z" fill="#F8F8F8"/><path d="M125 169.541a7.32 7.32 0 00-7.324 7.324v29.297a7.32 7.32 0 007.324 7.324 7.32 7.32 0 007.324-7.324v-29.297a7.32 7.32 0 00-7.324-7.324z" fill="#37C37D"/></svg>