<svg width="164" height="164" fill="none" xmlns="http://www.w3.org/2000/svg"><path d="M125.562 156.312H38.438a15.372 15.372 0 01-15.376-15.374V23.063A15.375 15.375 0 0138.438 7.688h71.751l30.75 30.75v102.5a15.372 15.372 0 01-15.376 15.374z" fill="#F8F8F8"/><path d="M23.063 115.312h117.875v25.626a15.372 15.372 0 01-15.376 15.374H38.438a15.372 15.372 0 01-15.376-15.374v-25.626z" fill="#1DB86A"/><path d="M140.938 38.438h-15.376a15.374 15.374 0 01-15.374-15.376V7.688l30.75 30.75z" fill="#EBEBEB"/><path d="M56.375 47.563a4 4 0 014-4h12.5a4 4 0 014 4v12.5a4 4 0 01-4 4h-12.5a4 4 0 01-4-4v-12.5z" fill="#6F70E8"/><path d="M87.125 47.563a4 4 0 014-4h12.5a4 4 0 014 4v12.5a4 4 0 01-4 4h-12.5a4 4 0 01-4-4v-12.5zm-30.75 30.75a4 4 0 014-4h12.5a4 4 0 014 4v12.5a4 4 0 01-4 4h-12.5a4 4 0 01-4-4v-12.5z" fill="#1DB86A"/><path d="M87.125 78.313a4 4 0 014-4h12.5a4 4 0 014 4v12.5a4 4 0 01-4 4h-12.5a4 4 0 01-4-4v-12.5z" fill="#6F70E8"/><path d="M105.062 123h-5.124a2.561 2.561 0 00-2.563 2.562v20.5a2.561 2.561 0 004.374 1.812 2.56 2.56 0 00.751-1.812v-7.687h2.562a7.685 7.685 0 007.688-7.687 7.685 7.685 0 00-7.688-7.688zm0 10.25H102.5v-5.125h2.562c.68 0 1.332.27 1.812.751a2.56 2.56 0 010 3.623 2.56 2.56 0 01-1.812.751zM84.563 123h-5.126a2.561 2.561 0 00-2.562 2.562v20.5a2.561 2.561 0 004.374 1.812 2.56 2.56 0 00.751-1.812v-7.687h2.563a7.687 7.687 0 100-15.375zm0 10.25H82v-5.125h2.563a2.561 2.561 0 110 5.125zm-12.817 12.757a1.857 1.857 0 00-.02-.269 2.411 2.411 0 00-.05-.268l-.024-.101a2.458 2.458 0 00-.05-.158l-.016-.048-7.688-20.5A2.559 2.559 0 0061.5 123a2.56 2.56 0 00-2.4 1.663l-7.686 20.5a2.56 2.56 0 00.633 2.795 2.551 2.551 0 001.85.694 2.556 2.556 0 002.315-1.69l1.298-3.462h7.98l1.299 3.462c.002.008.007.015.01.023.043.113.095.223.154.329l.028.046c.052.089.11.175.173.256l.041.056c.07.085.144.165.223.24l.064.06c.078.07.16.136.247.196.006.005.011.01.018.014.095.064.195.121.298.172l.059.028c.208.098.428.166.655.204l.086.014a2.8 2.8 0 00.318.024l.024.001c.083 0 .166-.005.25-.013.022-.002.043-.006.064-.009.056-.007.112-.014.168-.025l.11-.026c.037-.009.08-.018.118-.03.045-.012.088-.027.132-.042.018-.007.037-.011.056-.019l.034-.014a2.225 2.225 0 00.24-.109c.042-.021.083-.045.125-.069.034-.021.068-.04.1-.062.033-.021.064-.044.096-.067a3.72 3.72 0 00.11-.082l.077-.065c.037-.032.075-.064.11-.1.023-.022.045-.047.067-.07.034-.036.068-.071.1-.109l.067-.086c.027-.035.054-.069.079-.106.025-.036.047-.072.07-.109.02-.032.04-.064.058-.096.024-.043.045-.086.066-.13.015-.029.03-.058.043-.088.02-.046.038-.093.055-.14.012-.032.024-.061.034-.092.015-.045.028-.09.04-.135.01-.037.02-.074.028-.111a2.34 2.34 0 00.023-.12c.008-.045.015-.09.02-.137.005-.033.007-.068.01-.101.004-.054.007-.106.008-.161l.002-.04c.003-.018 0-.037 0-.055zm-12.315-7.632l2.068-5.515 2.068 5.515h-4.136z" fill="#fff"/></svg>