<svg width="250" height="250" fill="none" xmlns="http://www.w3.org/2000/svg"><path d="M19.531 238.281H230.47a7.812 7.812 0 007.812-7.812V35.156H11.719V230.47a7.811 7.811 0 007.812 7.812z" fill="#F8F8F8"/><path d="M11.719 42.969H238.28V19.53a7.813 7.813 0 00-7.812-7.812H19.531a7.812 7.812 0 00-7.812 7.812v23.44z" fill="#EBEBEB"/><path d="M27.344 31.25a4.11 4.11 0 01-2.774-1.132 3.646 3.646 0 01-.82-1.29c-.2-.47-.306-.973-.313-1.484a4.035 4.035 0 011.133-2.773 3.906 3.906 0 016.68 2.773 3.868 3.868 0 01-3.906 3.906z" fill="#6F70E8"/><path d="M42.969 31.25a4.11 4.11 0 01-2.774-1.133 6.156 6.156 0 01-.468-.586 2.954 2.954 0 01-.352-.703 2.487 2.487 0 01-.234-.703 5.304 5.304 0 01-.078-.781 3.907 3.907 0 017.812 0 5.304 5.304 0 01-.078.781 2.487 2.487 0 01-.234.703 2.954 2.954 0 01-.352.703l-.469.586a4.11 4.11 0 01-2.773 1.133z" fill="#FFE175"/><path d="M58.594 31.25a4.11 4.11 0 01-2.773-1.132 3.961 3.961 0 010-5.547 3.906 3.906 0 016.68 2.773 3.866 3.866 0 01-3.907 3.906zm160.062 27.344H31.344a4 4 0 00-4 4v38.875a4 4 0 004 4h187.312a4 4 0 004-4V62.594a4 4 0 00-4-4zm-132.812 62.5h-54.5a4 4 0 00-4 4v93.562a4 4 0 004 4h54.5a4 4 0 004-4v-93.562a4 4 0 00-4-4z" fill="#1DB86A"/><path d="M218.656 121.094H109.469a4 4 0 00-4 4v34.968a4 4 0 004 4h109.187a4 4 0 004-4v-34.968a4 4 0 00-4-4zm0 58.594H109.469a4 4 0 00-4 3.999v34.969a4 4 0 004 4h109.187a4 4 0 004-4v-34.968a4 4 0 00-4-4z" fill="#6F70E8"/></svg>