<svg width="164" height="164" fill="none" xmlns="http://www.w3.org/2000/svg"><g clip-path="url(#clip0)"><path d="M164.228 81.973a82.945 82.945 0 01-1.783 17.19.456.456 0 01-.447.36 4.814 4.814 0 00-4.812 4.817v9.024c0 1.378-.3 2.744-.892 3.989-.43.904-.876 1.799-1.337 2.685a4.127 4.127 0 01-3.663 2.202 2.631 2.631 0 00-2.631 2.634v4.697c0 .414-.131.818-.377 1.152a82.005 82.005 0 01-18.489 18.178.466.466 0 01-.268.085h-3.172a3.787 3.787 0 00-3.786 3.787c0 .442-.244.849-.63 1.061a81 81 0 01-9.736 4.565.38.38 0 01-.138.026h-5.285c-1.049 0-1.897.85-1.898 1.898a.69.69 0 01-.498.677 81.934 81.934 0 01-14.243 2.627 5.098 5.098 0 00-4.67-3.057 5.093 5.093 0 00-4.803 3.411c-8.929-.171-17.505-1.752-25.507-4.542-1.045-.364-1.698-1.367-1.7-2.474a5.584 5.584 0 00-5.584-5.577h-7.492a6.46 6.46 0 01-3.578-1.078 81.992 81.992 0 01-20.47-19.486 2.116 2.116 0 01-.412-1.262v-4.332a3.069 3.069 0 00-3.108-3.07c-1.328.016-2.527-.789-3.145-1.965a81.681 81.681 0 01-1.32-2.63 13.36 13.36 0 01-1.31-5.772v-7.168a4.987 4.987 0 00-4.467-4.959.526.526 0 01-.454-.416A82.903 82.903 0 01.327 83.01a82.447 82.447 0 011.29-15.6.32.32 0 01.27-.254 4.512 4.512 0 001.743-8.283 81.608 81.608 0 018.66-19.554.905.905 0 01.91-.417c.25.036.506.056.766.056a5.644 5.644 0 005.642-5.645v-2.038c0-1.384.503-2.723 1.422-3.757A82.46 82.46 0 0135.172 14.9a2.69 2.69 0 011.549-.487h3.882c.855 0 1.548-.693 1.548-1.548 0-.854.693-1.547 1.548-1.547h4.4a5.74 5.74 0 005.737-5.741c0-.298.187-.567.466-.668A81.754 81.754 0 0182.914.003c45.132.344 81.3 36.815 81.314 81.97z" fill="#F8F8F8"/><path d="M47.79 92.89c-7.073 0-12.806 5.738-12.806 12.813v12.813c0 7.076 5.733 12.812 12.805 12.812s12.805-5.736 12.805-12.812v-12.813c0-7.075-5.733-12.812-12.805-12.812zm4.802 24.024a4.803 4.803 0 11-9.605 0v-9.609a4.803 4.803 0 119.605 0v9.609zm29.772-68.867c-7.073 0-12.806 5.737-12.806 12.813v12.812c0 7.076 5.733 12.813 12.806 12.813 7.072 0 12.805-5.737 12.805-12.813V60.86c0-7.075-5.733-12.812-12.805-12.812zm4.803 24.023a4.803 4.803 0 11-9.604 0v-9.609a4.803 4.803 0 119.604 0v9.61zm75.278 27.086c-1.364 6.409-3.431 12.533-6.195 18.291.02-.176.066-.351.066-.533v-9.609a4.803 4.803 0 10-9.605 0v9.609a4.803 4.803 0 004.802 4.805 4.728 4.728 0 003.234-1.28 81.986 81.986 0 01-6.579 10.445c-5.45-1.472-9.461-6.45-9.461-12.368v-12.813c0-7.075 5.733-12.812 12.806-12.812 4.68 0 8.698 2.516 10.932 6.265zM116.938 3.203c-7.072 0-12.805 5.737-12.805 12.813v12.812c0 7.076 5.733 12.813 12.805 12.813 7.073 0 12.807-5.737 12.807-12.813V16.016c0-7.076-5.734-12.813-12.807-12.813zm4.802 24.024a4.803 4.803 0 11-9.604 0v-9.61a4.803 4.803 0 119.604 0v9.61zm29.773-24.024c-7.072 0-12.805 5.737-12.805 12.813v12.812c0 7.076 5.733 12.813 12.805 12.813s12.805-5.737 12.805-12.813V16.016c0-7.076-5.733-12.813-12.805-12.813zm4.803 24.024a4.803 4.803 0 11-9.605 0v-9.61a4.803 4.803 0 119.605 0v9.61zm-26.465 121.635a82.105 82.105 0 01-7.905 4.968v-1.681a4.804 4.804 0 10-9.605 0v6.196a81.598 81.598 0 01-8.003 2.669v-10.467c0-7.075 5.734-12.812 12.805-12.812 6.543 0 11.936 4.789 12.708 11.127zM54.219 4.932a84.173 84.173 0 00-9.122 3.973 79.619 79.619 0 00-10.074 6.1c-.024.316-.039.62-.039.942v12.881c0 7.076 5.733 12.813 12.805 12.813s12.805-5.737 12.805-12.813V16.016c0-4.719-2.578-8.862-6.375-11.084zm-1.627 22.295a4.803 4.803 0 11-9.605 0v-9.61a4.803 4.803 0 119.605 0v9.61zM26.02 105.703v12.813c0 5.917-4.012 10.896-9.46 12.367a81.895 81.895 0 01-6.601-10.444 4.776 4.776 0 003.254 1.28 4.804 4.804 0 004.803-4.805v-9.609a4.803 4.803 0 00-4.803-4.805c-2.651 0-4.762 2.151-4.762 4.805v9.609c0 .182.013.361.033.536-2.764-5.758-4.845-11.89-6.208-18.3 2.234-3.747 6.259-6.26 10.937-6.26 7.074 0 12.807 5.738 12.807 12.813z" fill="#6F70E8"/><path d="M112.144 27.227v1.601c0 5.677 3.691 10.49 8.803 12.17a12.79 12.79 0 01-4.001.643c-7.073 0-12.807-5.737-12.807-12.813V16.016c0-7.076 5.734-12.813 12.807-12.813 1.397 0 2.741.227 4.001.642-5.111 1.682-8.803 6.493-8.803 12.17v11.212zm34.573 1.601V16.016c0-5.677 3.693-10.49 8.805-12.171a12.79 12.79 0 00-4.002-.642c-7.072 0-12.805 5.737-12.805 12.813v12.812c0 7.076 5.733 12.813 12.805 12.813 1.398 0 2.742-.228 4.002-.642-5.112-1.682-8.805-6.494-8.805-12.17zm-103.724 0V16.016c0-2.618.77-5.09 2.116-7.117-3.52 1.8-6.935 3.787-10.086 6.106-.024.316-.032.619-.032.942v12.881c0 7.076 5.733 12.813 12.805 12.813 1.398 0 2.742-.228 4.002-.642-5.112-1.682-8.805-6.494-8.805-12.17zm34.575 33.633V60.86c0-5.676 3.693-10.489 8.804-12.17a12.746 12.746 0 00-4.001-.642c-7.072 0-12.805 5.737-12.805 12.813v12.812c0 7.076 5.733 12.813 12.805 12.813 1.397 0 2.742-.228 4.001-.642-5.111-1.682-8.803-6.493-8.803-12.17V62.46zm39.583 75.274c-7.073 0-12.806 5.737-12.806 12.812l-.007 10.463a81.05 81.05 0 008.003-2.665l.008-6.196v-1.602c0-5.678 3.691-10.489 8.803-12.17a12.76 12.76 0 00-4.001-.642zm29.566-30.43v-1.602c0-5.678 3.693-10.489 8.805-12.17a12.754 12.754 0 00-4.002-.642c-7.072 0-12.805 5.737-12.805 12.812v12.813a12.806 12.806 0 009.453 12.367 83.468 83.468 0 002.326-3.286 12.763 12.763 0 01-3.777-9.081v-11.211zm-103.724 0v-1.602c0-5.678 3.693-10.489 8.805-12.17a12.755 12.755 0 00-4.002-.642c-7.072 0-12.805 5.737-12.805 12.812v12.813c0 7.076 5.733 12.812 12.805 12.812 1.398 0 2.742-.227 4.002-.641-5.112-1.682-8.805-6.493-8.805-12.171v-11.211zM13.222 92.891a12.83 12.83 0 00-11.025 6.26 81.873 81.873 0 006.209 18.285l.054-.522v-11.211a12.778 12.778 0 018.763-12.17 12.79 12.79 0 00-4.001-.642z" fill="#6F70E8"/><path d="M55.686 52.852V81.68a4.803 4.803 0 11-9.603 0V64.45l-3.008 3.01a4.798 4.798 0 01-6.79 0 4.805 4.805 0 010-6.794l11.204-11.211a4.803 4.803 0 018.197 3.397zm64.348-4.805a4.787 4.787 0 00-3.396 1.408l-11.205 11.21a4.806 4.806 0 000 6.795 4.799 4.799 0 006.791 0l3.008-3.01v17.23a4.803 4.803 0 109.603 0V52.852a4.802 4.802 0 00-4.801-4.805zm35.535 0a4.787 4.787 0 00-3.396 1.408l-11.205 11.21a4.806 4.806 0 000 6.795 4.799 4.799 0 006.791 0l3.008-3.01v17.23a4.803 4.803 0 109.604 0V52.852a4.803 4.803 0 00-4.802-4.805zM50.906 137.735a4.78 4.78 0 00-3.417 1.407l-10.97 10.974a81.914 81.914 0 0019.167 9.504v-16.938c0-2.669-2.112-4.935-4.78-4.947zM85.46 92.891a4.787 4.787 0 00-3.396 1.407L70.858 105.51a4.806 4.806 0 000 6.795 4.801 4.801 0 006.792 0l3.007-3.01v17.23a4.802 4.802 0 109.604 0V97.696a4.803 4.803 0 00-4.802-4.805zm34.575 0a4.787 4.787 0 00-3.396 1.407l-11.205 11.211a4.807 4.807 0 000 6.795 4.8 4.8 0 006.791 0l3.008-3.01v17.23a4.802 4.802 0 109.603 0V97.696a4.802 4.802 0 00-4.801-4.805zM85.459 3.203a4.787 4.787 0 00-3.396 1.408L70.858 15.82a4.805 4.805 0 000 6.795 4.8 4.8 0 006.792 0l3.007-3.01v17.23a4.803 4.803 0 109.604 0V8.008a4.803 4.803 0 00-4.802-4.805zm0 134.532a4.789 4.789 0 00-3.396 1.407l-11.205 11.211a4.805 4.805 0 000 6.794 4.8 4.8 0 006.792 0l3.007-3.009v9.842c.533.01 1.065.02 1.6.02 2.7 0 5.37-.13 8.004-.385v-21.076a4.803 4.803 0 00-4.802-4.804zM16.31 41.641a4.803 4.803 0 004.802-4.805v-9.428a82.119 82.119 0 00-8.862 11.97 4.765 4.765 0 004.06 2.263zm0 6.406a4.787 4.787 0 00-3.396 1.408L3.661 58.71a81.463 81.463 0 00-2.052 8.637c.034.037.064.077.1.112a4.798 4.798 0 006.79 0l3.009-3.01v17.23a4.803 4.803 0 109.604 0V52.852a4.803 4.803 0 00-4.802-4.805z" fill="#1DB86A"/><path d="M52.985 86.016c-.803.405-1.731.6-2.717.485-2.445-.281-4.246-2.436-4.246-4.898V64.5l-3.008 3.01a4.783 4.783 0 01-3.396 1.407 4.782 4.782 0 01-3.394-1.408 4.78 4.78 0 01-1.383-2.919 4.794 4.794 0 011.383-3.875l.524-.526a2.667 2.667 0 004.52 2.328l6.55-6.553c.932-.933 2.526-.273 2.526 1.046v24.72a4.803 4.803 0 002.641 4.286zm-5.091 59.586l-6.55 6.554a3.082 3.082 0 01-.726.539 82.637 82.637 0 004.5 2.451l.98.447a84.566 84.566 0 004.375 2.018l-.053-6.424v-4.539c0-1.319-1.594-1.98-2.526-1.046zM15.845 81.679V56.96c0-1.319-1.593-1.98-2.525-1.047l-6.55 6.554a2.669 2.669 0 01-3.776 0 2.608 2.608 0 01-.255-.3 81.393 81.393 0 00-1.114 5.182c.034.036.065.075.1.11a4.787 4.787 0 003.396 1.408c1.229 0 2.459-.47 3.396-1.408l3.006-3.01v17.104c0 2.462 1.802 4.617 4.247 4.898a4.763 4.763 0 002.716-.486 4.799 4.799 0 01-2.64-4.286zm0-44.844v-2.862a83.82 83.82 0 00-3.596 5.404 4.745 4.745 0 003.521 2.23 4.77 4.77 0 002.716-.485 4.802 4.802 0 01-2.64-4.287zM82.36 145.602l-6.55 6.554a2.67 2.67 0 01-3.775 0c-.635-.635-.84-1.462-.705-2.284l-.525.526c-1.059 1.06-1.56 2.446-1.422 3.83a4.782 4.782 0 001.383 2.919 4.784 4.784 0 003.395 1.407c1.23 0 2.458-.469 3.395-1.407l3.008-3.009v9.842c.532.01 1.065.02 1.6.02.912 0 1.818-.021 2.722-.05v-17.302c0-1.319-1.594-1.98-2.526-1.046zm37.164-63.889v-24.72c0-1.318-1.594-1.979-2.526-1.046l-6.551 6.553a2.666 2.666 0 01-4.518-2.327l-.525.524a4.797 4.797 0 00-1.383 3.877 4.796 4.796 0 001.383 2.919A4.785 4.785 0 00108.8 68.9a4.783 4.783 0 003.394-1.407l3.008-3.01v17.104c0 2.462 1.801 4.617 4.246 4.898a4.764 4.764 0 002.717-.486 4.8 4.8 0 01-2.641-4.286zm35.581-.034V56.96c0-1.319-1.593-1.98-2.525-1.047l-6.55 6.554a2.669 2.669 0 01-3.776 0 2.687 2.687 0 01-.754-2.336l-.525.525a4.82 4.82 0 00-1.389 3.887 4.742 4.742 0 001.373 2.906l.01.01a4.821 4.821 0 006.807 0l2.991-3.01V81.6c.024 2.615 1.818 4.57 4.263 4.852a4.76 4.76 0 002.716-.486 4.8 4.8 0 01-2.641-4.286zm-70.149 44.884v-24.719c0-1.319-1.594-1.98-2.526-1.047l-6.55 6.554a2.67 2.67 0 01-4.52-2.329l-.524.526a4.794 4.794 0 00-1.382 3.876 4.785 4.785 0 001.382 2.919 4.783 4.783 0 003.395 1.406c1.23 0 2.458-.468 3.396-1.406l3.006-3.009v17.103c0 2.462 1.802 4.617 4.247 4.898a4.773 4.773 0 002.716-.486 4.797 4.797 0 01-2.64-4.286zm-.007-89.705v-24.72c0-1.318-1.593-1.979-2.525-1.047l-6.55 6.554a2.669 2.669 0 01-4.52-2.327l-.525.524a4.802 4.802 0 00-1.383 3.877 4.792 4.792 0 001.383 2.919 4.787 4.787 0 003.395 1.407c1.23 0 2.458-.469 3.396-1.407l3.007-3.01v17.103c0 2.463 1.802 4.617 4.247 4.9a4.763 4.763 0 002.716-.488 4.799 4.799 0 01-2.641-4.285zm34.529 89.711V101.85c0-1.319-1.595-1.98-2.527-1.046l-6.55 6.554a2.671 2.671 0 01-3.776 0 2.601 2.601 0 01-.748-2.293l-.52.49a4.8 4.8 0 000 6.794 4.782 4.782 0 003.395 1.408 4.783 4.783 0 003.396-1.408l3.007-3.008v17.102c0 2.464 1.801 4.617 4.246 4.899a4.775 4.775 0 002.717-.486 4.798 4.798 0 01-2.64-4.287z" fill="#1DB86A"/></g><defs><clipPath id="clip0"><path fill="#fff" d="M0 0h164v164H0z"/></clipPath></defs></svg>