<svg width="76" height="76" fill="none" xmlns="http://www.w3.org/2000/svg"><mask id="a" maskUnits="userSpaceOnUse" x="2" y="2" width="72" height="72" fill="#000"><path fill="#fff" d="M2 2h72v72H2z"/><path d="M71.94 36.2a18.125 18.125 0 01-8.022-8.936 18.127 18.127 0 01-.782-11.5l8.149-8.148a2.051 2.051 0 10-2.9-2.9l-8.15 8.148C52.428 15.026 43.592 11.222 39.8 4.06c-.76-1.414-2.84-1.413-3.6 0a18.125 18.125 0 01-8.936 8.022 18.13 18.13 0 01-11.5.782L7.617 4.715a2.051 2.051 0 10-2.9 2.9l8.148 8.15c.996 3.8.724 7.864-.782 11.5A18.126 18.126 0 014.06 36.2c-1.414.76-1.413 2.84 0 3.6a18.125 18.125 0 018.022 8.936 18.127 18.127 0 01.782 11.5l-8.149 8.148a2.051 2.051 0 102.901 2.9l8.149-8.148c7.807-2.162 16.643 1.642 20.435 8.804.76 1.414 2.84 1.413 3.6 0 3.793-7.162 12.628-10.966 20.436-8.804l8.148 8.149a2.05 2.05 0 102.9-2.9l-8.148-8.15c-.996-3.8-.724-7.864.782-11.5A18.126 18.126 0 0171.94 39.8c1.415-.76 1.414-2.84 0-3.6zm-11.812-7.366a22.206 22.206 0 004.738 7.115h-8.44a34.196 34.196 0 01-2.338-4.613 34.23 34.23 0 01-1.608-4.915l5.968-5.968a22.21 22.21 0 001.68 8.381zM49.152 46.252l-6.2-6.201h8.769c-.52.995-.996 2.011-1.423 3.043a38.276 38.276 0 00-1.146 3.157zm-23.45-3.158a38.071 38.071 0 00-1.423-3.043h8.769l-6.2 6.2a38.016 38.016 0 00-1.146-3.157zm1.146-13.346l6.2 6.2H24.28c.52-.994.996-2.01 1.423-3.042a38.167 38.167 0 001.146-3.158zm13.203-5.46a38.15 38.15 0 006.195 2.566l-6.195 6.194v-8.76zm-4.102 8.76l-6.195-6.195a38.137 38.137 0 006.195-2.566v8.761zm0 9.904v8.76a38.148 38.148 0 00-6.195-2.566l6.195-6.194zm4.102 0l6.195 6.194a38.143 38.143 0 00-6.195 2.567v-8.761zm2.901-7.003l6.2-6.2c.337 1.07.718 2.125 1.146 3.157a38.067 38.067 0 001.423 3.043h-8.769zm4.214-20.077a22.207 22.207 0 008.38 1.68l-5.973 5.975a34.129 34.129 0 01-9.522-3.945v-8.448a22.202 22.202 0 007.115 4.738zm-18.332 0a22.202 22.202 0 007.115-4.738v8.447a34.135 34.135 0 01-9.522 3.945l-5.974-5.974a22.208 22.208 0 008.381-1.68zM15.872 28.834a22.203 22.203 0 001.68-8.38l5.968 5.967a34.176 34.176 0 01-1.608 4.915 34.168 34.168 0 01-2.339 4.613h-8.439a22.205 22.205 0 004.738-7.115zm0 18.332a22.206 22.206 0 00-4.738-7.115h8.44a34.203 34.203 0 012.338 4.613 34.206 34.206 0 011.608 4.915l-5.968 5.968a22.203 22.203 0 00-1.68-8.381zm12.962 12.962a22.209 22.209 0 00-8.38-1.682l5.973-5.973a34.124 34.124 0 019.522 3.945v8.448a22.209 22.209 0 00-7.115-4.738zm18.332 0a22.206 22.206 0 00-7.115 4.738v-8.448a34.13 34.13 0 019.522-3.945l5.974 5.975a22.21 22.21 0 00-8.381 1.68zm12.962-12.962a22.203 22.203 0 00-1.68 8.38L52.48 49.58a33.892 33.892 0 013.947-9.528h8.439a22.21 22.21 0 00-4.738 7.115z"/></mask><path d="M71.94 36.2a18.125 18.125 0 01-8.022-8.936 18.127 18.127 0 01-.782-11.5l8.149-8.148a2.051 2.051 0 10-2.9-2.9l-8.15 8.148C52.428 15.026 43.592 11.222 39.8 4.06c-.76-1.414-2.84-1.413-3.6 0a18.125 18.125 0 01-8.936 8.022 18.13 18.13 0 01-11.5.782L7.617 4.715a2.051 2.051 0 10-2.9 2.9l8.148 8.15c.996 3.8.724 7.864-.782 11.5A18.126 18.126 0 014.06 36.2c-1.414.76-1.413 2.84 0 3.6a18.125 18.125 0 018.022 8.936 18.127 18.127 0 01.782 11.5l-8.149 8.148a2.051 2.051 0 102.901 2.9l8.149-8.148c7.807-2.162 16.643 1.642 20.435 8.804.76 1.414 2.84 1.413 3.6 0 3.793-7.162 12.628-10.966 20.436-8.804l8.148 8.149a2.05 2.05 0 102.9-2.9l-8.148-8.15c-.996-3.8-.724-7.864.782-11.5A18.126 18.126 0 0171.94 39.8c1.415-.76 1.414-2.84 0-3.6zm-11.812-7.366a22.206 22.206 0 004.738 7.115h-8.44a34.196 34.196 0 01-2.338-4.613 34.23 34.23 0 01-1.608-4.915l5.968-5.968a22.21 22.21 0 001.68 8.381zM49.152 46.252l-6.2-6.201h8.769c-.52.995-.996 2.011-1.423 3.043a38.276 38.276 0 00-1.146 3.157zm-23.45-3.158a38.071 38.071 0 00-1.423-3.043h8.769l-6.2 6.2a38.016 38.016 0 00-1.146-3.157zm1.146-13.346l6.2 6.2H24.28c.52-.994.996-2.01 1.423-3.042a38.167 38.167 0 001.146-3.158zm13.203-5.46a38.15 38.15 0 006.195 2.566l-6.195 6.194v-8.76zm-4.102 8.76l-6.195-6.195a38.137 38.137 0 006.195-2.566v8.761zm0 9.904v8.76a38.148 38.148 0 00-6.195-2.566l6.195-6.194zm4.102 0l6.195 6.194a38.143 38.143 0 00-6.195 2.567v-8.761zm2.901-7.003l6.2-6.2c.337 1.07.718 2.125 1.146 3.157a38.067 38.067 0 001.423 3.043h-8.769zm4.214-20.077a22.207 22.207 0 008.38 1.68l-5.973 5.975a34.129 34.129 0 01-9.522-3.945v-8.448a22.202 22.202 0 007.115 4.738zm-18.332 0a22.202 22.202 0 007.115-4.738v8.447a34.135 34.135 0 01-9.522 3.945l-5.974-5.974a22.208 22.208 0 008.381-1.68zM15.872 28.834a22.203 22.203 0 001.68-8.38l5.968 5.967a34.176 34.176 0 01-1.608 4.915 34.168 34.168 0 01-2.339 4.613h-8.439a22.205 22.205 0 004.738-7.115zm0 18.332a22.206 22.206 0 00-4.738-7.115h8.44a34.203 34.203 0 012.338 4.613 34.206 34.206 0 011.608 4.915l-5.968 5.968a22.203 22.203 0 00-1.68-8.381zm12.962 12.962a22.209 22.209 0 00-8.38-1.682l5.973-5.973a34.124 34.124 0 019.522 3.945v8.448a22.209 22.209 0 00-7.115-4.738zm18.332 0a22.206 22.206 0 00-7.115 4.738v-8.448a34.13 34.13 0 019.522-3.945l5.974 5.975a22.21 22.21 0 00-8.381 1.68zm12.962-12.962a22.203 22.203 0 00-1.68 8.38L52.48 49.58a33.892 33.892 0 013.947-9.528h8.439a22.21 22.21 0 00-4.738 7.115z" fill="#1DB86A"/><path d="M71.94 36.2a18.125 18.125 0 01-8.022-8.936 18.127 18.127 0 01-.782-11.5l8.149-8.148a2.051 2.051 0 10-2.9-2.9l-8.15 8.148C52.428 15.026 43.592 11.222 39.8 4.06c-.76-1.414-2.84-1.413-3.6 0a18.125 18.125 0 01-8.936 8.022 18.13 18.13 0 01-11.5.782L7.617 4.715a2.051 2.051 0 10-2.9 2.9l8.148 8.15c.996 3.8.724 7.864-.782 11.5A18.126 18.126 0 014.06 36.2c-1.414.76-1.413 2.84 0 3.6a18.125 18.125 0 018.022 8.936 18.127 18.127 0 01.782 11.5l-8.149 8.148a2.051 2.051 0 102.901 2.9l8.149-8.148c7.807-2.162 16.643 1.642 20.435 8.804.76 1.414 2.84 1.413 3.6 0 3.793-7.162 12.628-10.966 20.436-8.804l8.148 8.149a2.05 2.05 0 102.9-2.9l-8.148-8.15c-.996-3.8-.724-7.864.782-11.5A18.126 18.126 0 0171.94 39.8c1.415-.76 1.414-2.84 0-3.6zm-11.812-7.366a22.206 22.206 0 004.738 7.115h-8.44a34.196 34.196 0 01-2.338-4.613 34.23 34.23 0 01-1.608-4.915l5.968-5.968a22.21 22.21 0 001.68 8.381zM49.152 46.252l-6.2-6.201h8.769c-.52.995-.996 2.011-1.423 3.043a38.276 38.276 0 00-1.146 3.157zm-23.45-3.158a38.071 38.071 0 00-1.423-3.043h8.769l-6.2 6.2a38.016 38.016 0 00-1.146-3.157zm1.146-13.346l6.2 6.2H24.28c.52-.994.996-2.01 1.423-3.042a38.167 38.167 0 001.146-3.158zm13.203-5.46a38.15 38.15 0 006.195 2.566l-6.195 6.194v-8.76zm-4.102 8.76l-6.195-6.195a38.137 38.137 0 006.195-2.566v8.761zm0 9.904v8.76a38.148 38.148 0 00-6.195-2.566l6.195-6.194zm4.102 0l6.195 6.194a38.143 38.143 0 00-6.195 2.567v-8.761zm2.901-7.003l6.2-6.2c.337 1.07.718 2.125 1.146 3.157a38.067 38.067 0 001.423 3.043h-8.769zm4.214-20.077a22.207 22.207 0 008.38 1.68l-5.973 5.975a34.129 34.129 0 01-9.522-3.945v-8.448a22.202 22.202 0 007.115 4.738zm-18.332 0a22.202 22.202 0 007.115-4.738v8.447a34.135 34.135 0 01-9.522 3.945l-5.974-5.974a22.208 22.208 0 008.381-1.68zM15.872 28.834a22.203 22.203 0 001.68-8.38l5.968 5.967a34.176 34.176 0 01-1.608 4.915 34.168 34.168 0 01-2.339 4.613h-8.439a22.205 22.205 0 004.738-7.115zm0 18.332a22.206 22.206 0 00-4.738-7.115h8.44a34.203 34.203 0 012.338 4.613 34.206 34.206 0 011.608 4.915l-5.968 5.968a22.203 22.203 0 00-1.68-8.381zm12.962 12.962a22.209 22.209 0 00-8.38-1.682l5.973-5.973a34.124 34.124 0 019.522 3.945v8.448a22.209 22.209 0 00-7.115-4.738zm18.332 0a22.206 22.206 0 00-7.115 4.738v-8.448a34.13 34.13 0 019.522-3.945l5.974 5.975a22.21 22.21 0 00-8.381 1.68zm12.962-12.962a22.203 22.203 0 00-1.68 8.38L52.48 49.58a33.892 33.892 0 013.947-9.528h8.439a22.21 22.21 0 00-4.738 7.115z" stroke="#1DB86A" stroke-width="2" mask="url(#a)"/></svg>