<svg width="1375" height="880" fill="none" xmlns="http://www.w3.org/2000/svg"><path d="M1160.46 644.983H1400c-3.41-15.963-26.27-28.25-53.98-28.25-8.43 0-16.36 1.121-23.49 3.139-4.26-10.448-15.92-17.892-29.54-17.892-6.6 0-12.69 1.749-17.76 4.709-7.98-8.431-20.17-13.812-33.85-13.812-18.83 0-34.88 10.224-40.97 24.529a35.912 35.912 0 00-1.75 5.246c-.54-.089-1.08-.134-1.66-.179h-.36c-.81-.045-1.57-.045-2.38-.045-16.36 0-30.04 9.596-33.8 22.555zm209.6-554.425h-148.27c2.11-9.865 16.28-17.488 33.4-17.488 5.2 0 10.14.717 14.53 1.928 2.64-6.458 9.86-11.076 18.29-11.076 4.08 0 7.85 1.076 10.99 2.915 4.93-5.202 12.5-8.565 20.93-8.565 11.66 0 21.61 6.322 25.38 15.201.45 1.031.8 2.153 1.07 3.229.32-.045.68-.09 1.03-.09h.23c.49-.045.99-.045 1.48-.045 10.13 0 18.6 5.964 20.94 13.99z" fill="#6F70E8"/><path d="M1150.77 109.067h171.08c-3.54-7.175-11.34-12.51-20.76-13.811 0-.27.05-.538.05-.807 0-6.099-6.19-11.076-13.86-11.076-5.78 0-10.76 2.87-12.82 6.905-5.25-1.57-11.16-2.466-17.44-2.466-6.32 0-12.28.897-17.57 2.511-2.6-10.358-13.59-18.116-26.73-18.116-9.01 0-17.03 3.632-22.01 9.282-1.39 1.525-2.51 3.274-3.36 5.067-.05.045-.05.135-.09.18a.941.941 0 00-.27-.18c-.81-.044-1.57-.044-2.38-.044-16.4 0-30.08 9.596-33.84 22.555z" fill="#fff"/><path d="M396.106 555.684h377.853c-5.37-25.581-41.476-45.348-85.123-45.348-13.254 0-25.822 1.861-37.019 5-6.742-16.744-25.137-28.72-46.618-28.72-10.398 0-19.995 2.791-27.993 7.558-12.569-13.488-31.878-22.209-53.359-22.209-29.707 0-55.073 16.395-64.671 39.418-1.142 2.674-2.056 5.581-2.742 8.372-.799-.117-1.714-.233-2.628-.233h-.571c-1.257-.116-2.514-.116-3.771-.116-25.822 0-47.417 15.465-53.358 36.278z" fill="#6F70E8"/><path opacity=".2" fill-rule="evenodd" clip-rule="evenodd" d="M655.331 189.933l17.072 54.757c.498 1.662-.415 3.407-2.035 4.03l-41.496 12.962c-1.371.416-2.243 1.704-2.202 3.116a123.473 123.473 0 01-2.7 30.121c-.291 1.371.332 2.783 1.579 3.448l38.422 20.191a3.161 3.161 0 011.329 4.238l-26.626 50.769a3.158 3.158 0 01-4.236 1.329l-38.464-20.191c-1.246-.665-2.783-.374-3.738.665a123.075 123.075 0 01-23.178 19.402c-1.163.789-1.703 2.243-1.288 3.573l12.918 41.462a3.08 3.08 0 01-2.035 3.906l-54.747 17.075a3.078 3.078 0 01-3.904-2.036l-12.918-41.462c-.457-1.371-1.703-2.244-3.116-2.202a124.972 124.972 0 01-30.073-2.784c-1.37-.332-2.783.333-3.447 1.579l-20.188 38.471a3.159 3.159 0 01-4.236 1.33l-50.801-26.631a3.161 3.161 0 01-1.329-4.238l20.187-38.513c.623-1.246.374-2.783-.664-3.739-7.352-6.855-13.832-14.624-19.44-23.224a3.114 3.114 0 00-3.53-1.288l-41.496 12.962a3.078 3.078 0 01-3.905-2.035l-17.113-54.799a3.079 3.079 0 012.035-3.905l41.496-12.963a3.08 3.08 0 002.201-3.074c-.249-10.22.665-20.316 2.783-30.079.291-1.371-.332-2.784-1.578-3.448l-38.505-20.233a3.16 3.16 0 01-1.329-4.238l26.708-50.81a3.16 3.16 0 014.237-1.33l38.464 20.191c1.246.665 2.783.374 3.738-.664 6.812-7.271 14.58-13.752 23.178-19.319 1.163-.79 1.703-2.244 1.288-3.573l-12.96-41.504a3.08 3.08 0 012.035-3.906l54.747-17.075a3.078 3.078 0 013.904 2.036l12.96 41.504c.415 1.371 1.703 2.244 3.115 2.202 10.218-.332 20.312.582 30.073 2.7 1.371.333 2.783-.332 3.448-1.578l20.187-38.472a3.16 3.16 0 014.237-1.329l50.759 26.631a3.16 3.16 0 011.329 4.237l-20.187 38.472c-.665 1.246-.374 2.783.664 3.739a122.545 122.545 0 0119.398 23.182c.79 1.164 2.243 1.704 3.573 1.288l41.495-12.962a3.08 3.08 0 013.905 2.036zM500.178 338.794c38.829 0 70.306-31.471 70.306-70.293s-31.477-70.294-70.306-70.294c-38.83 0-70.307 31.472-70.307 70.294 0 38.822 31.477 70.293 70.307 70.293z" fill="#D8D8D8"/><path d="M868.103 69.05l-7.933-25.416c-.249-.748-1.038-1.204-1.827-.955L839.031 48.7c-.623.207-1.288-.042-1.661-.623a57.875 57.875 0 00-9.013-10.798c-.498-.457-.623-1.163-.29-1.745l9.386-17.9c.373-.705.083-1.577-.623-1.951L813.24 3.308c-.706-.374-1.578-.083-1.952.623l-9.386 17.941c-.291.581-.956.872-1.62.747-4.527-.996-9.22-1.412-13.996-1.245-.665 0-1.246-.374-1.454-.997l-5.98-19.353c-.249-.748-1.039-1.205-1.828-.956l-25.417 7.933c-.747.249-1.204 1.038-.955 1.827l6.022 19.312c.208.623-.042 1.287-.623 1.661a57.695 57.695 0 00-10.757 8.97c-.457.499-1.163.624-1.744.291l-17.9-9.386c-.706-.373-1.578-.083-1.952.623l-12.376 23.59c-.374.706-.083 1.578.623 1.952l17.9 9.386c.581.29.872.955.747 1.62-.997 4.526-1.412 9.219-1.287 13.954 0 .664-.374 1.245-.997 1.412l-19.271 6.022c-.747.249-1.204 1.038-.955 1.827l7.933 25.458c.249.748 1.038 1.204 1.827.955l19.271-6.022c.623-.207 1.287.042 1.661.582 2.616 3.987 5.607 7.6 9.012 10.798.499.456.623 1.162.291 1.744l-9.386 17.9c-.374.706-.083 1.578.623 1.952l23.59 12.376c.706.373 1.578.083 1.952-.623l9.386-17.9c.29-.581.955-.872 1.62-.748 4.526.997 9.219 1.412 13.996 1.288.664 0 1.246.374 1.453.997l6.022 19.27c.249.747 1.039 1.204 1.828.955l25.417-7.932c.747-.25 1.204-1.039.955-1.828l-6.022-19.27c-.208-.623.042-1.287.623-1.661a56.359 56.359 0 0010.757-9.012c.457-.499 1.163-.623 1.744-.291l17.9 9.386c.706.374 1.578.083 1.952-.623l12.376-23.589c.374-.706.084-1.578-.623-1.952l-17.858-9.386c-.582-.29-.872-.955-.748-1.578.956-4.569 1.412-9.262 1.246-13.996 0-.665.374-1.246.997-1.454l19.312-6.022c.706-.166 1.122-.996.914-1.785zm-56.608 23.59c-20.018 27.825-58.559 7.6-47.055-24.67a1.1 1.1 0 01.208-.373c19.977-27.825 58.559-7.642 47.055 24.67-.083.124-.124.248-.208.373z" fill="#424242"/><path d="M787.249 194.646l-.041-1.668a109.16 109.16 0 008.225-.542l.166 1.668c-2.783.292-5.608.501-8.35.542zm-8.391-.125a110.096 110.096 0 01-8.308-.792l.208-1.669c2.7.376 5.483.626 8.183.793l-.083 1.668zm25.007-1.627l-.29-1.626a110.834 110.834 0 008.017-1.836l.415 1.627a113.8 113.8 0 01-8.142 1.835zm-41.581-.625c-2.7-.584-5.4-1.293-8.1-2.086l.456-1.585c2.659.793 5.318 1.46 7.976 2.044l-.332 1.627zm57.741-3.754l-.54-1.585a132.85 132.85 0 007.684-3.004l.665 1.544c-2.617 1.084-5.234 2.127-7.809 3.045zm-73.734-1.001a121.556 121.556 0 01-7.727-3.212l.665-1.502a147.45 147.45 0 007.643 3.17l-.581 1.544zm89.062-5.631l-.748-1.502a155.811 155.811 0 007.228-4.004l.831 1.418a128.847 128.847 0 01-7.311 4.088zm-104.307-1.21c-2.41-1.251-4.86-2.628-7.311-4.046l.83-1.418c2.41 1.418 4.861 2.794 7.228 4.004l-.747 1.46zm118.721-7.3l-.914-1.376a167.279 167.279 0 006.771-4.755l.997 1.335c-2.326 1.668-4.611 3.295-6.854 4.796zm-133.136-1.209a184.988 184.988 0 01-6.895-4.714l.955-1.376c2.326 1.627 4.611 3.212 6.854 4.672l-.914 1.418zm146.554-8.76l-1.039-1.293c2.119-1.71 4.237-3.545 6.314-5.38l1.122 1.251c-2.16 1.877-4.279 3.712-6.397 5.422zm-160.22-.834c-2.119-1.627-4.362-3.337-6.605-5.13l1.038-1.293c2.16 1.752 4.362 3.42 6.564 5.088l-.997 1.335zm172.682-10.261l-1.163-1.209c1.952-1.877 3.946-3.838 5.857-5.882l1.204 1.168c-1.952 2.044-3.904 4.046-5.898 5.923zm-185.726-.167l-6.356-5.38 1.08-1.252c2.119 1.794 4.196 3.587 6.314 5.381l-1.038 1.251zm-12.628-10.886c-2.077-1.836-4.154-3.671-6.231-5.548l1.121-1.251 6.231 5.506-1.121 1.293zm209.985-.96l-1.246-1.126c1.329-1.46 2.617-2.961 3.905-4.421l1.246 1.084c-1.246 1.502-2.576 2.962-3.905 4.463zM664.872 130.16c-2.077-1.877-4.154-3.712-6.189-5.547l1.08-1.252c2.077 1.836 4.154 3.671 6.231 5.548l-1.122 1.251zm-324.926-6.715l-1.413-.876a134.913 134.913 0 014.57-7.008l1.37.96c-1.578 2.252-3.074 4.588-4.527 6.924zm312.464-4.297a727.038 727.038 0 00-6.314-5.422l1.08-1.293c2.119 1.794 4.237 3.587 6.314 5.422l-1.08 1.293zm-303.035-9.301l-1.288-1.043c1.704-2.211 3.531-4.38 5.359-6.465l1.246 1.084c-1.827 2.128-3.614 4.255-5.317 6.424zm290.324-1.418a351.893 351.893 0 00-6.522-5.131l.997-1.335c2.202 1.669 4.403 3.421 6.563 5.131l-1.038 1.335zm-13.21-10.053a250.689 250.689 0 00-6.812-4.755l.914-1.376a255.64 255.64 0 016.854 4.796l-.956 1.335zm-266.189-.96l-1.163-1.167a198.54 198.54 0 016.023-5.798l1.122 1.251a155.037 155.037 0 00-5.982 5.715zm252.481-8.341a247.037 247.037 0 00-7.062-4.38l.873-1.418a329.412 329.412 0 017.103 4.38l-.914 1.418zM372.555 86.32l-1.039-1.293c2.16-1.751 4.362-3.462 6.646-5.088l.956 1.334c-2.202 1.627-4.445 3.296-6.563 5.047zm225.978-5.797a408.28 408.28 0 00-7.311-3.963l.747-1.46c2.451 1.251 4.902 2.628 7.353 3.963l-.789 1.46zm-212.561-3.921l-.914-1.418a155.284 155.284 0 017.145-4.338l.831 1.46c-2.409 1.376-4.777 2.794-7.062 4.296zm197.856-3.754a246.646 246.646 0 00-7.519-3.504l.664-1.543a248.927 248.927 0 017.561 3.503l-.706 1.544zm-183.525-4.505l-.747-1.502a208.127 208.127 0 017.518-3.629l.665 1.544c-2.492 1.168-5.026 2.335-7.436 3.587zm168.404-2.253a246.231 246.231 0 00-7.727-3.003l.582-1.585c2.576.96 5.193 1.96 7.768 3.045l-.623 1.543zm-153.325-4.504l-.623-1.544a218.999 218.999 0 017.851-2.878l.54 1.585a156.082 156.082 0 00-7.768 2.837zm137.789-1.252a287.492 287.492 0 00-7.893-2.502l.457-1.585c2.617.792 5.317 1.626 7.934 2.502l-.498 1.585zm-122.128-4.087l-.457-1.586c2.659-.75 5.359-1.501 8.059-2.127l.374 1.627a172.105 172.105 0 00-7.976 2.086zm106.26-.626c-2.659-.71-5.401-1.335-8.059-1.919l.374-1.627c2.7.584 5.4 1.252 8.1 1.92l-.415 1.626zm-90.184-3.254l-.332-1.626c2.7-.543 5.483-1.002 8.225-1.419l.249 1.669c-2.742.375-5.483.834-8.142 1.376zm74.025-.292a197.41 197.41 0 00-8.184-1.293l.249-1.668c2.7.375 5.484.834 8.225 1.335l-.29 1.626zm-57.7-2.169l-.166-1.668a180.75 180.75 0 018.308-.71l.125 1.67a184.14 184.14 0 00-8.267.708zm41.291-.125a184.01 184.01 0 00-8.266-.667l.083-1.669c2.741.167 5.525.376 8.308.668l-.125 1.668zm-24.758-.96l-.041-1.668c2.783-.083 5.566-.083 8.349 0l-.041 1.669a136.609 136.609 0 00-8.267 0z" fill="#DFDFDF"/><path d="M30.173 880l-10.267-74.617.897-.135c221.206-30.492 417.126-82.285 582.381-153.987 150.773-65.424 376.014-254.433 474.016-345.193l.27-.224h.36l73.21-.628v268.513l-113.16-113.181C925.085 565.344 788.927 652.786 633.177 720.362 461.646 794.8 259.09 848.476 31.07 879.865l-.897.135zm-8.25-73.093l9.774 71.075c227.483-31.389 429.59-84.976 600.718-159.234 155.884-67.622 292.087-155.153 404.845-260.083l.62-.583 111.32 111.342V307.009l-71.06.583c-98.225 90.94-323.376 279.814-474.284 345.283-165.165 71.703-360.95 123.495-581.932 154.032z" fill="#424242"/><path d="M1129.21 245.711H863.797l101.144 101.163c-106.389 98.563-234.656 180.713-382.336 244.793C417.306 663.414 221.251 715.251 0 745.699l10.043 72.868c227.931-31.39 430.396-85.021 601.838-159.458 156.288-67.801 292.176-155.153 405.109-260.218l112.22 112.239V245.711z" fill="#1DB86A"/><path d="M783.377 626.846h243.873c-5.04-10.185-16.16-17.76-29.585-19.606 0-.382.063-.764.063-1.146 0-8.657-8.819-15.723-19.748-15.723-8.244 0-15.338 4.074-18.278 9.803-7.477-2.228-15.913-3.501-24.86-3.501-9.011 0-17.511 1.273-25.053 3.565-3.706-14.704-19.364-25.717-38.09-25.717-12.845 0-24.285 5.156-31.379 13.177-1.981 2.164-3.579 4.647-4.793 7.193-.064.063-.064.191-.128.254a1.34 1.34 0 00-.383-.254c-1.151-.064-2.237-.064-3.388-.064-23.39 0-42.883 13.622-48.251 32.019z" fill="#fff"/></svg>