<svg width="1039" height="918" fill="none" xmlns="http://www.w3.org/2000/svg"><path opacity=".4" d="M529.877 153.263l-17.605-56.476a3.174 3.174 0 00-4.026-2.1l-42.79 13.37c-1.371.428-2.87-.129-3.684-1.329a126.423 126.423 0 00-20.003-23.91c-1.071-.986-1.371-2.57-.686-3.856l20.817-39.68a3.26 3.26 0 00-1.37-4.37L408.187 7.445a3.258 3.258 0 00-4.369 1.371l-20.817 39.68c-.685 1.285-2.141 1.97-3.555 1.627-10.066-2.185-20.474-3.127-31.011-2.785-1.456.043-2.784-.857-3.213-2.27L331.858 2.26a3.174 3.174 0 00-4.026-2.1l-56.454 17.612a3.176 3.176 0 00-2.099 4.028l13.364 42.807c.428 1.371-.129 2.87-1.328 3.685-8.866 5.742-16.876 12.426-23.901 19.925-.985 1.071-2.57 1.371-3.855.686l-39.664-20.825a3.258 3.258 0 00-4.369 1.37l-27.541 52.406a3.26 3.26 0 001.37 4.371l39.707 20.868c1.285.686 1.927 2.143 1.627 3.557-2.184 10.069-3.126 20.482-2.869 31.023.042 1.457-.857 2.742-2.271 3.171l-42.79 13.369a3.177 3.177 0 00-2.099 4.028l17.647 56.519a3.176 3.176 0 004.027 2.1l42.79-13.369a3.21 3.21 0 013.641 1.328c5.783 8.87 12.465 16.883 20.046 23.953 1.071.986 1.328 2.571.685 3.857l-20.817 39.722a3.26 3.26 0 001.371 4.37l52.385 27.467a3.258 3.258 0 004.369-1.371l20.817-39.679c.686-1.286 2.142-1.971 3.555-1.629a128.833 128.833 0 0031.012 2.871c1.456-.042 2.741.857 3.212 2.271l13.321 42.765c.514 1.714 2.356 2.657 4.027 2.099l56.454-17.611a3.177 3.177 0 002.099-4.028l-13.321-42.764c-.429-1.371.128-2.871 1.328-3.685a126.939 126.939 0 0023.901-20.011c.985-1.071 2.57-1.371 3.855-.686l39.663 20.825a3.256 3.256 0 004.369-1.371l27.456-52.363a3.259 3.259 0 00-1.37-4.37l-39.621-20.825c-1.285-.686-1.928-2.143-1.628-3.557a127.337 127.337 0 002.784-31.066c-.042-1.457.857-2.785 2.271-3.214l42.79-13.369c1.671-.643 2.613-2.443 2.099-4.157zm-125.63 52.32c-44.418 61.833-129.957 16.84-104.385-54.719.128-.3.257-.6.471-.857 44.29-61.747 129.956-16.969 104.428 54.762-.172.257-.3.557-.514.814z" fill="#D7D7D7"/><g opacity=".69"><path d="M352.528 869.844l-141.631 2.578c-4.08.076-7.459-2.503-7.534-5.757l-1.702-94.045c-.05-3.254 3.229-5.957 7.309-6.032l141.63-2.579c4.106-.075 7.46 2.504 7.535 5.758l1.702 94.044c.075 3.255-3.204 5.958-7.309 6.033zM209.02 768.34c-3.129.05-5.632 1.952-5.582 4.255l1.702 94.045c.05 2.278 2.628 4.105 5.732 4.055l141.631-2.578c3.129-.05 5.632-1.953 5.582-4.255l-1.702-94.045c-.05-2.278-2.629-4.105-5.733-4.055l-141.63 2.578z" fill="#D7D7D7"/><path d="M356.601 783.026l-153.765 2.799.032 1.752 153.765-2.799-.032-1.752zm-142.723-1.92a3.34 3.34 0 01-3.38-3.254 3.34 3.34 0 013.255-3.379 3.34 3.34 0 013.379 3.254c.05 1.827-1.427 3.354-3.254 3.379zm-.075-4.856c-.852.025-1.552.726-1.527 1.577.025.851.726 1.552 1.577 1.527.851-.025 1.552-.726 1.527-1.577-.025-.851-.726-1.552-1.577-1.527zm9.211 4.705a3.34 3.34 0 01-3.379-3.254 3.34 3.34 0 013.254-3.379 3.34 3.34 0 013.38 3.254 3.34 3.34 0 01-3.255 3.379zm-.1-4.881c-.851.025-1.552.726-1.527 1.577.025.851.726 1.552 1.577 1.527.851-.025 1.552-.726 1.527-1.577 0-.851-.701-1.527-1.577-1.527z" fill="#E1E1E1"/><path d="M1034.4 715.047H892.667c-2.453 0-4.431-2.378-4.431-5.282v-52.166c0-2.929 2.003-5.282 4.431-5.282H1034.4c2.45 0 4.43 2.378 4.43 5.282v52.166c.02 2.904-1.98 5.282-4.43 5.282zm-141.733-60.226c-1.051 0-1.927 1.276-1.927 2.778v52.166c0 1.502.876 2.779 1.927 2.779H1034.4c1.05 0 1.92-1.277 1.92-2.779v-52.166c0-1.502-.87-2.778-1.92-2.778H892.667z" fill="#D7D7D7"/><path d="M1013.35 676.248h-95.927a2.51 2.51 0 01-2.503-2.504 2.51 2.51 0 012.503-2.503h95.947c1.38 0 2.5 1.127 2.5 2.503a2.51 2.51 0 01-2.52 2.504zm0-2.504v1.252-1.252zm-53.072 13.894h-42.855a2.51 2.51 0 01-2.503-2.503 2.51 2.51 0 012.503-2.503h42.88a2.51 2.51 0 012.503 2.503c-.025 1.377-1.152 2.503-2.528 2.503zm0-2.503v1.252-1.252zm53.072 2.503h-42.859a2.51 2.51 0 01-2.503-2.503 2.51 2.51 0 012.503-2.503h42.879c1.38 0 2.5 1.126 2.5 2.503a2.523 2.523 0 01-2.52 2.503zm0-2.503v1.252-1.252zm0 14.393h-95.927a2.51 2.51 0 01-2.503-2.503 2.51 2.51 0 012.503-2.504h95.947c1.38 0 2.5 1.127 2.5 2.504-.02 1.401-1.12 2.503-2.52 2.503zm0-2.503v1.251-1.251z" fill="#D7D7D7"/><path d="M294.161 504.73h-141.73c-2.453 0-4.431-2.378-4.431-5.282v-52.166c0-2.929 2.003-5.282 4.431-5.282h141.73c2.453 0 4.431 2.378 4.431 5.282v52.166c.025 2.904-1.978 5.282-4.431 5.282zm-141.73-60.227c-1.052 0-1.928 1.277-1.928 2.779v52.166c0 1.502.876 2.779 1.928 2.779h141.73c1.051 0 1.928-1.277 1.928-2.779v-52.166c0-1.502-.877-2.779-1.928-2.779h-141.73z" fill="#EEE"/><path d="M273.109 465.93h-95.922a2.51 2.51 0 01-2.503-2.503 2.51 2.51 0 012.503-2.503h95.947a2.51 2.51 0 012.503 2.503 2.515 2.515 0 01-2.528 2.503zm0-2.503v1.252-1.252zm-53.068 13.894h-42.854a2.51 2.51 0 01-2.503-2.503 2.51 2.51 0 012.503-2.504h42.879a2.512 2.512 0 012.504 2.504c-.025 1.376-1.152 2.503-2.529 2.503zm0-2.503v1.251-1.251zm53.069 2.503h-42.855a2.51 2.51 0 01-2.503-2.503 2.51 2.51 0 012.503-2.504h42.88a2.511 2.511 0 012.503 2.504 2.533 2.533 0 01-2.528 2.503zm0-2.503v1.251-1.251zm-.001 14.392h-95.922a2.51 2.51 0 01-2.503-2.503 2.51 2.51 0 012.503-2.503h95.947a2.51 2.51 0 012.503 2.503c-.025 1.402-1.126 2.503-2.528 2.503zm0-2.503v1.252-1.252z" fill="#EEE"/><path d="M231.975 780.781a3.34 3.34 0 01-3.379-3.254 3.34 3.34 0 013.254-3.38 3.34 3.34 0 013.379 3.254c.025 1.828-1.451 3.355-3.254 3.38zm-.1-4.856c-.851.025-1.552.725-1.527 1.577.025.851.726 1.552 1.577 1.527.851-.025 1.552-.726 1.527-1.577 0-.852-.726-1.552-1.577-1.527z" fill="#D7D7D7"/><path d="M827.858 307.779l-141.63 2.578c-4.081.075-7.46-2.503-7.535-5.757l-1.702-94.045c-.05-3.254 3.229-5.958 7.309-6.033l141.63-2.578c4.106-.075 7.46 2.503 7.535 5.757l1.702 94.045c.075 3.254-3.204 5.958-7.309 6.033zM684.35 206.274c-3.129.051-5.632 1.953-5.582 4.256l1.702 94.045c.05 2.278 2.629 4.105 5.733 4.03l141.63-2.579c3.129-.05 5.632-1.952 5.582-4.255l-1.702-94.045c-.05-2.278-2.629-4.105-5.733-4.055l-141.63 2.603z" fill="#E2E2E2"/><path d="M831.865 220.96L678.1 223.759l.032 1.752 153.764-2.799-.031-1.752zm-142.659-1.919a3.34 3.34 0 01-3.38-3.254 3.34 3.34 0 013.255-3.38 3.34 3.34 0 013.379 3.254c.025 1.853-1.427 3.355-3.254 3.38zm-.075-4.856c-.851.025-1.552.725-1.527 1.577.025.851.726 1.552 1.577 1.527.851-.026 1.552-.726 1.527-1.577-.025-.852-.726-1.552-1.577-1.527zm9.212 4.705a3.34 3.34 0 01-3.38-3.254 3.34 3.34 0 013.254-3.38 3.34 3.34 0 013.38 3.255c.025 1.827-1.452 3.329-3.254 3.379zm-.101-4.881c-.851.025-1.552.726-1.527 1.577.025.851.726 1.552 1.577 1.527.852-.025 1.552-.726 1.527-1.577 0-.851-.726-1.527-1.577-1.527zm9.038 4.706a3.34 3.34 0 01-3.379-3.254 3.339 3.339 0 013.254-3.379 3.34 3.34 0 013.379 3.254c.025 1.852-1.427 3.354-3.254 3.379zm-.075-4.856c-.851.025-1.552.726-1.527 1.577.025.851.726 1.552 1.577 1.527.851-.025 1.552-.726 1.527-1.577-.025-.851-.726-1.552-1.577-1.527z" fill="#E2E2E2"/></g><path d="M941.001 603.78l-14.644-11.739a72.71 72.71 0 008.386-28.787l18.674-2.053c3.529-.375 6.058-3.554 5.682-7.084l-1.502-13.692c-.375-3.53-3.554-6.058-7.084-5.682l-18.674 2.052a72.38 72.38 0 00-14.443-26.283l11.74-14.644a6.415 6.415 0 00-1.001-9.036l-10.764-8.611a6.414 6.414 0 00-9.036 1.001l-11.74 14.644a72.705 72.705 0 00-28.787-8.386l-2.053-18.674c-.375-3.529-3.554-6.058-7.084-5.682l-13.692 1.502a6.43 6.43 0 00-5.682 7.084l2.052 18.674a72.38 72.38 0 00-26.283 14.443l-14.644-11.74a6.415 6.415 0 00-9.036 1.001l-8.611 10.764a6.414 6.414 0 001.001 9.036l14.644 11.74a72.705 72.705 0 00-8.386 28.787l-18.649 2.053c-3.529.375-6.058 3.554-5.682 7.084l1.502 13.692a6.43 6.43 0 007.084 5.682l18.674-2.052a72.38 72.38 0 0014.443 26.283l-11.74 14.644a6.415 6.415 0 001.001 9.036l10.764 8.611a6.415 6.415 0 009.037-1.001l11.74-14.644a72.7 72.7 0 0028.786 8.386l2.053 18.674a6.431 6.431 0 007.084 5.682l13.692-1.502a6.43 6.43 0 005.682-7.084l-2.052-18.674a72.38 72.38 0 0026.283-14.443l14.644 11.74a6.416 6.416 0 009.037-1.001l8.61-10.764c2.178-2.779 1.753-6.809-1.026-9.037zm-101.905-16.871c-16.07-12.866-18.648-36.321-5.757-52.392 12.866-16.07 36.321-18.648 52.392-5.757 16.07 12.866 18.648 36.321 5.782 52.392-12.916 16.045-36.371 18.623-52.417 5.757z" fill="#424242"/><path d="M647.879 917.996c-1.978 0-3.855-.676-5.432-1.927a8.57 8.57 0 01-3.204-5.833l-1.753-15.995a72.24 72.24 0 01-24.906-7.234l-10.063 12.566c-3.004 3.755-8.511 4.355-12.241 1.351l-10.388-8.335a8.673 8.673 0 01-3.204-5.833 8.73 8.73 0 011.852-6.408l10.063-12.566c-5.532-6.783-9.712-14.418-12.491-22.729l-15.995 1.753c-4.781.5-9.087-2.929-9.612-7.71l-1.452-13.242c-.526-4.781 2.929-9.087 7.71-9.612l15.995-1.753a72.24 72.24 0 017.234-24.906l-12.566-10.063c-3.755-3.004-4.355-8.486-1.351-12.241l8.335-10.388a8.575 8.575 0 015.833-3.204 8.729 8.729 0 016.408 1.852l12.566 10.063c6.783-5.532 14.418-9.712 22.729-12.491l-1.753-15.995a8.724 8.724 0 011.853-6.408 8.569 8.569 0 015.832-3.204l13.242-1.452c2.303-.25 4.581.4 6.408 1.852a8.57 8.57 0 013.204 5.833l1.753 15.995a72.24 72.24 0 0124.906 7.234l10.063-12.566c3.004-3.755 8.486-4.355 12.241-1.351l10.388 8.335a8.673 8.673 0 013.204 5.833 8.73 8.73 0 01-1.852 6.408l-10.063 12.566c5.532 6.783 9.712 14.418 12.491 22.729l15.995-1.753c4.756-.525 9.087 2.929 9.612 7.71l1.452 13.242c.526 4.781-2.929 9.087-7.71 9.612l-15.995 1.753a71.95 71.95 0 01-7.234 24.881l12.566 10.063a8.575 8.575 0 013.204 5.832 8.728 8.728 0 01-1.853 6.409l-8.335 10.388a8.575 8.575 0 01-5.833 3.204c-2.302.275-4.58-.401-6.408-1.852l-12.566-10.063c-6.783 5.532-14.418 9.712-22.729 12.491l1.753 15.995c.525 4.781-2.929 9.087-7.71 9.612l-13.242 1.452c-.3.075-.626.1-.951.1zm-36.622-37.347l1.827.976c8.336 4.481 17.373 7.109 26.835 7.81l2.077.15 2.203 20.101c.1.976.601 1.877 1.352 2.478a3.72 3.72 0 002.728.801l13.242-1.452a3.61 3.61 0 002.478-1.377 3.688 3.688 0 00.801-2.728l-2.203-20.101 2.003-.601c9.062-2.728 17.322-7.259 24.481-13.467l1.577-1.351 15.795 12.641a3.693 3.693 0 002.729.801 3.61 3.61 0 002.478-1.377l8.336-10.388a3.722 3.722 0 00.8-2.729c-.1-.976-.6-1.877-1.351-2.478l-15.795-12.666.976-1.827c4.481-8.361 7.109-17.372 7.81-26.835l.15-2.077 20.101-2.203c2.027-.225 3.504-2.053 3.279-4.08l-1.452-13.242c-.225-2.028-2.078-3.479-4.08-3.279l-20.101 2.203-.601-2.003c-2.728-9.062-7.259-17.322-13.467-24.481l-1.351-1.577 12.666-15.795a3.693 3.693 0 00.801-2.729 3.677 3.677 0 00-1.352-2.478l-10.388-8.335c-1.577-1.277-3.93-1.027-5.207.575l-12.641 15.795-1.827-.976c-8.361-4.481-17.372-7.109-26.834-7.81l-2.078-.15-2.203-20.101a3.677 3.677 0 00-1.352-2.478 3.72 3.72 0 00-2.728-.801l-13.242 1.452c-.976.1-1.877.601-2.478 1.352a3.688 3.688 0 00-.801 2.728l2.203 20.101-2.003.601c-9.061 2.728-17.297 7.259-24.481 13.467l-1.577 1.352-15.795-12.642a3.693 3.693 0 00-2.729-.801c-.976.1-1.877.601-2.478 1.352l-8.335 10.388a3.718 3.718 0 00-.801 2.729c.1.976.6 1.877 1.351 2.478l15.795 12.666-.976 1.827c-4.481 8.361-7.109 17.372-7.81 26.835l-.15 2.077-20.101 2.203c-2.027.225-3.504 2.053-3.279 4.08l1.452 13.242c.225 2.028 2.053 3.479 4.08 3.279l20.101-2.203.601 2.003c2.728 9.062 7.259 17.322 13.467 24.481l1.352 1.577-12.667 15.795a3.693 3.693 0 00-.801 2.729 3.681 3.681 0 001.352 2.478l10.388 8.335c1.577 1.277 3.93 1.027 5.207-.575l12.641-15.745zm33.693-20.126c-8.461 0-16.972-2.753-24.056-8.461-8.035-6.433-13.066-15.62-14.193-25.858-1.126-10.238 1.803-20.275 8.236-28.311 6.433-8.035 15.62-13.066 25.858-14.193 10.238-1.126 20.301 1.803 28.311 8.236 8.035 6.433 13.066 15.62 14.193 25.858 1.126 10.238-1.803 20.276-8.236 28.311-7.609 9.487-18.824 14.418-30.113 14.418zm.1-72.042c-1.251 0-2.478.075-3.73.201-8.911.976-16.896 5.356-22.478 12.365-5.607 6.984-8.136 15.745-7.159 24.632.976 8.911 5.356 16.896 12.365 22.478 14.419 11.565 35.571 9.237 47.135-5.181 5.607-6.984 8.136-15.745 7.159-24.632-.976-8.911-5.356-16.896-12.365-22.478-6.033-4.831-13.342-7.385-20.927-7.385z" fill="#ECECEC" opacity=".55"/><path opacity=".55" d="M865.381 655.797a7.621 7.621 0 01-4.781-1.678 7.591 7.591 0 01-2.829-5.156l-1.952-17.623c-9.587-.851-18.774-3.504-27.31-7.96l-11.089 13.843a7.592 7.592 0 01-5.157 2.828 7.627 7.627 0 01-5.632-1.627l-10.739-8.611a7.588 7.588 0 01-2.828-5.156 7.63 7.63 0 011.627-5.632l11.089-13.843a72.986 72.986 0 01-13.692-24.932l-17.648 1.953a7.547 7.547 0 01-5.632-1.652 7.597 7.597 0 01-2.829-5.157l-1.502-13.692a7.542 7.542 0 011.653-5.632 7.589 7.589 0 015.156-2.829l17.623-1.952c.851-9.588 3.504-18.774 7.96-27.335l-13.843-11.089a7.596 7.596 0 01-2.829-5.132 7.542 7.542 0 011.653-5.632l8.611-10.764a7.588 7.588 0 015.156-2.828 7.537 7.537 0 015.632 1.652l13.843 11.089a73.49 73.49 0 0124.932-13.718l-1.953-17.622c-.475-4.205 2.578-8.01 6.784-8.461l13.692-1.502c4.206-.45 8.01 2.578 8.461 6.784l1.952 17.647c9.588.851 18.774 3.505 27.335 7.96l11.089-13.842a7.676 7.676 0 0110.789-1.177l10.739 8.611a7.592 7.592 0 012.828 5.157 7.538 7.538 0 01-1.652 5.632l-11.089 13.843a73.496 73.496 0 0113.718 24.931l17.647-1.952a7.541 7.541 0 015.632 1.652 7.593 7.593 0 012.829 5.157l1.502 13.692a7.545 7.545 0 01-1.652 5.632 7.597 7.597 0 01-5.157 2.829l-17.622 1.952c-.851 9.587-3.505 18.774-7.96 27.335l13.842 11.089a7.597 7.597 0 012.829 5.157 7.547 7.547 0 01-1.652 5.632l-8.611 10.739c-2.654 3.304-7.485 3.829-10.789 1.201l-13.843-11.089a73.243 73.243 0 01-24.931 13.717l1.952 17.623a7.542 7.542 0 01-1.652 5.632 7.597 7.597 0 01-5.157 2.829l-13.692 1.502c-.275-.051-.551-.025-.851-.025zm-37.523-35.596l.926.501c8.811 4.731 18.324 7.484 28.286 8.235l1.027.075 2.177 19.701a5.07 5.07 0 001.903 3.454 4.985 4.985 0 003.805 1.101l13.692-1.502a5.07 5.07 0 003.455-1.902c.876-1.076 1.251-2.428 1.101-3.805l-2.178-19.7 1.001-.3c9.563-2.904 18.249-7.66 25.808-14.193l.776-.676 15.47 12.391c2.228 1.777 5.482 1.426 7.259-.801l8.611-10.739c.876-1.077 1.252-2.428 1.101-3.805a5.066 5.066 0 00-1.902-3.454l-15.47-12.391.501-.926c4.731-8.812 7.485-18.324 8.235-28.286l.076-1.027 19.7-2.177a5.074 5.074 0 003.454-1.903c.876-1.076 1.252-2.428 1.101-3.805l-1.501-13.692a5.072 5.072 0 00-1.903-3.455c-1.076-.851-2.428-1.276-3.805-1.101l-19.7 2.178-.3-1.001a70.168 70.168 0 00-14.193-25.808l-.676-.776 12.391-15.47a5.2 5.2 0 001.101-3.805 5.066 5.066 0 00-1.902-3.454l-10.739-8.611c-2.228-1.777-5.482-1.427-7.259.801l-12.391 15.47-.926-.501c-8.811-4.731-18.324-7.485-28.286-8.236l-1.027-.075-2.177-19.7c-.301-2.828-2.879-4.881-5.708-4.581l-13.692 1.502a5.068 5.068 0 00-3.454 1.903c-.876 1.076-1.252 2.428-1.102 3.805l2.178 19.7-1.001.3a70.176 70.176 0 00-25.808 14.193l-.776.676-15.47-12.391c-1.076-.876-2.428-1.251-3.805-1.101a5.069 5.069 0 00-3.454 1.902l-8.611 10.764a5.195 5.195 0 00-1.101 3.805 5.066 5.066 0 001.902 3.454l15.47 12.391-.501.926c-4.731 8.811-7.484 18.323-8.235 28.286l-.076 1.026-19.7 2.178a5.066 5.066 0 00-3.454 1.903c-.876 1.076-1.252 2.428-1.101 3.804l1.502 13.693a5.066 5.066 0 001.902 3.454 5.2 5.2 0 003.805 1.102l19.7-2.178.3 1.001c2.879 9.562 7.66 18.248 14.193 25.808l.676.776-12.391 15.47c-.876 1.076-1.251 2.428-1.101 3.805a5.069 5.069 0 001.902 3.454l10.739 8.611a5.2 5.2 0 003.805 1.101 5.066 5.066 0 003.454-1.902l12.391-15.47zm34.494-23.855c-8.461 0-16.972-2.754-24.056-8.436-8.035-6.433-13.066-15.62-14.193-25.833-1.126-10.238 1.803-20.276 8.236-28.311 6.433-8.035 15.62-13.066 25.833-14.193 10.238-1.126 20.276 1.802 28.311 8.236 16.571 13.292 19.249 37.572 5.957 54.144-7.584 9.462-18.799 14.393-30.088 14.393zm.1-74.545c-1.327 0-2.678.075-4.005.225-9.562 1.052-18.148 5.758-24.156 13.267-12.415 15.495-9.912 38.199 5.582 50.64 15.495 12.415 38.199 9.912 50.64-5.582 12.416-15.495 9.913-38.199-5.582-50.64-6.458-5.157-14.318-7.91-22.479-7.91z" fill="#fff"/><path opacity=".38" d="M1013.37 672.492h-95.946v2.503h95.946v-2.503zm-53.067 11.39h-42.879v2.504h42.879v-2.504zm53.067 0h-42.88v2.504h42.88v-2.504zm0 11.892h-95.946v2.503h95.946v-2.503z" fill="#fff"/><path d="M281.914 150.053l.025 50.389v11.715l.05 139.878.125 273.724.05 139.878v11.715l.025 34.043c0 15.369 9.713 28.436 23.305 33.543 3.93 1.476 8.135 2.303 12.566 2.303h25.558l283.433-.126a35.615 35.615 0 0020.251-6.283c9.412-6.458 15.595-17.297 15.595-29.587l-.301-661.342c0-11.014-4.981-20.877-12.816-27.435-6.233-5.232-14.268-8.411-23.054-8.411l-308.966.125c-19.8 0-35.871 16.071-35.846 35.871z" fill="#EEE"/><path d="M285.543 162.594l.025 48.763v11.314l.05 135.347.125 264.837.05 135.348v11.314l.025 32.942c0 14.869 9.563 27.51 22.98 32.441a35.656 35.656 0 0012.39 2.228h25.207l277.529-.125a35.647 35.647 0 0019.975-6.083c9.287-6.258 15.37-16.746 15.37-28.611l-.276-639.84c0-10.663-4.931-20.2-12.641-26.558a35.699 35.699 0 00-22.729-8.136l-302.735.125c-19.525-.025-35.37 15.52-35.345 34.694z" fill="url(#paint0_linear)"/><path d="M642 215v531.328c0 4.756-3.783 8.571-8.514 8.596l-321.675.189c-4.756 0-8.586-3.855-8.611-8.586L303 215c0-4.756 3.855-8.611 8.586-8.611l321.675-.189c4.731.025 8.739 4.069 8.739 8.8z" fill="#fff"/><path d="M642.001 214.585l.025 34.469-338.872-.055-.025-34.869a8.226 8.226 0 018.235-8.236l321.976.055c4.781 0 8.661 3.88 8.661 8.636z" fill="#424242"/><path d="M599.994 222.697a1.24 1.24 0 01-1.252-1.252 1.24 1.24 0 011.252-1.252h25.432a1.24 1.24 0 011.252 1.252 1.24 1.24 0 01-1.252 1.252h-25.432zm0 6.483a1.24 1.24 0 01-1.252-1.252 1.24 1.24 0 011.252-1.251h25.432c.701 0 1.252.55 1.252 1.251a1.24 1.24 0 01-1.252 1.252h-25.432zm0 6.509a1.24 1.24 0 01-1.252-1.252 1.24 1.24 0 011.252-1.251h25.432c.701 0 1.252.55 1.252 1.251a1.24 1.24 0 01-1.252 1.252h-25.432zm-266.941 4.153c-.325 0-.65-.126-.876-.376l-9.236-9.237c-.801-.801-.801-2.102 0-2.878l8.886-8.887a1.24 1.24 0 011.777 0c.501.476.501 1.277 0 1.778l-8.561 8.56 8.912 8.912c.5.475.5 1.276 0 1.777a1.363 1.363 0 01-.902.351z" fill="#fff"/><path d="M472.581 174.409c-5.056 0-9.186-4.106-9.186-9.187 0-5.057 4.105-9.187 9.186-9.187 5.057 0 9.187 4.105 9.187 9.187a9.177 9.177 0 01-9.187 9.187c.025 0 0 0 0 0zm0-14.469c-2.929 0-5.282 2.378-5.282 5.307 0 2.904 2.379 5.282 5.282 5.282a5.248 5.248 0 003.73-1.552 5.264 5.264 0 001.552-3.755 5.248 5.248 0 00-1.552-3.73c-.976-1.001-2.303-1.552-3.73-1.552z" fill="#E0E0E0"/><path d="M463.871 821.033c-3.254 0-5.883-2.653-5.883-5.883v-17.397a5.876 5.876 0 015.883-5.882h17.397c3.254 0 5.882 2.653 5.882 5.882v17.397a5.875 5.875 0 01-5.882 5.883h-17.397zm17.372-26.684h-17.397a3.381 3.381 0 00-3.38 3.379v17.397a3.382 3.382 0 003.38 3.38h17.397a3.381 3.381 0 003.379-3.38v-17.397c.025-1.877-1.502-3.379-3.379-3.379zm-122.181 2.829a1.24 1.24 0 01-1.251-1.252c0-.701.55-1.252 1.251-1.252h16.746a1.24 1.24 0 011.252 1.252 1.24 1.24 0 01-1.252 1.252h-16.746zm0 9.061c-.701 0-1.251-.55-1.251-1.251 0-.701.55-1.252 1.251-1.252h16.746a1.24 1.24 0 011.252 1.252 1.24 1.24 0 01-1.252 1.251h-16.746zm0 9.162a1.24 1.24 0 01-1.251-1.252c0-.701.55-1.251 1.251-1.251h16.746c.701 0 1.252.55 1.252 1.251a1.24 1.24 0 01-1.252 1.252h-16.746zm231.245 5.556c-.326 0-.651-.125-.877-.375l-13.166-13.167 12.816-12.842a1.24 1.24 0 011.777 0 1.24 1.24 0 010 1.778l-11.064 11.064 11.39 11.389c.5.501.5 1.277 0 1.778-.226.275-.551.375-.876.375z" fill="#DFDFDF"/><path d="M642 249H303v111.546h338.897L642 249z" fill="#F2F2F2"/><path opacity=".8" d="M456.109 299.544l-121.579.05a3.526 3.526 0 01-3.53-3.53v-20.426a3.525 3.525 0 013.53-3.529l121.579-.05a3.525 3.525 0 013.53 3.529v20.426a3.526 3.526 0 01-3.53 3.53zm66.811 29.111l-188.365.075a3.525 3.525 0 01-3.53-3.529v-6.684a3.525 3.525 0 013.53-3.529l188.365-.075a3.525 3.525 0 013.529 3.529v6.684a3.525 3.525 0 01-3.529 3.529zm77.274-2.277a25.832 25.832 0 01-18.374-7.61c-4.906-4.906-7.634-11.44-7.634-18.374 0-6.933 2.703-13.467 7.609-18.398 4.906-4.906 11.44-7.61 18.374-7.635a25.83 25.83 0 0118.373 7.61c4.906 4.906 7.61 11.44 7.635 18.373 0 6.934-2.704 13.468-7.61 18.399-4.881 4.931-11.414 7.635-18.373 7.635zm0-46.985c-5.633 0-10.889 2.178-14.844 6.158-3.955 3.98-6.158 9.236-6.133 14.843 0 5.608 2.178 10.889 6.158 14.844 3.955 3.955 9.237 6.133 14.844 6.133 5.607 0 10.889-2.178 14.844-6.158 3.955-3.98 6.157-9.236 6.132-14.844 0-5.607-2.177-10.888-6.157-14.843-3.981-3.955-9.237-6.133-14.844-6.133z" fill="#fff"/><path d="M400.689 479.598l-56.021.025c-6.308 0-11.414-5.107-11.414-11.39l-.025-56.021c0-6.308 5.106-11.415 11.389-11.415l56.021-.025c6.308 0 11.415 5.107 11.415 11.39l.025 56.021c.025 6.308-5.082 11.415-11.39 11.415z" fill="#6F70E8"/><g opacity=".36"><path opacity=".15" d="M389.675 440.599c0 9.386-7.61 17.021-16.997 17.021s-17.022-7.61-17.022-16.996c0-9.387 7.61-17.022 16.997-17.022 9.412-.025 17.022 7.585 17.022 16.997z" fill="#fff"/></g><path d="M400.789 708.915l-56.021.025c-6.308 0-11.415-5.107-11.415-11.39l-.025-56.021c0-6.308 5.107-11.414 11.39-11.414l56.021-.025c6.308 0 11.414 5.106 11.414 11.389l.025 56.021c.026 6.308-5.081 11.415-11.389 11.415z" fill="#6F70E8"/><g opacity=".57"><path opacity=".15" d="M389.774 669.891c0 9.387-7.61 17.022-16.996 17.022-9.387 0-17.022-7.61-17.022-16.997s7.61-17.021 16.997-17.021c9.411 0 17.021 7.609 17.021 16.996z" fill="#fff"/></g><path d="M400.74 593.994l-56.021.025c-6.308 0-11.415-5.107-11.415-11.39l-.025-56.021c0-6.308 5.107-11.415 11.39-11.415l56.021-.025c6.308 0 11.415 5.107 11.415 11.39l.025 56.021c.025 6.308-5.082 11.415-11.39 11.415z" fill="#1DB86A"/><path opacity=".1" d="M372.729 572.017c9.401 0 17.021-7.621 17.021-17.022 0-9.4-7.62-17.021-17.021-17.021s-17.022 7.621-17.022 17.021c0 9.401 7.621 17.022 17.022 17.022z" fill="#fff"/><path d="M472.982 427.182l-44.331.025a2.852 2.852 0 01-2.854-2.854v-8.436a2.852 2.852 0 012.854-2.853l44.331-.025a2.852 2.852 0 012.854 2.853v8.436a2.853 2.853 0 01-2.854 2.854zm-47.16 21.753a2.511 2.511 0 01-2.504-2.503 2.512 2.512 0 012.504-2.504l85.358-.05a2.51 2.51 0 012.503 2.504 2.51 2.51 0 01-2.503 2.503l-85.358.05zm0 17.848a2.512 2.512 0 01-2.504-2.504 2.511 2.511 0 012.504-2.503l139.202-.05a2.511 2.511 0 012.503 2.503 2.51 2.51 0 01-2.503 2.503l-139.202.051zm104.384-17.899a2.511 2.511 0 01-2.503-2.504 2.511 2.511 0 012.503-2.503l85.359-.025a2.51 2.51 0 012.503 2.503 2.51 2.51 0 01-2.503 2.503l-85.359.026zM473.082 656.5l-44.332.025a2.853 2.853 0 01-2.854-2.854v-8.435a2.853 2.853 0 012.854-2.854l44.332-.025a2.852 2.852 0 012.853 2.854v8.435a2.852 2.852 0 01-2.853 2.854zm-47.159 21.728a2.51 2.51 0 01-2.503-2.503 2.51 2.51 0 012.503-2.503l85.359-.025a2.51 2.51 0 012.503 2.503 2.51 2.51 0 01-2.503 2.503l-85.359.025zm0 17.873a2.51 2.51 0 01-2.503-2.503 2.51 2.51 0 012.503-2.503l139.202-.051a2.51 2.51 0 012.503 2.504 2.51 2.51 0 01-2.503 2.503l-139.202.05zm104.383-17.924a2.51 2.51 0 01-2.503-2.503 2.51 2.51 0 012.503-2.503l85.359-.025a2.51 2.51 0 012.503 2.503 2.51 2.51 0 01-2.503 2.503l-85.359.025zm-57.273-136.6l-44.332.025a2.852 2.852 0 01-2.853-2.854v-8.435a2.852 2.852 0 012.853-2.854l44.332-.025a2.852 2.852 0 012.853 2.854v8.435a2.852 2.852 0 01-2.853 2.854zm-47.161 21.728a2.51 2.51 0 01-2.503-2.503 2.51 2.51 0 012.503-2.503l39.476-.025a2.51 2.51 0 012.503 2.503 2.51 2.51 0 01-2.503 2.503l-39.476.025zm0 17.872a2.51 2.51 0 01-2.503-2.503 2.51 2.51 0 012.503-2.503l81.028-.025a2.51 2.51 0 012.504 2.503 2.51 2.51 0 01-2.504 2.503l-81.028.025zm55.996-17.898a2.51 2.51 0 01-2.503-2.503 2.51 2.51 0 012.503-2.503l78.851-.025a2.51 2.51 0 012.503 2.503 2.51 2.51 0 01-2.503 2.503l-78.851.025zm93.52-.024a2.51 2.51 0 01-2.503-2.504 2.51 2.51 0 012.503-2.503l39.475-.025a2.51 2.51 0 012.503 2.503 2.51 2.51 0 01-2.503 2.504l-39.475.025z" fill="#F2F2F2"/><path opacity=".39" d="M899.024 595.196l3.279 269.668c.05 4.756-3.755 8.636-8.486 8.711l-160.104 1.953c-4.756.05-8.636-3.755-8.711-8.486l-3.279-269.668c-.05-4.757 3.755-8.636 8.486-8.712l160.104-1.952c4.781-.05 8.661 3.73 8.711 8.486z" fill="#fff"/><path d="M899.024 595.196l3.279 269.668c.05 4.756-3.755 8.636-8.486 8.711l-160.104 1.953c-4.756.05-8.636-3.755-8.711-8.486l-3.279-269.668c-.05-4.757 3.755-8.636 8.486-8.712l160.104-1.952c4.781-.05 8.661 3.73 8.711 8.486z" fill="#FBFBFB"/><path d="M899.624 595.095l.175 13.892-178.276 2.153-.175-14.318c-.05-4.556 3.58-8.261 8.136-8.336l161.404-1.952c4.756-.025 8.686 3.78 8.736 8.561z" fill="#E0E0E0"/><path d="M734.514 603.03c-2.003.025-3.655-1.602-3.68-3.63-.025-2.003 1.602-3.655 3.63-3.68 2.003-.025 3.655 1.602 3.68 3.63.025 2.002-1.602 3.655-3.63 3.68zm-.025-5.833c-1.202 0-2.178 1.001-2.178 2.203 0 1.201 1.001 2.178 2.203 2.178s2.178-1.002 2.178-2.203c-.025-1.227-1.001-2.203-2.203-2.178zm12.216 5.732c-2.002.025-3.654-1.602-3.679-3.629-.025-2.003 1.602-3.655 3.629-3.68 2.003-.025 3.655 1.602 3.68 3.63a3.627 3.627 0 01-3.63 3.679zm-.025-5.832c-1.201 0-2.177 1.001-2.177 2.203 0 1.201 1.001 2.178 2.202 2.178 1.202 0 2.178-1.002 2.178-2.203 0-1.227-1.001-2.178-2.203-2.178zm11.889 5.757c-2.003.025-3.655-1.602-3.68-3.63-.025-2.002 1.602-3.654 3.63-3.679 2.002-.025 3.654 1.602 3.679 3.629a3.691 3.691 0 01-3.629 3.68zm-.05-5.857c-1.202 0-2.178 1.001-2.178 2.202 0 1.202 1.001 2.178 2.203 2.178 1.201 0 2.177-1.001 2.177-2.203a2.184 2.184 0 00-2.202-2.177z" fill="#fff"/><path d="M735.962 650.873a1.774 1.774 0 001.796 1.787l70.944-.282c.965-.004 1.784-.835 1.779-1.804-.008-1.547-.024-3.096-.035-4.644a.998.998 0 01.995-1.005l68.167-.253a1.775 1.775 0 001.779-1.805l-.038-7.731a1.775 1.775 0 00-1.797-1.787l-141.887.526a1.775 1.775 0 00-1.779 1.805l.076 15.193zm.898 68.242a1.775 1.775 0 001.797 1.787l70.943-.281c.966-.005 1.784-.835 1.779-1.805-.007-1.547-.024-3.096-.035-4.644a.998.998 0 01.995-1.005l68.168-.253a1.775 1.775 0 001.779-1.805l-.039-7.731a1.774 1.774 0 00-1.796-1.787l-141.888.527a1.775 1.775 0 00-1.779 1.805l.076 15.192zm0-35.019a1.775 1.775 0 001.797 1.787l70.943-.281c.966-.005 1.784-.835 1.779-1.805-.007-1.547-.024-3.096-.035-4.644a.998.998 0 01.995-1.005l68.168-.253a1.775 1.775 0 001.779-1.805l-.039-7.731a1.774 1.774 0 00-1.796-1.787l-141.888.527a1.775 1.775 0 00-1.779 1.805l.076 15.192zm83.962 111.329l-81.929.626c-.801 0-1.477-.651-1.477-1.452 0-.801.651-1.477 1.452-1.477l81.929-.626c.801 0 1.477.651 1.477 1.452.025.826-.626 1.477-1.452 1.477zm27.312-.2l-16.997.125c-.801 0-1.477-.651-1.477-1.452 0-.801.651-1.476 1.452-1.476l16.997-.126c.801 0 1.477.651 1.477 1.452.025.826-.626 1.477-1.452 1.477zm29.765-47.805l-136.894.872c-2.036.015-3.706-1.441-3.724-3.247-.017-1.807 1.625-3.288 3.662-3.303l136.893-.872c2.037-.016 3.707 1.441 3.724 3.247.017 1.806-1.625 3.288-3.661 3.303zm.123 15.086l-136.894.872c-2.036.015-3.706-1.441-3.724-3.247-.017-1.807 1.625-3.288 3.662-3.303l136.893-.872c2.037-.016 3.707 1.441 3.724 3.247.017 1.806-1.625 3.288-3.661 3.303zm-50.615 15.046l-54.62.425c-.801 0-1.476-.651-1.476-1.452 0-.801.65-1.477 1.451-1.477l54.62-.425c.801 0 1.477.651 1.477 1.452 0 .801-.651 1.477-1.452 1.477zm-64.682.476l-23.955.175c-.801 0-1.477-.651-1.477-1.452 0-.801.651-1.477 1.452-1.477l23.955-.175c.801 0 1.477.651 1.477 1.452 0 .826-.651 1.477-1.452 1.477zm58.273 38.449l-81.929.626c-.801 0-1.477-.651-1.477-1.452 0-.801.651-1.477 1.452-1.477l81.929-.626c.801 0 1.477.651 1.477 1.452 0 .801-.651 1.452-1.452 1.477zm27.311-.226l-16.996.125c-.801 0-1.477-.651-1.477-1.452 0-.801.651-1.477 1.452-1.477l16.996-.125c.801 0 1.477.651 1.477 1.452 0 .826-.651 1.477-1.452 1.477z" fill="#E0E0E0"/><path d="M848.634 859.206l-16.997.125c-.801 0-1.477-.651-1.477-1.452 0-.801.651-1.477 1.452-1.477l16.997-.125c.801 0 1.477.651 1.477 1.452 0 .826-.651 1.477-1.452 1.477zm27.986-.201l-16.997.125c-.801 0-1.477-.651-1.477-1.452 0-.801.651-1.477 1.452-1.477l16.997-.125c.801 0 1.477.651 1.477 1.452 0 .801-.651 1.452-1.452 1.477zm-82.807-26.357l-54.619.425c-.801 0-1.477-.651-1.477-1.452 0-.801.651-1.477 1.452-1.477l54.619-.425c.801 0 1.477.651 1.477 1.452 0 .801-.651 1.477-1.452 1.477zm33.994-.251l-23.955.175c-.801 0-1.477-.651-1.477-1.452 0-.801.651-1.476 1.452-1.476l23.955-.176c.801 0 1.477.651 1.477 1.452 0 .801-.651 1.452-1.452 1.477z" fill="#fff"/><path d="M937.449 169.03l3.304 322.51a8.59 8.59 0 01-8.511 8.686l-192.77 1.978a8.59 8.59 0 01-8.686-8.511l-3.28-322.536a8.59 8.59 0 018.511-8.686l192.771-1.977c4.731-.025 8.611 3.78 8.661 8.536z" fill="#F8F8F8"/><path d="M938.149 168.904l.175 18.048-210.967 2.152-.2-18.473c-.05-4.556 3.604-8.261 8.135-8.311l194.071-1.977c4.831-.05 8.761 3.78 8.786 8.561z" fill="#6F70E8"/><path d="M912.242 171.357a1.256 1.256 0 01-1.252-1.252 1.24 1.24 0 011.252-1.251l15.745-.15c.601-.101 1.251.55 1.251 1.251a1.24 1.24 0 01-1.251 1.252l-15.745.15c.025 0 .025 0 0 0zm.051 4.006c-.676 0-1.252-.55-1.252-1.251a1.24 1.24 0 011.252-1.252l15.745-.15c.575.025 1.251.551 1.251 1.252 0 .7-.55 1.251-1.251 1.251l-15.745.15zm.048 4.03a1.256 1.256 0 01-1.251-1.252 1.24 1.24 0 011.251-1.252l15.746-.15c.675 0 1.251.551 1.251 1.252s-.551 1.251-1.251 1.251l-15.746.151zm-165.261 4.181c-.325 0-.625-.125-.876-.351l-5.782-5.657c-.676-.676-.701-1.777-.025-2.453l5.457-5.557a1.26 1.26 0 011.777-.025c.501.475.501 1.277.025 1.777l-4.906 5.007 5.232 5.131c.5.476.5 1.277.025 1.777a1.472 1.472 0 01-.927.351z" fill="#fff"/><path d="M932.69 500.801l-194.319 1.101c-4.656.025-8.461-3.73-8.486-8.411l-.375-67.035 210.318-1.176 1.273 67.035c.025 4.656-3.755 8.461-8.411 8.486zm-56.869-265.963l-84.483.475c-1.552 0-2.804-1.226-2.804-2.778l-.05-9.262c0-1.552 1.227-2.804 2.779-2.804l84.482-.475c1.552 0 2.804 1.226 2.804 2.778l.05 9.262c.025 1.527-1.227 2.804-2.778 2.804zm26.958 60.476l-137.7.776c-6.533.025-11.865-5.231-11.915-11.79l-.025-2.903c-.025-6.534 5.231-11.866 11.79-11.916l137.7-.776c6.533-.025 11.865 5.232 11.915 11.79l.025 2.904c.025 6.533-5.256 11.865-11.79 11.915z" fill="#F2F2F2"/><path d="M775.267 282.823c.025 4.531-3.629 8.211-8.135 8.236-4.531.025-8.21-3.63-8.235-8.136-.025-4.53 3.629-8.21 8.135-8.235 4.531-.025 8.21 3.629 8.235 8.135z" fill="#6F70E8"/><path d="M770.011 280.521c0 1.627-1.301 2.954-2.928 2.954s-2.954-1.302-2.954-2.929c0-1.627 1.302-2.954 2.929-2.954 1.627-.025 2.953 1.302 2.953 2.929z" fill="#fff"/><path d="M771.488 288.131l-8.736.05v-1.076c-.025-2.528 2.028-4.606 4.581-4.631 2.303-.025 4.155 1.827 4.18 4.13l-.025 1.527z" fill="#fff"/><path d="M903.004 338.645l-137.7.776c-6.534.025-11.866-5.231-11.916-11.79l-.025-2.903c-.025-6.534 5.232-11.865 11.79-11.916l137.701-.776c6.533-.025 11.865 5.232 11.915 11.79l.025 2.904c.025 6.534-5.232 11.865-11.79 11.915z" fill="#F2F2F2"/><path d="M775.517 326.154c.025 4.531-3.629 8.211-8.135 8.236-4.531.025-8.21-3.63-8.235-8.136-.025-4.53 3.629-8.21 8.135-8.235 4.506-.025 8.21 3.63 8.235 8.135z" fill="#6F70E8"/><path d="M770.085 331.335l-5.507.025a.828.828 0 01-.826-.801l-.025-4.881c0-.451.35-.802.801-.827l5.507-.025c.45 0 .801.351.826.801l.025 4.882c.025.475-.351.826-.801.826z" fill="#fff"/><path d="M764.453 325.452v-2.027c0-.526.2-1.027.576-1.427a1.99 1.99 0 011.402-.601h1.852c.476 0 .926.175 1.277.526.35.35.525.801.525 1.276l.025 2.228h-.626l-.025-2.228c0-.325-.125-.601-.35-.826a1.179 1.179 0 00-.826-.35h-1.852c-.376 0-.726.15-.977.4-.25.251-.4.601-.4.977v2.027l-.601.025z" fill="#fff"/><path d="M866.784 387.056l-59.401.325c-7.184.05-13.042-5.757-13.092-12.941-.05-7.184 5.758-13.042 12.942-13.092l59.4-.325c7.185-.05 13.042 5.757 13.092 12.941.05 7.184-5.757 13.042-12.941 13.092z" fill="#6F70E8"/><path d="M777.345 454.092c-1.377 0-2.503-1.102-2.503-2.479a2.527 2.527 0 012.478-2.528l114.946-.651h.025c1.377 0 2.503 1.102 2.503 2.479a2.527 2.527 0 01-2.478 2.528l-114.971.651zm23.379 17.297c-1.377 0-2.503-1.101-2.503-2.478a2.526 2.526 0 012.478-2.528l68.337-.376h.025c1.377 0 2.503 1.101 2.503 2.478a2.526 2.526 0 01-2.478 2.528l-68.362.376c.025 0 0 0 0 0z" fill="#DFDFDF"/><path d="M209.968 553.983l3.304 322.51a8.59 8.59 0 01-8.511 8.686l-192.77 1.978a8.59 8.59 0 01-8.686-8.511L0 556.136a8.59 8.59 0 018.511-8.687l192.771-1.977c4.731-.05 8.636 3.755 8.686 8.511z" fill="#fff"/><path d="M211.307 554.001l3 323c.05 4.756-4.244 9.95-9 10l-195 1c-4.756.05-9.95-4.244-10-9.001V556c-.05-4.756 3.744-9.949 8.5-10l192.5-.999c4.731-.05 9.95 4.244 10 9z" fill="#F8F8F8"/><path d="M211.307 553.501L211.5 573 .307 574.001v-19c-.05-4.556 3.47-8.95 8-9l193.693-1c4.807-.05 9.257 3.718 9.307 8.5z" fill="#424242"/><path d="M184.761 556.309a1.255 1.255 0 01-1.251-1.252c0-.701.55-1.251 1.251-1.251l15.745-.15c.576 0 1.252.55 1.252 1.251a1.24 1.24 0 01-1.252 1.252l-15.745.15zm.026 4.004c-.676 0-1.252-.55-1.252-1.251a1.24 1.24 0 011.252-1.252l15.745-.15c.676 0 1.251.551 1.251 1.252 0 .7-.55 1.251-1.251 1.251l-15.745.15c.025 0 0 0 0 0zm.049 4.031a1.256 1.256 0 01-1.252-1.252 1.24 1.24 0 011.252-1.252l15.745-.15c.676 0 1.251.551 1.251 1.252s-.55 1.251-1.251 1.251l-15.745.151zm-165.234 4.182c-.326 0-.626-.125-.876-.351l-5.783-5.657c-.675-.676-.7-1.777-.025-2.453l5.457-5.557a1.261 1.261 0 011.778-.025c.5.475.5 1.276.025 1.777l-4.907 5.006 5.232 5.132c.5.476.5 1.277.025 1.777-.3.226-.6.351-.926.351z" fill="#fff"/><path d="M205.307 887l-194.5 1c-4.656.025-10.475-3.319-10.5-8v-69l213.5-1 .5 67c.025 4.656-4.319 9.975-9 10z" fill="#F8F8F8"/><path d="M182.366 621.795l-151.618-.2a4.888 4.888 0 01-4.88-4.881l.024-15.12a4.888 4.888 0 014.881-4.881l151.618.2a4.888 4.888 0 014.882 4.882l-.025 15.119a4.84 4.84 0 01-4.882 4.881zm.749 19.299l-153.12-.2a4.135 4.135 0 01-4.13-4.131 4.134 4.134 0 014.13-4.13l153.12.2a4.135 4.135 0 014.131 4.131 4.135 4.135 0 01-4.131 4.13zm-.023 19.025l-153.12-.2a4.134 4.134 0 01-4.13-4.13 4.135 4.135 0 014.13-4.131l153.12.201a4.134 4.134 0 014.13 4.13 4.134 4.134 0 01-4.13 4.13z" fill="#EEE"/><path d="M46.568 687.978c0 5.733-4.656 10.364-10.388 10.364-5.733 0-10.364-4.656-10.364-10.389 0-5.732 4.656-10.363 10.389-10.363 5.732 0 10.363 4.656 10.363 10.388zm-.051 47.086c0 5.733-4.656 10.363-10.388 10.363s-10.363-4.656-10.363-10.388 4.656-10.363 10.388-10.363c5.707 0 10.363 4.631 10.363 10.388zm-.074 45.659c0 5.732-4.656 10.388-10.388 10.363-5.733 0-10.364-4.656-10.364-10.388 0-5.733 4.656-10.389 10.389-10.364 5.732 0 10.388 4.656 10.363 10.389z" fill="#1DB86A"/><path d="M51.197 693.511a1.24 1.24 0 001.252 1.252l49.663.05c.676 0 1.252-.576 1.252-1.252 0-.977-.005-1.955-.008-2.933a1 1 0 011-1l47.419.06a1.24 1.24 0 001.252-1.252v-5.387a1.24 1.24 0 00-1.252-1.252l-99.326-.125a1.24 1.24 0 00-1.252 1.252v10.587zm0 45.794a1.24 1.24 0 001.252 1.252l49.663.05c.676 0 1.252-.576 1.252-1.252 0-.977-.005-1.955-.008-2.933a.998.998 0 011-1l47.419.06a1.24 1.24 0 001.252-1.252v-5.387a1.24 1.24 0 00-1.252-1.252l-99.326-.125a1.24 1.24 0 00-1.252 1.252v10.587zm0 45.794a1.24 1.24 0 001.252 1.252l49.663.05c.676 0 1.252-.576 1.252-1.252 0-.977-.005-1.955-.008-2.933a.998.998 0 011-1l47.419.06a1.24 1.24 0 001.252-1.252v-5.387a1.24 1.24 0 00-1.252-1.252l-99.326-.125a1.24 1.24 0 00-1.252 1.252v10.587z" fill="#EEE"/><path d="M49.84 839.045c-1.378 0-2.504-1.102-2.504-2.479a2.527 2.527 0 012.478-2.528l114.946-.651h.025c1.377 0 2.504 1.102 2.504 2.479a2.528 2.528 0 01-2.478 2.528l-114.972.651zm23.378 17.297c-1.377 0-2.503-1.102-2.503-2.478a2.528 2.528 0 012.478-2.529l68.337-.375h.025c1.377 0 2.503 1.101 2.503 2.478a2.526 2.526 0 01-2.478 2.528l-68.362.376c.025 0 .025 0 0 0z" fill="#fff"/><path d="M1033.22 611.162H853.768a4.028 4.028 0 01-4.03-4.03v-52.166a4.028 4.028 0 014.03-4.03h179.452c2.23 0 4.03 1.802 4.03 4.03v52.166c0 2.228-1.8 4.03-4.03 4.03z" fill="#F8F8F8"/><path d="M881.603 599.048c-10.689 0-19.4-8.711-19.4-19.399 0-10.689 8.711-19.4 19.4-19.4 10.688 0 19.399 8.711 19.399 19.4 0 10.688-8.711 19.399-19.399 19.399z" fill="#1DB86A"/><path d="M879.901 586.933l-7.26-10.038a1.954 1.954 0 01-.35-1.427c.075-.5.35-.951.776-1.251.4-.301.901-.426 1.427-.351.5.075.951.351 1.251.776l4.606 6.383 23.054-23.054a1.904 1.904 0 012.704 0 1.904 1.904 0 010 2.704l-26.208 26.258zm-6.183-10.814s0 .025 0 0z" fill="#fff"/><path opacity=".38" d="M915.876 588.916a1.774 1.774 0 001.796 1.787l70.944-.281c.966-.005 1.784-.835 1.779-1.805-.008-1.549-.024-3.099-.035-4.649a.998.998 0 01.99-1.005l28.17-.248c1-.005 1.79-.799 1.78-1.805-.01-2.442-.02-5.223-.04-7.73 0-1.006-.79-1.793-1.79-1.788l-101.891.527a1.775 1.775 0 00-1.779 1.805l.076 15.192z" fill="#E4E4E4"/><defs><linearGradient id="paint0_linear" x1="472.406" y1="127.775" x2="472.406" y2="837.128" gradientUnits="userSpaceOnUse"><stop stop-color="#FEFEFE"/><stop offset="1" stop-color="#F2F2F2"/></linearGradient></defs></svg>