<svg width="41" height="40" fill="none" xmlns="http://www.w3.org/2000/svg"><g clip-path="url(#clip0)"><path d="M17.508 16.25v-15c0-.69-.56-1.25-1.25-1.25C7.298 0 .008 7.29.008 16.25c0 .69.56 1.25 1.25 1.25h15c.69 0 1.25-.56 1.25-1.25z" fill="#fff"/><path d="M4.694 4.845A16.193 16.193 0 00.008 16.25c0 .69.56 1.25 1.25 1.25h15c.343 0 .655-.138.882-.363L4.694 4.845z" fill="#fff"/><path d="M19.26 23.203a1.25 1.25 0 00-1.125-.703H3.033c-.69 0-1.25.56-1.25 1.25C1.783 32.71 9.118 40 18.135 40c2.476 0 4.868-.54 7.103-1.607a1.25 1.25 0 00.587-1.675L19.26 23.203z" fill="#1DB86A"/><path d="M18.135 22.5H3.033c-.69 0-1.25.56-1.25 1.25 0 5.908 3.19 11.092 7.949 13.935l9.106-14.968a1.252 1.252 0 00-.703-.217z" fill="#1DB86A"/><path d="M23.758 2.967c-.69 0-1.25.56-1.25 1.25V19.12c0 .188.043.377.125.545l6.521 13.43a1.248 1.248 0 001.667.582c5.667-2.729 9.187-8.305 9.187-14.555 0-8.909-7.29-16.155-16.25-16.155z" fill="#6F70E8"/><path d="M39.464 14.973L22.57 19.508c.019.055.039.107.064.159l6.521 13.43a1.249 1.249 0 001.667.581c5.667-2.728 9.187-8.305 9.187-14.555a15.99 15.99 0 00-.544-4.15z" fill="#6F70E8"/></g><defs><clipPath id="clip0"><path fill="#fff" transform="translate(.008)" d="M0 0h40v40H0z"/></clipPath></defs></svg>