<svg width="40" height="40" fill="none" xmlns="http://www.w3.org/2000/svg"><g clip-path="url(#clip0)"><path fill-rule="evenodd" clip-rule="evenodd" d="M5.47 21.921l-1.603 1.6a.853.853 0 00-.002 1.205l.651.654a6.936 6.936 0 00-.559 1.382l-.938-.002a.854.854 0 00-.853.852l-.005 2.265a.852.852 0 00.849.854l.974.003c.141.47.33.919.559 1.341l-.694.695a.853.853 0 00-.002 1.205l1.596 1.606a.857.857 0 001.206.003l.696-.695c.42.232.869.423 1.335.564v.976a.856.856 0 00.849.856l2.265.005a.857.857 0 00.853-.852l.002-.94a7.171 7.171 0 001.381-.552l.651.654c.33.33.873.332 1.206.002l1.603-1.6a.857.857 0 00.002-1.207l-.615-.618c.251-.445.456-.92.608-1.416l.853.002c.47 0 .853-.382.853-.852l.005-2.265a.856.856 0 00-.851-.857h-.817a7.01 7.01 0 00-.595-1.463l.574-.573a.855.855 0 00.003-1.204l-1.597-1.607a.855.855 0 00-1.205-.003l-.575.573a6.996 6.996 0 00-1.459-.6l.002-.82a.855.855 0 00-.848-.854l-2.265-.005a.854.854 0 00-.854.852l-.002.854c-.496.15-.972.353-1.416.603l-.615-.618a.855.855 0 00-1.206-.003z" fill="#fff"/><path fill-rule="evenodd" clip-rule="evenodd" d="M10.683 26.61a2.15 2.15 0 00-2.153 2.146 2.148 2.148 0 104.297.009 2.151 2.151 0 00-2.144-2.155z" fill="#434343"/><path fill-rule="evenodd" clip-rule="evenodd" d="M17.389 31.26h8.677c0-6.984 6.748-7.887 6.739-15.394C32.798 8.71 27.262 5.191 21.728 5.27c-5.536-.078-11.07 3.441-11.079 10.597-.009 7.507 6.74 8.41 6.74 15.393z" fill="#1DB86A"/><path d="M21.727 2.91a.595.595 0 01-.594-.594V.595a.595.595 0 111.19 0v1.721a.595.595 0 01-.596.595zm-6.375 1.531a.593.593 0 01-.42-.174l-1.217-1.218a.595.595 0 01.841-.84l1.217 1.218a.595.595 0 01-.42 1.014zm12.75 0a.593.593 0 01-.421-1.014l1.216-1.219a.595.595 0 01.842.84l-1.217 1.219a.593.593 0 01-.42.174z" fill="#1DB86A"/><path d="M23.448 17.566h-3.73a.595.595 0 100 1.19h1.305v11.622a.595.595 0 001.19 0V18.756h1.235a.595.595 0 100-1.19z" fill="#fff"/><path fill-rule="evenodd" clip-rule="evenodd" d="M18.118 35.08l3.33-1.335 3.89 1.335v2.459a2.468 2.468 0 01-2.458 2.46h-2.306a2.466 2.466 0 01-2.456-2.46V35.08z" fill="#fff"/><path fill-rule="evenodd" clip-rule="evenodd" d="M16.845 30.378h9.766c.435 0 .79.355.79.791v3.118a.794.794 0 01-.79.793h-9.766a.796.796 0 01-.792-.793V31.17c0-.436.357-.792.792-.792z" fill="#737373"/><path fill-rule="evenodd" clip-rule="evenodd" d="M26.298 36.647a6.756 6.756 0 009.562 0 6.772 6.772 0 000-9.57 6.756 6.756 0 00-9.562 0 6.772 6.772 0 000 9.57z" fill="#6F70E8"/><path d="M33.562 30.46l-2.06-2.064a.591.591 0 00-.842 0l-2.063 2.063a.595.595 0 10.841.841l1.048-1.048v4.655a.595.595 0 101.19 0v-4.654L32.72 31.3a.593.593 0 00.84 0 .595.595 0 00.001-.84z" fill="#fff"/></g><defs><clipPath id="clip0"><path fill="#fff" d="M0 0h40v40H0z"/></clipPath></defs></svg>