<svg width="41" height="40" fill="none" xmlns="http://www.w3.org/2000/svg"><path d="M38.687 24.008s-1.03 1.828-1.171 2.039c-.305.563-1.032.75-1.594.445-.234-.14-1.805-1.031-1.992-1.172-.633.54-1.36.985-2.203 1.29v1.593a1.16 1.16 0 01-1.172 1.172H28.21a1.16 1.16 0 01-1.172-1.172V26.61a7.087 7.087 0 01-2.203-1.289l-3.656 1.97-3.399.538 1.032-4.57 3.656-1.969a7.756 7.756 0 01-.117-1.29c0-.444.046-.866.14-1.288l-3.656-1.969-1.195-4.313 3.562.282 3.633 1.969a7.171 7.171 0 012.203-1.29v-1.593a1.16 1.16 0 011.172-1.172h2.344a1.16 1.16 0 011.172 1.172v1.594a6.97 6.97 0 012.18 1.289h.023c.234-.14 1.804-1.032 1.992-1.172a1.199 1.199 0 011.594.422s1.03 1.828 1.172 2.039c.328.562.14 1.289-.422 1.617-.258.117-1.805.984-1.992 1.125.093.422.14.844.14 1.29 0 .444-.047.866-.117 1.288.258.117 1.781.984 1.969 1.125.562.328.75 1.031.421 1.594z" fill="#fff"/><path d="M19.938 34.554s-1.031 1.829-1.172 2.04c-.305.562-1.031.75-1.594.445-.234-.14-1.805-1.031-1.992-1.172-.633.54-1.36.961-2.203 1.29v1.671A1.16 1.16 0 0111.805 40H9.46a1.16 1.16 0 01-1.172-1.172v-1.672a7.576 7.576 0 01-2.203-1.289c-.234.14-1.805 1.031-1.992 1.172-.563.305-1.29.117-1.594-.445-.14-.235-1.031-1.828-1.172-2.016a1.17 1.17 0 01.399-1.594 62.13 62.13 0 001.992-1.148 7.998 7.998 0 01-.117-1.29c0-.445.047-.866.14-1.288-.258-.118-1.804-.985-1.992-1.125a1.184 1.184 0 01-.422-1.618c.14-.234 1.031-1.828 1.172-2.015.305-.563 1.008-.75 1.57-.446 0 0 1.805 1.032 2.016 1.172a7.171 7.171 0 012.203-1.289V20l2.344-2.344L12.977 20v3.937a7.18 7.18 0 012.203 1.29l3.633-1.97 2.367 4.032-3.657 1.969c.094.422.141.843.141 1.289 0 .445-.047.867-.117 1.289.258.117 1.781.984 1.969 1.125.562.328.75 1.031.422 1.593z" fill="#1DB86A"/><path d="M21.203 12.71l-2.367 4.032-3.656-1.969c-.328.282-.68.516-1.031.75a7.532 7.532 0 01-1.172.54V20H8.289v-3.938a7.089 7.089 0 01-2.203-1.289c-.234.14-1.805 1.032-1.992 1.172-.563.305-1.29.117-1.594-.445-.14-.235-1.031-1.828-1.172-2.016a1.17 1.17 0 01.399-1.594c.023 0 1.781-1.007 1.992-1.148a7.761 7.761 0 01-.117-1.289c0-.445.047-.867.14-1.29-.258-.116-1.804-.984-1.992-1.124a1.184 1.184 0 01-.422-1.617c.14-.235 1.031-1.828 1.172-2.016.305-.562 1.008-.75 1.57-.445 0 0 1.805 1.031 2.016 1.172a7.172 7.172 0 012.203-1.29v-1.67A1.16 1.16 0 019.461 0h2.344a1.16 1.16 0 011.172 1.172v1.672c.82.304 1.523.726 2.18 1.289h.023c.234-.14 1.805-1.031 1.992-1.172a1.199 1.199 0 011.594.422s1.03 1.828 1.172 2.039c.328.562.14 1.289-.422 1.617-.258.117-1.805.985-1.992 1.125.093.422.14.844.14 1.29 0 .445-.047.866-.117 1.288l3.656 1.969z" fill="#6F70E8"/><path d="M33.719 16.836a1.133 1.133 0 00-1.64 0l-2.696 2.672-1.172 1.172-1.524-1.5a1.133 1.133 0 00-1.64 0 1.133 1.133 0 000 1.64l2.344 2.344c.21.234.515.352.82.352.305 0 .61-.117.82-.352l.352-.352 4.336-4.335a1.133 1.133 0 000-1.641zM15.023 29.352a1.133 1.133 0 00-1.64 0l-2.695 2.671-1.172 1.172-1.524-1.5a1.133 1.133 0 00-1.64 0 1.133 1.133 0 000 1.64l2.343 2.345a1.1 1.1 0 00.82.351c.305 0 .61-.117.82-.351l.352-.352 4.336-4.336a1.133 1.133 0 000-1.64zm-.054-23.063a1.133 1.133 0 00-1.64 0l-2.696 2.672-1.172 1.172-1.524-1.5a1.133 1.133 0 00-1.64 0 1.133 1.133 0 000 1.64l2.344 2.344c.21.235.515.352.82.352.305 0 .61-.117.82-.352l.352-.351 4.336-4.336a1.133 1.133 0 000-1.641z" fill="#424242"/></svg>