<svg width="40" height="40" fill="none" xmlns="http://www.w3.org/2000/svg"><path d="M38.832 21.13c0 10.422-8.448 18.87-18.87 18.87-10.42 0-18.868-8.448-18.868-18.87 0-10.42 8.448-18.869 18.869-18.869 10.42 0 18.87 8.449 18.87 18.87z" fill="#434343"/><path d="M38.832 21.13c0-.435-.016-.867-.045-1.296l-.859-.858a.657.657 0 00-.82-.087l-2.087 1.349a9.33 9.33 0 00-1.801-.746l-.522-2.43a.656.656 0 00-.642-.518H29.04a.656.656 0 00-.641.518l-.522 2.43a9.33 9.33 0 00-1.801.746l-2.087-1.35a.657.657 0 00-.82.088l-2.133 2.133a.656.656 0 00-.087.82l1.35 2.087a9.341 9.341 0 00-.747 1.8l-2.43.522a.656.656 0 00-.518.642v3.016c0 .31.216.577.519.642l2.429.521c.187.631.438 1.234.746 1.802l-1.349 2.086a.656.656 0 00.087.82L23.17 38c.219.22.56.256.82.088l2.087-1.35c.567.309 1.17.56 1.801.746l.152.708c6.386-3.024 10.803-9.526 10.803-17.061zm-13.885 7.358a5.601 5.601 0 1111.202 0 5.601 5.601 0 01-11.202 0z" fill="#1DB86A"/><path d="M29.895 5.935l-1.473-.316a5.638 5.638 0 00-.451-1.091l.817-1.265a.398.398 0 00-.053-.497l-1.292-1.292a.397.397 0 00-.497-.053l-1.265.817a5.669 5.669 0 00-1.09-.452L24.273.314A.398.398 0 0023.885 0h-1.827c-.188 0-.35.13-.39.314l-.315 1.473a5.64 5.64 0 00-1.091.451l-1.265-.817a.398.398 0 00-.497.053l-1.292 1.292a.398.398 0 00-.053.497l.817 1.265a5.768 5.768 0 00-.452 1.09l-1.472.317a.398.398 0 00-.314.389V8.15c0 .188.13.35.314.39l1.472.315c.114.382.266.748.452 1.092l-.817 1.264a.398.398 0 00.053.497L18.5 13c.132.133.34.155.497.053l1.265-.817c.343.187.709.339 1.09.452l.317 1.472a.397.397 0 00.389.314h1.827c.188 0 .35-.13.39-.314l.315-1.472a5.645 5.645 0 001.091-.452l1.265.817c.157.102.364.08.497-.053l1.292-1.292a.399.399 0 00.053-.497l-.817-1.264c.186-.344.338-.71.451-1.092l1.473-.316a.398.398 0 00.314-.389V6.324c0-.188-.13-.35-.314-.39zm-6.924 4.457a3.154 3.154 0 110-6.308 3.154 3.154 0 010 6.308z" fill="#fff"/><path d="M19.07 18.486l-1.869-.401a7.166 7.166 0 00-.574-1.386l1.038-1.604a.505.505 0 00-.067-.632l-1.64-1.64a.505.505 0 00-.632-.067l-1.604 1.038c-.437-.237-.9-.43-1.386-.574l-.4-1.869a.505.505 0 00-.495-.399h-2.32a.505.505 0 00-.493.4l-.401 1.868a7.184 7.184 0 00-1.386.574l-1.605-1.038a.505.505 0 00-.63.067l-1.641 1.64a.505.505 0 00-.067.632l1.037 1.604c-.236.437-.43.9-.573 1.386l-1.869.401a.505.505 0 00-.399.494v2.32c0 .238.166.443.4.494l1.868.4c.143.486.336.95.573 1.386l-1.037 1.605c-.13.2-.101.463.067.631l1.64 1.64a.505.505 0 00.631.067l1.605-1.037c.437.237.9.43 1.386.574l.4 1.868c.05.233.257.399.495.399h2.32a.505.505 0 00.493-.399l.401-1.868a7.185 7.185 0 001.386-.574l1.604 1.037c.2.13.463.102.632-.067l1.64-1.64a.505.505 0 00.067-.631l-1.038-1.605c.238-.437.43-.9.574-1.385l1.869-.401a.505.505 0 00.399-.494v-2.32a.505.505 0 00-.399-.494zm-8.789 5.653a3.999 3.999 0 110-7.998 3.999 3.999 0 010 7.998z" fill="#6F70E8"/><path d="M33.903 32.974a5.6 5.6 0 11-6.05-9.396 2.795 2.795 0 01-.433-3.938 9.32 9.32 0 00-1.344.598l-2.087-1.35a.657.657 0 00-.82.088l-2.133 2.133a.656.656 0 00-.087.82l1.35 2.087a9.338 9.338 0 00-.747 1.8l-2.43.522a.656.656 0 00-.518.642v3.016c0 .31.216.577.519.642l2.429.522c.187.63.438 1.233.746 1.8l-1.349 2.087a.656.656 0 00.087.82l2.133 2.134c.219.218.56.255.82.087l2.087-1.35a9.33 9.33 0 001.801.747l.152.708a18.934 18.934 0 006.132-4.636l-.258-.583z" fill="#1DB86A"/><path d="M37.013 29.221a6.515 6.515 0 00-6.465-7.24 6.515 6.515 0 00-6.507 6.508 6.514 6.514 0 006.507 6.507 6.47 6.47 0 002.93-.7 18.916 18.916 0 003.535-5.075zm-11.16-.733a4.7 4.7 0 014.695-4.695 4.7 4.7 0 014.696 4.695 4.7 4.7 0 01-4.696 4.696 4.7 4.7 0 01-4.695-4.695z" fill="#1DB86A"/><path d="M23.864 10.285v-.023A3.154 3.154 0 0121.407 4.5a2.145 2.145 0 01-.589-1.48c0-.432.128-.834.347-1.171a5.636 5.636 0 00-.902.39l-1.265-.817a.398.398 0 00-.497.053l-1.292 1.292a.397.397 0 00-.053.497l.817 1.265a5.64 5.64 0 00-.452 1.09l-1.472.317a.398.398 0 00-.314.389V8.15c0 .188.13.35.314.39l1.472.315c.113.382.265.748.452 1.091l-.817 1.265a.398.398 0 00.053.497L18.501 13c.132.133.34.155.497.053l1.265-.817c.343.187.709.339 1.09.452l.317 1.472a.397.397 0 00.389.314h1.827c.188 0 .35-.13.389-.314l.316-1.472c.294-.087.578-.198.85-.33a2.155 2.155 0 01-1.576-2.074z" fill="#fff"/><path d="M11.087 24.058a4.001 4.001 0 01-3.059-7.222 2.671 2.671 0 01-.128-3.51 7.148 7.148 0 00-1.059.468l-1.605-1.038a.505.505 0 00-.631.067l-1.64 1.64a.505.505 0 00-.067.632l1.037 1.604c-.237.437-.43.9-.573 1.386l-1.87.401a.505.505 0 00-.398.494v2.32c0 .238.166.443.399.494l1.869.4c.143.486.336.95.573 1.386l-1.037 1.605c-.13.2-.102.463.066.631l1.64 1.64a.505.505 0 00.632.067l1.605-1.037c.437.237.9.43 1.385.574l.402 1.868c.05.233.255.4.493.4h2.32a.505.505 0 00.494-.4l.401-1.868a7.21 7.21 0 001.022-.39 2.674 2.674 0 01-2.271-2.612z" fill="#6F70E8"/><path d="M22.971 11.263a4.03 4.03 0 01-4.026-4.025 4.03 4.03 0 014.026-4.026 4.03 4.03 0 014.026 4.026 4.03 4.03 0 01-4.026 4.025zm0-6.308a2.285 2.285 0 00-2.282 2.283 2.285 2.285 0 002.282 2.282 2.285 2.285 0 002.282-2.282 2.285 2.285 0 00-2.282-2.283z" fill="#fff"/><path d="M10.281 25.01a4.876 4.876 0 01-4.87-4.87 4.876 4.876 0 014.87-4.87 4.876 4.876 0 014.871 4.87 4.877 4.877 0 01-4.87 4.87zm0-7.997a3.13 3.13 0 00-3.127 3.127 3.13 3.13 0 003.127 3.127 3.13 3.13 0 003.127-3.127 3.13 3.13 0 00-3.127-3.127z" fill="#6F70E8"/></svg>