<svg width="40" height="40" fill="none" xmlns="http://www.w3.org/2000/svg"><path d="M34.18 14.39H23.87c-1.327 0-2.406 1.094-2.406 2.44v4.877c0 1.345 1.079 2.44 2.406 2.44h10.31c1.327 0 2.406-1.095 2.406-2.44V16.83c0-1.345-1.08-2.439-2.406-2.439zm0 12.44H23.87c-1.327 0-2.406 1.093-2.406 2.438v4.878c0 1.345 1.079 2.44 2.406 2.44h10.31c1.327 0 2.406-1.095 2.406-2.44v-4.878c0-1.345-1.08-2.439-2.406-2.439z" fill="#6F70E8"/><path d="M34.167 3.415H5.834a2.421 2.421 0 00-2.419 2.418V9.29a2.421 2.421 0 002.419 2.418h28.333a2.421 2.421 0 002.419-2.418V5.833a2.421 2.421 0 00-2.419-2.418z" fill="#1DB86A"/><path d="M5.82 36.585h10.311c1.327 0 2.406-1.089 2.406-2.427v-17.34c0-1.339-1.08-2.428-2.406-2.428H5.821c-1.327 0-2.406 1.09-2.406 2.428v17.34c0 1.338 1.08 2.427 2.406 2.427z" fill="#fff"/></svg>