<svg width="40" height="40" fill="none" xmlns="http://www.w3.org/2000/svg"><g clip-path="url(#clip0)"><path d="M31.293 33.964c0 10.748-5.72 2.878-7.8 2.03h-7.131c-2.081.848-7.8 8.718-7.8-2.03a6.38 6.38 0 012.404-4.996 6.365 6.365 0 012.308-1.172H26.58a6.356 6.356 0 012.308 1.172 6.38 6.38 0 012.405 4.996z" fill="#1DB86A"/><path d="M24.886 36.334a28.772 28.772 0 004.392-15.325c0-8.268-3.47-15.725-9.034-20.994-5.564 5.27-9.035 12.726-9.035 20.994 0 5.63 1.61 10.882 4.393 15.325h9.284z" fill="#fff"/><path d="M26.552 8.74c-1.938.483-4.07.75-6.308.75-1.08 0-2.136-.062-3.156-.18a25.096 25.096 0 01-3.153-.569A28.97 28.97 0 0120.207.05l.037-.035v.001a28.978 28.978 0 016.308 8.723z" fill="#1DB86A"/><path d="M36.888 18.247h-.001.001z" fill="#E30E08"/><path d="M24.062 21.99a5.398 5.398 0 10-7.635-7.635 5.398 5.398 0 007.635 7.635z" fill="#434343"/><path d="M22.814 20.743a3.635 3.635 0 10-5.14-5.14 3.635 3.635 0 005.14 5.14z" fill="#6F70E8"/></g><defs><clipPath id="clip0"><path fill="#fff" d="M0 0h40v40H0z"/></clipPath></defs></svg>