<svg width="40" height="40" fill="none" xmlns="http://www.w3.org/2000/svg"><g clip-path="url(#clip0)"><path d="M28.537 24.634c0 6.838-9.285 9.343-11.044 9.756a.371.371 0 00-.286.365v1.586H5.122v-7.175c0-.417.338-.755.755-.755h4.176c2.07 0 4.888-.756 4.888-3.777h13.596z" fill="#fff"/><path d="M5.898 31.22h3.326c.429 0 .776.337.776.754v4.367H5.122v-4.367c0-.417.348-.755.776-.755zm25.249-16.236l.605.615v2.435a.75.75 0 01-.458.69.731.731 0 01-.805-.165l-2.74-2.78a1.504 1.504 0 01-.432-1.057c0-.396.156-.776.432-1.056l2.652-2.69.073.074-.199.6 1.477 1.499h.687l-1.292 1.31a.378.378 0 000 .525zm7.686.756l-2.797 2.818a.745.745 0 01-.813.167.754.754 0 01-.466-.692v-2.435l.654-.652a.393.393 0 000-.524l-1.264-1.274h.61l1.487-1.498-.178-.547.134-.127 2.633 2.652a1.498 1.498 0 010 2.113z" fill="#1DB86A"/><path d="M35.122 4.146v6.342h-3.658V4.59M14.878 2.683h10.244V5.61H14.878V2.683z" fill="#fff"/><path d="M.597 35.854h21.246c.733 0 1.328.35 1.328.78v3.122H-.731v-3.122c0-.43.594-.78 1.328-.78zM19.393 18.45a6.801 6.801 0 012.314-.401c3.772 0 6.83 3 6.83 6.7 0 .119 0 .23-.008.342a8.26 8.26 0 01-.061.64c-.007.038-.015.067-.023.105l-.045.26c-.699 3.375-3.89 5.68-7.383 5.333-3.492-.348-6.146-3.236-6.14-6.68 0-.256.016-.513.047-.767" fill="#1DB86A"/><path d="M23.902 21.593L5.915 8.293l-4.208 4.22 17.73 15.048 4.465-5.968z" fill="#1DB86A"/><path d="M33.24 1.49a2.557 2.557 0 00-.372 0l-1.177.398a6.776 6.776 0 01-4.357 0l-1.177-.399a2.602 2.602 0 00-2.502 1.098 2.71 2.71 0 00-.194 2.767 2.618 2.618 0 002.323 1.45c.124.008.249.008.373 0l1.176-.4a6.777 6.777 0 014.357 0l1.178.4a2.603 2.603 0 002.501-1.099c.568-.813.642-1.88.195-2.767A2.618 2.618 0 0033.24 1.49z" fill="#6F70E8"/><path d="M5.707 8.293h3.167c.06 0 .118-.008.176-.022l2.336-.59a.753.753 0 00.565-.73V1.344a.753.753 0 00-.568-.734L9.05.022A.717.717 0 008.874 0H2.24A2.251 2.251 0 000 2.262v5.277a.75.75 0 00.747.754h1.016" fill="#1DB86A"/><path d="M6.829 10.487c0 1.396-1.027 2.598-2.453 2.871-1.427.273-2.855-.46-3.412-1.75-.557-1.29-.087-2.778 1.122-3.553 1.21-.776 2.821-.624 3.85.363.573.548.894 1.293.893 2.07zm18.537 14.269c0 2.088-1.638 3.78-3.659 3.78-2.02 0-3.658-1.692-3.658-3.78s1.638-3.78 3.658-3.78c2.021 0 3.659 1.692 3.659 3.78z" fill="#424242"/></g><defs><clipPath id="clip0"><path fill="#fff" d="M0 0h40v40H0z"/></clipPath></defs></svg>