<svg width="40" height="40" fill="none" xmlns="http://www.w3.org/2000/svg"><path d="M38.828 30.547a1.171 1.171 0 01-1.172-1.172V8.281a3.52 3.52 0 00-3.515-3.515 1.171 1.171 0 110-2.344A5.867 5.867 0 0140 8.282v21.093c0 .648-.524 1.172-1.172 1.172zm-37.656 0A1.171 1.171 0 010 29.375V8.281c0-3.23 2.629-5.86 5.86-5.86a1.171 1.171 0 110 2.345A3.52 3.52 0 002.343 8.28v21.094c0 .648-.524 1.172-1.172 1.172zm22.088-3.699a5.868 5.868 0 00-3.26-.97 5.867 5.867 0 00-3.26.97 1.172 1.172 0 101.305 1.948A3.517 3.517 0 0120 28.214c.688 0 1.376.194 1.955.582a1.173 1.173 0 001.304-1.948z" fill="#1DB86A"/><path d="M23.58 28.474a1.172 1.172 0 00-.32-1.626 5.868 5.868 0 00-3.26-.97v2.336a3.52 3.52 0 011.955.582c.539.36 1.266.215 1.626-.322zm-10.611 9.104h-7.11A5.866 5.866 0 010 31.718v-2.343c0-3.23 2.629-5.86 5.86-5.86h7.109c3.23 0 5.86 2.63 5.86 5.86v2.344c0 3.23-2.63 5.86-5.86 5.86z" fill="#1DB86A"/><path d="M34.14 37.578h-7.109a5.866 5.866 0 01-5.86-5.86v-2.343c0-3.23 2.63-5.86 5.86-5.86h7.11c3.23 0 5.859 2.63 5.859 5.86v2.344c0 3.23-2.629 5.86-5.86 5.86z" fill="#1DB86A"/><path d="M5.86 25.86a3.52 3.52 0 00-3.516 3.515v2.344a3.52 3.52 0 003.515 3.515h7.11a3.52 3.52 0 003.515-3.515v-2.344a3.52 3.52 0 00-3.515-3.516h-7.11zm21.171 0a3.52 3.52 0 00-3.515 3.515v2.344a3.52 3.52 0 003.515 3.515h7.11a3.52 3.52 0 003.515-3.515v-2.344a3.52 3.52 0 00-3.515-3.516h-7.11z" fill="#6F70E8"/><path d="M32.249 26.83c-.702 0-1.273.738-1.273 1.646v1.097c0 .908.57 1.647 1.273 1.647h2.575c.702 0 1.273-.739 1.273-1.647v-1.097c0-.908-.57-1.647-1.273-1.647H32.25zm-20.976 0c-.702 0-1.273.738-1.273 1.646v1.097c0 .908.571 1.647 1.273 1.647h2.575c.703 0 1.274-.739 1.274-1.647v-1.097c0-.908-.571-1.647-1.274-1.647h-2.575z" fill="#fff"/></svg>