<svg width="40" height="40" fill="none" xmlns="http://www.w3.org/2000/svg"><path d="M40 20.002c0 3.825-1.074 7.399-2.936 10.437l-20.07 9.339a19.97 19.97 0 01-12.154-6.73l-1.012-4.884-3.19-3.129A20.034 20.034 0 010 20.002C0 11.102 5.813 3.561 13.849.966L20 1.953l7.9-.33c.697.3 1.373.638 2.027 1.013.415.237 2.026.157 2.026.157s-.173 1.04.134 1.274C36.895 7.719 40 13.498 40 20.002z" fill="#1DB86A"/><path d="M16.995 39.773a19.997 19.997 0 0012.926-2.405 20.129 20.129 0 007.141-6.93c-14.828 2.51-19.209 8.01-20.067 9.335zM20 0c-2.097 0-4.166.325-6.15.966-.001 0-2.464 15.24-13.208 24.069a19.922 19.922 0 001.996 4.888c.217.379.312 1.737.312 1.737s.87.098 1.135.446c.243.32.496.633.759.938C17.46 20.16 10.866 9.082 27.9 1.623A19.868 19.868 0 0020.001 0z" fill="#6F70E8"/><path d="M39.157.844c-.903-.903-2.337-1.08-4.262-.527-1.39.4-3.06 1.18-4.968 2.32.76.435 1.489.919 2.182 1.447 3.636-2.012 5.116-1.858 5.39-1.583.312.311.47 2.168-2.502 6.954-2.605 4.198-6.702 9.172-11.536 14.005-4.834 4.834-9.808 8.931-14.005 11.537-4.787 2.97-6.643 2.813-6.954 2.502-.275-.275-.43-1.755 1.583-5.393a20.102 20.102 0 01-1.445-2.184C1.498 31.834.716 33.506.317 34.897c-.553 1.924-.375 3.357.527 4.26.561.56 1.326.84 2.287.84.586 0 1.246-.104 1.976-.314 1.537-.442 3.416-1.349 5.585-2.695 4.346-2.698 9.47-6.913 14.426-11.87 4.957-4.957 9.173-10.08 11.87-14.427 1.347-2.168 2.253-4.047 2.696-5.585.553-1.925.376-3.36-.527-4.262z" fill="#fff"/><path d="M23.46 23.46l1.658 1.658c4.957-4.957 9.173-10.08 11.87-14.427 1.347-2.168 2.253-4.048 2.696-5.585.553-1.925.376-3.359-.527-4.262-.903-.903-2.337-1.08-4.262-.527-1.39.4-3.06 1.18-4.968 2.32.76.435 1.489.919 2.182 1.447 3.636-2.012 5.116-1.858 5.39-1.583.312.311.47 2.168-2.502 6.954-2.605 4.198-6.702 9.172-11.536 14.005z" fill="#fff"/><g clip-path="url(#clip0)"><path d="M25.03 28.493c-1.636 1.636-2.148.32-2.045-.635.02-.179-.01-.39-.112-.63l-1.564-1.565a1.275 1.275 0 00-.63-.112c-.956.103-2.27-.408-.635-2.044a1.979 1.979 0 012.386-.319l2.919 2.918a1.979 1.979 0 01-.32 2.387z" fill="#434343"/><path d="M22.963 27.491a8.409 8.409 0 004.075-2.259 8.424 8.424 0 002.47-6.204 8.424 8.424 0 00-6.204 2.47 8.407 8.407 0 00-2.26 4.075l1.92 1.918z" fill="#434343"/><path d="M29.01 22.134a7.64 7.64 0 01-1.459-1.148 8.01 8.01 0 01-.614-.69c-.2-.252-.379-.51-.535-.769a8.466 8.466 0 013.092-.5h.015v.001a8.467 8.467 0 01-.5 3.106z" fill="#434343"/><path d="M25.757 24.357a1.577 1.577 0 100-3.155 1.577 1.577 0 000 3.155z" fill="#fff"/></g><defs><clipPath id="clip0"><path fill="#fff" transform="translate(18.78 19.024)" d="M0 0h10.732v10.732H0z"/></clipPath></defs></svg>