<svg width="40" height="40" fill="none" xmlns="http://www.w3.org/2000/svg"><path d="M34.653 14.769a2.852 2.852 0 01-.294.137 18.18 18.18 0 01-.657.266c.226-.096.445-.184.657-.273.102-.041.198-.09.294-.13z" fill="#90BAE1"/><path d="M37.094 4.786v7.521c0 .739-.588 1.43-1.641 2.052-.258.153-.525.29-.8.41-.096.041-.192.089-.294.13-.212.089-.431.178-.657.274a22.71 22.71 0 01-2.543.758c-.233.055-.465.11-.705.165h-.013c-.308.068-.623.13-.95.191a19.34 19.34 0 01-.719.13 57.76 57.76 0 01-1.306.198c-2.475.327-4.97.487-7.466.479a55.814 55.814 0 01-7.467-.479c-.444-.061-.882-.13-1.306-.198a19.226 19.226 0 01-.718-.13h-.014c-.32-.061-.629-.123-.936-.191a11.032 11.032 0 01-.718-.165 21.777 21.777 0 01-2.537-.758c-.226-.09-.451-.185-.663-.274-.103-.041-.199-.089-.294-.13a7.245 7.245 0 01-.8-.41c-1.053-.623-1.641-1.32-1.641-2.052v-7.52c0 2.645 7.651 4.785 17.094 4.785 9.442 0 17.094-2.14 17.094-4.786z" fill="#6F70E8"/><path d="M37.51 16.185v7.705c0 .756-.602 1.463-1.68 2.1a7.445 7.445 0 01-.82.421c-.098.042-.196.091-.301.133-.217.091-.441.182-.673.28-.852.31-1.722.57-2.605.778l-.722.168h-.014c-.315.07-.637.133-.973.196-.238.05-.484.091-.736.133-.434.07-.882.14-1.338.203a57.153 57.153 0 01-7.648.49 57.15 57.15 0 01-7.649-.49 60.589 60.589 0 01-1.338-.203 19.884 19.884 0 01-.735-.133h-.014c-.33-.063-.645-.126-.96-.196a11.325 11.325 0 01-.735-.168 22.29 22.29 0 01-2.599-.778c-.231-.09-.462-.189-.68-.28-.105-.042-.203-.09-.3-.133a7.417 7.417 0 01-.82-.42c-1.079-.637-1.681-1.352-1.681-2.101v-7.705c0 2.71 7.838 4.903 17.51 4.903 9.674 0 17.512-2.193 17.512-4.903z" fill="#6F70E8"/><path d="M37.51 28.095v7.002c0 .759-.6 1.463-1.681 2.1a7.63 7.63 0 01-.82.423c-.096.041-.192.089-.302.13-.218.089-.437.184-.67.28-.853.31-1.722.57-2.605.78-.239.054-.478.11-.725.164h-.013a18.48 18.48 0 01-.971.198c-.24.048-.486.09-.739.137-.43.068-.882.137-1.333.198-2.537.335-5.093.5-7.651.493a57.256 57.256 0 01-7.651-.493c-.452-.061-.903-.13-1.334-.198-.253-.048-.499-.089-.738-.137h-.014a19.696 19.696 0 01-.957-.198c-.253-.048-.5-.103-.739-.164a22.826 22.826 0 01-2.598-.78c-.232-.089-.458-.191-.677-.28-.11-.041-.205-.089-.3-.13a7.639 7.639 0 01-.821-.424c-1.08-.636-1.682-1.347-1.682-2.099v-7.002a1.24 1.24 0 01.048-.355c.636 2.55 8.205 4.554 17.463 4.554 9.258 0 16.827-2.004 17.463-4.554.033.115.05.235.048.355z" fill="#6F70E8"/><path d="M26.46 18.823a.69.69 0 01.377.617v3.622a10.876 10.876 0 01-4.08 8.409l-2.252 1.855a.793.793 0 01-1.01 0l-2.253-1.855a10.875 10.875 0 01-4.08-8.409V19.44c0-.26.146-.5.378-.617l5.848-2.951a1.357 1.357 0 011.223 0l5.848 2.95z" fill="#1DB86A"/><path d="M20 28.034a4.103 4.103 0 100-8.205 4.103 4.103 0 000 8.205z" fill="#fff"/><path d="M19.316 25.983a.681.681 0 01-.483-.2l-.684-.684a.684.684 0 01.967-.967l.2.2 1.568-1.568a.684.684 0 01.967.967L19.8 25.782a.682.682 0 01-.484.2z" fill="#1DB86A"/></svg>