<svg width="40" height="40" fill="none" xmlns="http://www.w3.org/2000/svg"><g clip-path="url(#clip0)"><path d="M16.667 40C7.477 40 0 32.523 0 23.333c0-9.19 7.477-16.666 16.667-16.666 9.19 0 16.666 7.476 16.666 16.666 0 9.19-7.476 16.667-16.666 16.667z" fill="#424242"/><path d="M16.667 40C7.477 40 0 32.523 0 23.333c0-9.19 7.477-16.666 16.667-16.666 9.19 0 16.666 7.476 16.666 16.666 0 9.19-7.476 16.667-16.666 16.667zm0-30.834C8.855 9.166 2.5 15.521 2.5 23.334 2.5 31.145 8.855 37.5 16.667 37.5c7.811 0 14.166-6.355 14.166-14.167 0-7.811-6.355-14.166-14.166-14.166z" fill="#6F70E8"/><path d="M16.667 34.167c-5.973 0-10.833-4.86-10.833-10.834 0-5.973 4.86-10.833 10.833-10.833 5.974 0 10.834 4.86 10.834 10.833 0 5.974-4.86 10.834-10.834 10.834zm0-19.167c-4.595 0-8.333 3.738-8.333 8.333 0 4.595 3.738 8.334 8.333 8.334 4.595 0 8.334-3.739 8.334-8.334S21.262 15 16.667 15z" fill="#6F70E8"/><path d="M16.666 28.333c-2.757 0-5-2.243-5-5s2.243-5 5-5 5 2.243 5 5-2.243 5-5 5zm0-7.5a2.503 2.503 0 00-2.5 2.5c0 1.378 1.122 2.5 2.5 2.5s2.5-1.122 2.5-2.5-1.122-2.5-2.5-2.5z" fill="#6F70E8"/><path d="M16.667 24.583a1.25 1.25 0 01-.883-2.135l12.5-12.5a1.25 1.25 0 011.768 1.769l-12.5 12.5a1.247 1.247 0 01-.885.366z" fill="#fff"/><path d="M33.75 11.667h-4.166c-.69 0-1.25-.56-1.25-1.25V6.25c0-.332.132-.65.367-.883l5-5a1.251 1.251 0 012.133.883v2.917h2.917a1.251 1.251 0 01.883 2.133l-5 5a1.245 1.245 0 01-.883.367z" fill="#1DB86A"/><path d="M34.584 0a1.25 1.25 0 00-.885.367l-5 5a1.25 1.25 0 00-.365.883v4.167c0 .345.14.658.367.883l7.133-7.133V1.25A1.251 1.251 0 0034.584 0z" fill="#1DB86A"/></g><defs><clipPath id="clip0"><path fill="#fff" d="M0 0h40v40H0z"/></clipPath></defs></svg>