<svg width="40" height="40" fill="none" xmlns="http://www.w3.org/2000/svg"><path d="M32.11 37.656H20a1.172 1.172 0 01-1.172-1.172V32.04a1.172 1.172 0 012.344 0v3.273H32.11a1.172 1.172 0 010 2.343zM20 25.556a1.172 1.172 0 01-1.172-1.172V20a1.172 1.172 0 012.344 0v4.384c0 .647-.525 1.172-1.172 1.172zm14.453 3.828h-8.595a1.172 1.172 0 010-2.343h7.423v-4.757a1.172 1.172 0 012.344 0v5.928c0 .648-.525 1.172-1.172 1.172zM13.86 27.04H6.718v-4.756a1.172 1.172 0 00-2.344 0v11.857a1.172 1.172 0 002.344 0v-4.757h7.142a1.172 1.172 0 000-2.343z" fill="#fff"/><path d="M7.89 32.969H3.202c-.647 0-1.172.524-1.172 1.172v4.687c0 .647.525 1.172 1.172 1.172H7.89c.647 0 1.172-.525 1.172-1.172v-4.687c0-.648-.525-1.172-1.172-1.172z" fill="#6F70E8"/><path d="M36.797 32.969h-4.688c-.647 0-1.172.524-1.172 1.172v4.687c0 .647.525 1.172 1.172 1.172h4.688c.647 0 1.172-.525 1.172-1.172v-4.687c0-.648-.525-1.172-1.172-1.172z" fill="#1DB86A"/><path d="M34.453 23.456a3.516 3.516 0 100-7.031 3.516 3.516 0 000 7.031z" fill="#6F70E8"/><path d="M7.89 16.425H3.202c-.647 0-1.172.524-1.172 1.172v4.687c0 .647.525 1.172 1.172 1.172H7.89c.647 0 1.172-.525 1.172-1.172v-4.687c0-.648-.525-1.172-1.172-1.172zm17.968 6.787H14.141c-.648 0-1.172.525-1.172 1.172v7.657c0 .647.524 1.172 1.172 1.172h11.717c.648 0 1.172-.525 1.172-1.172v-7.657c0-.647-.524-1.172-1.172-1.172z" fill="#1DB86A"/><path d="M22.734 13.837h-5.47c-.646 0-1.171.525-1.171 1.172v4.688a1.17 1.17 0 001.172 1.171h5.469c.647 0 1.172-.524 1.172-1.171v-4.688c0-.647-.525-1.172-1.172-1.172z" fill="#fff"/><path d="M20 0c-4.031 0-7.312 3.28-7.312 7.312 0 2.955 1.409 4.755 2.437 6.07.498.636.969 1.237.969 1.627h7.813c0-.556.373-1.032 1.034-1.827 1-1.203 2.37-2.85 2.37-5.87 0-4.032-3.28-7.312-7.31-7.312z" fill="#1DB86A"/><path d="M20 9.858a1.19 1.19 0 01-.539-.13l-1.33-.688a1.172 1.172 0 011.076-2.082l.792.409.793-.41a1.172 1.172 0 011.075 2.083l-1.33.687a1.17 1.17 0 01-.538.13z" fill="#fff"/><path d="M22.371 7.461a1.172 1.172 0 00-1.579-.503L20 7.367v2.49c.184 0 .37-.043.538-.13l1.33-.687c.575-.297.8-1.004.503-1.579z" fill="#fff"/></svg>