<svg width="40" height="40" fill="none" xmlns="http://www.w3.org/2000/svg"><g clip-path="url(#clip0)"><path d="M26.013 17.925a216.86 216.86 0 01-17.039 0 10.416 10.416 0 01-.442-2.32c-.092-1.255.056-2.51.442-3.765a216.785 216.785 0 0117.039 0 10.109 10.109 0 010 6.085z" fill="#6F70E8"/><path d="M26.013 17.925a216.86 216.86 0 01-17.039 0 10.416 10.416 0 01-.442-2.32c3.536.224 10.172.54 12.332-.067 1.737-.488 2.183-2.33 2.252-3.792.965.025 1.931.056 2.897.094a10.109 10.109 0 010 6.085z" fill="#6F70E8"/><path d="M8.068 6.714a29.516 29.516 0 00-5.484 0A2.69 2.69 0 00.144 9.25c-.19 3.754-.19 7.509 0 11.263a2.69 2.69 0 002.44 2.537c1.828.17 3.656.17 5.484 0a2.69 2.69 0 002.441-2.537c.19-3.754.19-7.509 0-11.263a2.69 2.69 0 00-2.441-2.537z" fill="#6F70E8"/><path d="M10.491 20.702a2.69 2.69 0 01-2.424 2.35 29.49 29.49 0 01-5.484 0 2.69 2.69 0 01-2.441-2.538 111.76 111.76 0 010-11.263 2.688 2.688 0 012.357-2.527 2.731 2.731 0 00-.016.187c-.19 3.754-.19 7.508 0 11.263a2.69 2.69 0 002.44 2.537 29.619 29.619 0 005.568-.009zM32.403 6.714a29.516 29.516 0 00-5.484 0 2.69 2.69 0 00-2.44 2.537c-.19 3.754-.19 7.509 0 11.263a2.69 2.69 0 002.44 2.537c1.828.17 3.656.17 5.484 0a2.69 2.69 0 002.44-2.537c.19-3.754.19-7.509 0-11.263a2.69 2.69 0 00-2.44-2.537z" fill="#6F70E8"/><path d="M34.827 20.702a2.69 2.69 0 01-2.424 2.35 29.49 29.49 0 01-5.484 0 2.69 2.69 0 01-2.441-2.538c-.19-3.754-.19-7.509 0-11.263a2.688 2.688 0 012.357-2.527 2.738 2.738 0 00-.016.187c-.19 3.754-.19 7.508 0 11.263a2.69 2.69 0 002.44 2.537c1.828.17 3.656.17 5.485 0 .028-.003.056-.005.083-.009z" fill="#6F70E8"/><path d="M31.026 28.16c-5.68.223-11.358.223-17.038 0a10.413 10.413 0 01-.442-2.32c-.092-1.255.056-2.51.442-3.765a216.855 216.855 0 0117.038 0 10.109 10.109 0 010 6.085z" fill="#1DB86A"/><path d="M31.026 28.16c-5.68.223-11.358.223-17.038 0a10.414 10.414 0 01-.442-2.32c3.536.224 10.171.54 12.331-.067 1.737-.489 2.183-2.33 2.252-3.792a215 215 0 012.897.094 10.109 10.109 0 010 6.085z" fill="#1DB86A"/><path d="M13.08 16.948a29.527 29.527 0 00-5.483 0 2.69 2.69 0 00-2.441 2.538 111.44 111.44 0 000 11.263 2.69 2.69 0 002.441 2.537c1.828.17 3.656.17 5.484 0a2.69 2.69 0 002.44-2.537c.19-3.755.19-7.509 0-11.263a2.69 2.69 0 00-2.44-2.538z" fill="#1DB86A"/><path d="M15.505 30.937a2.69 2.69 0 01-2.425 2.35 29.49 29.49 0 01-5.483 0 2.69 2.69 0 01-2.441-2.538c-.19-3.754-.19-7.509 0-11.263a2.688 2.688 0 012.357-2.527 2.727 2.727 0 00-.016.187c-.19 3.754-.19 7.508 0 11.263a2.69 2.69 0 002.44 2.537c1.828.17 3.656.17 5.484 0l.084-.01zm21.912-13.989a29.527 29.527 0 00-5.484 0 2.69 2.69 0 00-2.441 2.538c-.19 3.754-.19 7.508 0 11.263a2.69 2.69 0 002.441 2.537c1.828.17 3.656.17 5.484 0a2.69 2.69 0 002.44-2.537c.19-3.755.19-7.509 0-11.263a2.69 2.69 0 00-2.44-2.538z" fill="#1DB86A"/><path d="M39.841 30.937a2.69 2.69 0 01-2.425 2.35c-1.827.17-3.655.17-5.483 0a2.69 2.69 0 01-2.441-2.538c-.19-3.754-.19-7.509 0-11.263a2.688 2.688 0 012.357-2.527 2.805 2.805 0 00-.017.187c-.19 3.754-.19 7.508 0 11.263a2.69 2.69 0 002.441 2.537 29.619 29.619 0 005.568-.01z" fill="#1DB86A"/></g><defs><clipPath id="clip0"><path fill="#fff" d="M0 0h40v40H0z"/></clipPath></defs></svg>