<svg width="41" height="40" fill="none" xmlns="http://www.w3.org/2000/svg"><g clip-path="url(#clip0)"><path d="M40.008 29.453V5.86a1.17 1.17 0 00-1.172-1.171H20.008v25.937h18.828c.648 0 1.172-.524 1.172-1.172z" fill="#1DB86A"/><path d="M1.18 4.688A1.17 1.17 0 00.008 5.859v23.594c0 .648.524 1.172 1.172 1.172h18.828V4.687H1.18zm11.11 31.796l1.515-1.515a1.172 1.172 0 10-1.657-1.657l-1.515 1.515-1.515-1.515A1.171 1.171 0 107.46 34.97l1.516 1.515L7.46 38a1.171 1.171 0 101.658 1.657l1.515-1.515 1.515 1.515A1.171 1.171 0 1013.805 38l-1.515-1.516z" fill="#6F70E8"/><path d="M28.21 40c-.299 0-.599-.114-.828-.343l-2.343-2.344a1.172 1.172 0 111.657-1.657l1.515 1.515 3.859-3.859a1.171 1.171 0 111.657 1.657l-4.687 4.688a1.168 1.168 0 01-.83.343z" fill="#1DB86A"/><path d="M34.07 21.172h-9.375A1.171 1.171 0 0123.523 20v-9.375c0-.648.525-1.172 1.172-1.172h9.375c.648 0 1.172.524 1.172 1.172V20c0 .648-.524 1.172-1.172 1.172zm-23.437 0a5.866 5.866 0 01-5.86-5.86 5.866 5.866 0 015.86-5.859 5.866 5.866 0 015.86 5.86 5.866 5.866 0 01-5.86 5.859zm4.687 4.688H5.945a1.171 1.171 0 110-2.344h9.375a1.171 1.171 0 110 2.343zm18.75 0h-9.375a1.171 1.171 0 110-2.344h9.375a1.171 1.171 0 110 2.343z" fill="#fff"/><path d="M21.18 1.172V34.14a1.16 1.16 0 01-1.172 1.172 1.16 1.16 0 01-1.172-1.172V1.17A1.16 1.16 0 0120.008 0a1.16 1.16 0 011.172 1.172z" fill="#6F70E8"/><path d="M21.18 1.172V34.14a1.16 1.16 0 01-1.172 1.172V0a1.16 1.16 0 011.172 1.172z" fill="#1DB86A"/></g><defs><clipPath id="clip0"><path fill="#fff" transform="translate(.008)" d="M0 0h40v40H0z"/></clipPath></defs></svg>