<svg width="40" height="40" fill="none" xmlns="http://www.w3.org/2000/svg"><path d="M20 0C13.854 6.458 3.646 5 3.646 5v17.5C3.646 32.813 20 40 20 40s16.354-7.188 16.354-17.5V5S26.145 6.458 20 0z" fill="#1DB86A"/><path d="M20 4.146C15.144 9.266 7.073 8.112 7.073 8.112v13.871C7.073 30.157 20 35.853 20 35.853s12.927-5.697 12.927-13.871V8.11S24.856 9.266 20 4.146z" fill="#424242"/><path d="M20 7.805c-3.757 3.938-10 3.05-10 3.05v10.67c0 6.288 10 10.67 10 10.67s10-4.383 10-10.67v-10.67s-6.244.888-10-3.05z" fill="#6F70E8"/><path d="M19.026 25.366l-5.124-4.31 1.36-1.638 3.357 2.824 5.5-7.852 1.735 1.23-6.828 9.746z" fill="#fff"/></svg>