<svg width="40" height="40" fill="none" xmlns="http://www.w3.org/2000/svg"><g clip-path="url(#clip0)"><path d="M40.056 19.993c0 1.439-.15 2.841-.435 4.193a.111.111 0 01-.11.088c-.647 0-1.173.526-1.173 1.175v2.2c0 .337-.073.67-.218.973-.104.221-.213.44-.326.655a1.005 1.005 0 01-.893.537.642.642 0 00-.642.643v1.145c0 .102-.032.2-.092.282a20.002 20.002 0 01-4.51 4.433.114.114 0 01-.064.021h-.774a.924.924 0 00-.924.924c0 .108-.06.207-.153.258a19.76 19.76 0 01-2.375 1.114.09.09 0 01-.034.006h-1.289a.463.463 0 00-.463.463.168.168 0 01-.121.165 19.76 19.76 0 01-3.474.64 1.243 1.243 0 00-2.31.087 20.025 20.025 0 01-6.222-1.108.63.63 0 01-.414-.603 1.362 1.362 0 00-1.362-1.36H9.85c-.31 0-.614-.091-.872-.263a19.994 19.994 0 01-4.993-4.753.516.516 0 01-.1-.308v-1.056a.749.749 0 00-.758-.749.87.87 0 01-.767-.48 20.047 20.047 0 01-.323-.64 3.27 3.27 0 01-.32-1.408v-1.749c0-.629-.476-1.145-1.088-1.21a.128.128 0 01-.111-.1 20.221 20.221 0 01-.124-7.767.078.078 0 01.066-.062 1.1 1.1 0 00.425-2.02 19.905 19.905 0 012.113-4.77.22.22 0 01.221-.1 1.377 1.377 0 001.563-1.363v-.498c0-.338.123-.664.347-.916a20.111 20.111 0 013.45-3.078.656.656 0 01.377-.119h.947a.377.377 0 00.378-.377c0-.209.169-.378.377-.378h1.073a1.4 1.4 0 001.4-1.4c0-.072.045-.138.113-.163A19.94 19.94 0 0120.223.001C31.23.085 40.053 8.98 40.056 19.993z" fill="#434343"/><path d="M11.656 22.656a3.124 3.124 0 00-3.123 3.125v3.125a3.124 3.124 0 106.246 0v-3.125a3.124 3.124 0 00-3.123-3.125zm1.171 5.86a1.171 1.171 0 11-2.342 0v-2.344a1.171 1.171 0 112.342 0v2.344zm7.262-16.797a3.124 3.124 0 00-3.123 3.125v3.125a3.124 3.124 0 106.246 0v-3.125a3.124 3.124 0 00-3.123-3.125zm1.171 5.86a1.172 1.172 0 11-2.342 0v-2.345a1.171 1.171 0 112.342 0v2.344zm18.361 6.605a19.825 19.825 0 01-1.51 4.462c.004-.043.015-.086.015-.13v-2.344a1.172 1.172 0 10-2.343 0v2.344c0 .647.525 1.172 1.172 1.172.306 0 .58-.12.788-.313a20.008 20.008 0 01-1.604 2.548 3.126 3.126 0 01-2.308-3.017v-3.125a3.124 3.124 0 013.124-3.125c1.141 0 2.121.614 2.666 1.528zM28.521.781A3.124 3.124 0 0025.4 3.906v3.125a3.124 3.124 0 106.246 0V3.906A3.124 3.124 0 0028.522.781zm1.172 5.86a1.171 1.171 0 11-2.343 0V4.297a1.172 1.172 0 112.343 0V6.64zM36.955.78a3.124 3.124 0 00-3.123 3.125V7.03a3.124 3.124 0 106.246 0V3.906A3.124 3.124 0 0036.955.781zm1.171 5.86a1.171 1.171 0 11-2.343 0V4.297a1.171 1.171 0 112.343 0V6.64zm-6.455 29.667c-.617.437-1.261.845-1.928 1.212v-.41a1.171 1.171 0 10-2.342 0v1.51a19.68 19.68 0 01-1.952.652v-2.553a3.124 3.124 0 013.123-3.125 3.099 3.099 0 013.1 2.714zM13.224 1.203a20.6 20.6 0 00-2.225.969c-.857.434-1.676.934-2.457 1.488a3.481 3.481 0 00-.009.23v3.14a3.124 3.124 0 106.246 0V3.906a3.14 3.14 0 00-1.554-2.703zm-.397 5.438a1.171 1.171 0 11-2.342 0V4.297a1.171 1.171 0 112.342 0V6.64zm-6.48 19.14v3.125a3.126 3.126 0 01-2.307 3.017 19.984 19.984 0 01-1.61-2.548c.208.194.487.313.793.313.647 0 1.171-.525 1.171-1.172v-2.344c0-.647-.524-1.172-1.17-1.172-.647 0-1.162.525-1.162 1.172v2.344c0 .044.003.088.008.13a19.831 19.831 0 01-1.514-4.463 3.094 3.094 0 012.667-1.527c1.725 0 3.124 1.4 3.124 3.125z" fill="#6F70E8"/><path d="M27.352 6.64v.391c0 1.385.9 2.559 2.148 2.969a3.124 3.124 0 01-4.1-2.968V3.905A3.124 3.124 0 0129.5.938a3.125 3.125 0 00-2.148 2.968v2.735zm8.433.391V3.906c0-1.384.9-2.558 2.148-2.968a3.124 3.124 0 00-4.1 2.968v3.125a3.124 3.124 0 004.1 2.969 3.126 3.126 0 01-2.148-2.969zm-25.299 0V3.906c0-.638.188-1.24.516-1.736-.858.44-1.691.924-2.46 1.49a3.014 3.014 0 00-.007.23v3.14A3.124 3.124 0 0012.634 10a3.126 3.126 0 01-2.148-2.969zm8.433 8.203v-.39c0-1.385.9-2.558 2.148-2.969a3.124 3.124 0 00-4.1 2.969v3.125a3.124 3.124 0 004.1 2.968 3.125 3.125 0 01-2.148-2.968v-2.735zm9.655 18.36a3.124 3.124 0 00-3.124 3.125l-.001 2.552a19.798 19.798 0 001.951-.65l.002-1.512v-.39c0-1.385.9-2.558 2.148-2.969a3.12 3.12 0 00-.976-.156zm7.211-7.422v-.39c0-1.386.9-2.559 2.148-2.97a3.124 3.124 0 00-4.1 2.968v3.126c0 1.444.977 2.658 2.306 3.017.194-.262.385-.53.567-.802a3.114 3.114 0 01-.921-2.215v-2.734zm-25.299 0v-.39c0-1.386.901-2.559 2.148-2.97a3.124 3.124 0 00-4.1 2.968v3.126a3.124 3.124 0 004.1 2.969 3.125 3.125 0 01-2.148-2.969v-2.734zm-7.261-3.516a3.13 3.13 0 00-2.689 1.527 19.97 19.97 0 001.514 4.46l.014-.127V25.78c0-1.385.89-2.558 2.137-2.968a3.12 3.12 0 00-.976-.157z" fill="#6F70E8"/><path d="M13.582 12.89v7.032a1.171 1.171 0 11-2.342 0V15.72l-.734.734a1.17 1.17 0 11-1.656-1.658l2.733-2.734a1.171 1.171 0 012 .829zm15.695-1.171c-.324 0-.617.131-.829.343l-2.733 2.735a1.172 1.172 0 001.657 1.657l.733-.734v4.202a1.171 1.171 0 102.343 0V12.89c0-.648-.525-1.172-1.171-1.172zm8.667 0c-.324 0-.617.131-.829.343l-2.733 2.735a1.172 1.172 0 001.657 1.657l.733-.734v4.202a1.171 1.171 0 102.343 0V12.89a1.17 1.17 0 00-1.171-1.172zM12.416 33.594c-.325-.002-.62.13-.833.343l-2.676 2.677a19.973 19.973 0 004.675 2.318V34.8c0-.65-.515-1.203-1.166-1.206zm8.428-10.938a1.17 1.17 0 00-.829.344l-2.732 2.734a1.172 1.172 0 001.656 1.657l.733-.734v4.203a1.171 1.171 0 102.343 0v-7.032c0-.647-.524-1.172-1.171-1.172zm8.433 0a1.17 1.17 0 00-.829.344l-2.733 2.734a1.172 1.172 0 001.657 1.657l.733-.734v4.203a1.171 1.171 0 102.343 0v-7.032c0-.647-.525-1.172-1.171-1.172zM20.844.781c-.324 0-.617.131-.829.344l-2.732 2.734a1.172 1.172 0 001.656 1.657l.733-.734v4.202a1.171 1.171 0 102.343 0v-7.03c0-.648-.524-1.173-1.171-1.173zm0 32.813c-.324 0-.617.131-.829.343l-2.732 2.735a1.172 1.172 0 001.656 1.657l.733-.734v2.4a20.219 20.219 0 002.343-.09v-5.14a1.17 1.17 0 00-1.171-1.171zM3.978 10.156a1.17 1.17 0 001.171-1.172v-2.3a20.03 20.03 0 00-2.161 2.92c.206.332.57.552.99.552zm0 1.563c-.323 0-.616.131-.828.343L.893 14.32c-.203.688-.371 1.39-.5 2.106.008.01.015.02.024.028a1.17 1.17 0 001.656 0l.734-.734v4.202a1.171 1.171 0 102.342 0V12.89a1.17 1.17 0 00-1.17-1.172z" fill="#1DB86A"/><path d="M12.923 20.98a1.166 1.166 0 01-.662.118c-.597-.069-1.036-.594-1.036-1.195v-4.171l-.734.734a1.167 1.167 0 01-1.656 0 1.169 1.169 0 010-1.657l.128-.129a.65.65 0 001.102.568l1.598-1.598a.36.36 0 01.616.255v6.029c0 .457.263.852.644 1.046zm-1.241 14.533l-1.598 1.598a.751.751 0 01-.177.132c.357.21.727.409 1.097.598l.24.108c.346.171.71.342 1.067.493l-.013-1.567v-1.107a.36.36 0 00-.616-.255zM3.865 19.922v-6.03a.36.36 0 00-.616-.255l-1.598 1.599a.651.651 0 01-.983-.073c-.103.416-.195.837-.272 1.264l.025.026a1.168 1.168 0 001.656 0l.734-.733v4.171c0 .6.44 1.126 1.036 1.195.24.027.466-.02.662-.119a1.17 1.17 0 01-.644-1.045zm0-10.938v-.698c-.307.425-.604.87-.877 1.318a1.168 1.168 0 001.521.426 1.171 1.171 0 01-.644-1.046zm16.223 26.529L18.49 37.11a.651.651 0 01-.92 0 .622.622 0 01-.172-.557l-.129.128c-.258.259-.38.597-.346.935a1.167 1.167 0 001.993.712l.734-.734v2.4a20.9 20.9 0 001.054-.007v-4.22a.36.36 0 00-.616-.255zm9.064-15.583v-6.029a.361.361 0 00-.616-.255l-1.598 1.598a.65.65 0 01-1.102-.568l-.128.128a1.17 1.17 0 000 1.658 1.167 1.167 0 001.656 0l.734-.734v4.171c0 .6.44 1.126 1.035 1.195.24.028.467-.02.663-.119a1.17 1.17 0 01-.644-1.045zm8.678-.008v-6.03a.36.36 0 00-.615-.255l-1.598 1.599a.65.65 0 01-.921 0 .655.655 0 01-.184-.57l-.128.128a1.176 1.176 0 00-.004 1.657l.002.002a1.176 1.176 0 001.66 0l.73-.733v4.182c.006.638.444 1.115 1.04 1.184.24.027.467-.02.663-.119a1.17 1.17 0 01-.645-1.045zM20.72 30.869V24.84a.361.361 0 00-.615-.255l-1.598 1.598a.65.65 0 01-1.102-.568l-.128.128a1.17 1.17 0 000 1.658c.229.229.528.343.828.343.3 0 .6-.114.828-.343l.734-.734v4.171c0 .6.439 1.126 1.035 1.195.24.027.467-.02.663-.119a1.17 1.17 0 01-.644-1.045zm0-21.88V2.962a.36.36 0 00-.617-.256l-1.597 1.599a.651.651 0 01-1.103-.568l-.128.128a1.17 1.17 0 001.657 1.657l.733-.734V8.96c0 .6.44 1.126 1.036 1.195.24.027.466-.02.662-.119a1.17 1.17 0 01-.644-1.045zm8.42 21.882v-6.03a.36.36 0 00-.615-.255l-1.598 1.599a.651.651 0 01-1.104-.56l-.126.12a1.171 1.171 0 101.656 1.657l.733-.733v4.17c0 .602.44 1.127 1.036 1.196.24.027.467-.02.663-.119a1.17 1.17 0 01-.644-1.045z" fill="#1DB86A"/></g><defs><clipPath id="clip0"><path fill="#fff" d="M0 0h40v40H0z"/></clipPath></defs></svg>