<svg width="41" height="40" fill="none" xmlns="http://www.w3.org/2000/svg"><g clip-path="url(#clip0)"><path fill-rule="evenodd" clip-rule="evenodd" d="M5.477 21.921l-1.603 1.6a.853.853 0 00-.002 1.205l.65.654a6.938 6.938 0 00-.558 1.382l-.939-.002a.854.854 0 00-.853.852l-.004 2.265a.852.852 0 00.849.854l.974.002c.141.47.33.92.559 1.342l-.694.695a.853.853 0 00-.002 1.204l1.596 1.607a.857.857 0 001.206.002l.696-.694c.42.232.868.423 1.335.564v.976a.856.856 0 00.849.856l2.265.005c.467 0 .85-.383.853-.852l.002-.94a7.168 7.168 0 001.381-.553l.651.654c.33.33.873.333 1.205.003l1.603-1.6a.857.857 0 00.003-1.208l-.615-.618a7.18 7.18 0 00.608-1.416l.853.003c.47 0 .853-.382.853-.852l.005-2.266a.856.856 0 00-.851-.856h-.817a7.014 7.014 0 00-.596-1.463l.575-.573a.855.855 0 00.003-1.205l-1.597-1.607a.855.855 0 00-1.205-.002l-.575.573a6.997 6.997 0 00-1.46-.6l.003-.82a.855.855 0 00-.848-.854l-2.266-.005a.854.854 0 00-.853.852l-.002.854c-.496.15-.972.353-1.416.602l-.616-.618a.855.855 0 00-1.205-.002z" fill="#fff"/><path fill-rule="evenodd" clip-rule="evenodd" d="M10.69 26.61a2.15 2.15 0 00-2.153 2.146 2.148 2.148 0 104.297.009 2.151 2.151 0 00-2.144-2.155z" fill="#434343"/><path fill-rule="evenodd" clip-rule="evenodd" d="M17.396 31.26h8.676c0-6.984 6.749-7.887 6.74-15.394C32.805 8.71 27.269 5.191 21.735 5.27c-5.535-.079-11.07 3.44-11.079 10.596-.009 7.507 6.74 8.41 6.74 15.393z" fill="#1DB86A"/><path d="M21.735 2.91a.595.595 0 01-.594-.594V.595a.595.595 0 111.189 0v1.721a.595.595 0 01-.595.595zM15.36 4.441a.593.593 0 01-.422-.174l-1.216-1.218a.595.595 0 01.841-.84l1.217 1.218a.595.595 0 01-.42 1.014zm12.748 0a.595.595 0 01-.42-1.015l1.216-1.218a.595.595 0 01.842.84l-1.217 1.219a.592.592 0 01-.42.174z" fill="#1DB86A"/><path d="M23.454 17.567h-3.729a.594.594 0 100 1.189h1.305v11.623a.595.595 0 101.19 0V18.756h1.234a.595.595 0 100-1.19z" fill="#fff"/><path fill-rule="evenodd" clip-rule="evenodd" d="M18.125 35.08l3.33-1.335 3.89 1.335v2.46A2.468 2.468 0 0122.887 40H20.58a2.466 2.466 0 01-2.456-2.46v-2.46z" fill="#fff"/><path fill-rule="evenodd" clip-rule="evenodd" d="M16.852 30.378h9.765c.436 0 .79.355.79.791v3.118a.794.794 0 01-.79.793h-9.765a.796.796 0 01-.792-.793V31.17c0-.436.357-.792.792-.792z" fill="#737373"/><path fill-rule="evenodd" clip-rule="evenodd" d="M26.305 36.647a6.756 6.756 0 009.562 0 6.772 6.772 0 000-9.57 6.756 6.756 0 00-9.562 0 6.772 6.772 0 000 9.57z" fill="#6F70E8"/><path d="M33.57 30.46l-2.062-2.064a.592.592 0 00-.842 0l-2.062 2.063a.595.595 0 10.84.841l1.049-1.048v4.655a.595.595 0 101.19 0v-4.654l1.045 1.047a.593.593 0 00.84 0 .595.595 0 00.001-.84z" fill="#fff"/></g><defs><clipPath id="clip0"><path fill="#fff" transform="translate(.008)" d="M0 0h40v40H0z"/></clipPath></defs></svg>