<svg width="41" height="40" fill="none" xmlns="http://www.w3.org/2000/svg"><g clip-path="url(#clip0)"><path d="M32.882 11.482l-7.916 7.916a9.352 9.352 0 01-3.567 2.23l-.744.256-1.558 1.558a1.79 1.79 0 01-2.53-2.53l1.557-1.558.257-.745a9.353 9.353 0 012.23-3.567l7.915-7.916 4.356 4.356z" fill="#fff"/><path d="M32.882 11.482l-7.916 7.916a9.354 9.354 0 01-3.567 2.23l-.745.256-1.557 1.557c-.7.7-1.833.698-2.53 0L30.703 9.304l2.178 2.178z" fill="#fff"/><path d="M36.84 8.774l-2.97 2.97c-.47.47-1.232.47-1.702 0L28.264 7.84c-.47-.47-.47-1.23 0-1.701l2.97-2.97a2.14 2.14 0 011.59-.626l1.558.056L36.353.627a2.14 2.14 0 113.028 3.028l-1.972 1.972.056 1.557a2.138 2.138 0 01-.625 1.59z" fill="#1DB86A"/><path d="M36.84 8.774l-2.97 2.97c-.47.47-1.232.47-1.702 0l-1.952-1.952L39.38.627a2.141 2.141 0 010 3.028l-1.972 1.972.056 1.557a2.138 2.138 0 01-.625 1.59zM11.126 21.849a1.203 1.203 0 01-.913-1.436l.503-2.26a1.203 1.203 0 01-.3-2.36l1.567-.45a1.204 1.204 0 011.507 1.417l-.929 4.175a1.203 1.203 0 01-1.435.914z" fill="#1DB86A"/><path d="M6.965 39.728l-.483-.245a2.488 2.488 0 01-1.09-3.347l1.066-2.098a2.492 2.492 0 013.347-1.09l.483.246a2.487 2.487 0 011.09 3.346l-1.066 2.098a2.487 2.487 0 01-3.347 1.09zm1.09-2.144c.04.02.09.006.112-.037l1.067-2.097a.083.083 0 00-.036-.112l-.484-.246a.083.083 0 00-.112.037l-1.066 2.097a.083.083 0 00.036.112l.483.246z" fill="#6F70E8"/><path d="M13.887 30.381l-.515.168a2.488 2.488 0 01-3.138-1.595l-.729-2.238a2.492 2.492 0 011.596-3.137l.515-.168a2.488 2.488 0 013.138 1.595l.729 2.238a2.487 2.487 0 01-1.596 3.137zm-.745-2.287a.083.083 0 00.054-.105l-.73-2.238a.083.083 0 00-.104-.053l-.516.168a.083.083 0 00-.053.105l.729 2.237c.014.044.06.068.104.054l.516-.168z" fill="#1DB86A"/><path d="M1.853 22.663l-.484-.246a2.487 2.487 0 01-1.09-3.346l1.067-2.098a2.493 2.493 0 013.347-1.09l.483.246a2.488 2.488 0 011.09 3.346l-1.067 2.098a2.488 2.488 0 01-3.346 1.09zm1.09-2.144c.04.02.09.006.112-.036l1.067-2.098a.083.083 0 00-.037-.112l-.483-.246a.083.083 0 00-.112.036l-1.067 2.098a.083.083 0 00.037.112l.483.246zM15.49 40a1.203 1.203 0 01-1.203-1.203v-3.28a1.203 1.203 0 01-.825-2.23l1.441-.803a1.203 1.203 0 011.789 1.05v5.263c0 .665-.538 1.203-1.203 1.203z" fill="#6F70E8"/><path d="M5.503 31.337c-.427 0-.84-.228-1.058-.63l-1.081-1.992a1.203 1.203 0 01-1.788-1.567l.883-1.394a1.204 1.204 0 012.073.07L6.56 29.56a1.203 1.203 0 01-1.056 1.777zM21.504 40h-.567a2.607 2.607 0 01-2.604-2.604v-2.462a2.607 2.607 0 012.604-2.604h.567a2.607 2.607 0 012.604 2.604v2.462A2.607 2.607 0 0121.504 40zm-.567-5.153a.087.087 0 00-.087.087v2.462c0 .048.039.087.087.087h.567a.087.087 0 00.087-.087v-2.462a.087.087 0 00-.087-.087h-.567zm7.088-3.547h-.567a2.607 2.607 0 01-2.604-2.604v-2.462a2.607 2.607 0 012.604-2.604h.567a2.607 2.607 0 012.604 2.604v2.462a2.607 2.607 0 01-2.604 2.604zm-.567-5.153a.087.087 0 00-.088.087v2.462c0 .048.04.087.088.087h.567a.087.087 0 00.087-.087v-2.462a.087.087 0 00-.087-.087h-.567z" fill="#1DB86A"/><path d="M28.494 40a1.258 1.258 0 01-1.258-1.258v-3.077a1.259 1.259 0 01-.863-2.333l1.508-.841a1.26 1.26 0 011.872 1.099v5.151c0 .696-.564 1.259-1.259 1.259zm-6.654-8.92a1.259 1.259 0 01-1.26-1.258V27.45a1.259 1.259 0 01-.862-2.332l1.508-.842a1.26 1.26 0 011.872 1.1v4.446c0 .695-.564 1.258-1.259 1.258z" fill="#6F70E8"/></g><defs><clipPath id="clip0"><path fill="#fff" transform="translate(.008)" d="M0 0h40v40H0z"/></clipPath></defs></svg>