<svg width="40" height="40" fill="none" xmlns="http://www.w3.org/2000/svg"><g clip-path="url(#clip0)"><path d="M15.372 39.199L13.61 33.83a15.322 15.322 0 01-2.374-1.386l-5.48 1.122c-.505.097-1-.126-1.249-.562L.991 26.917a1.169 1.169 0 01.138-1.363l3.708-4.185a13.262 13.262 0 010-2.738l-3.708-4.185a1.169 1.169 0 01-.138-1.363l3.516-6.088a1.16 1.16 0 011.25-.562l5.48 1.122a15.293 15.293 0 012.37-1.384l1.765-5.37c.16-.478.609-.801 1.113-.801h7.03c.504 0 .953.323 1.113.801l1.765 5.37c.812.379 1.607.842 2.371 1.384l5.48-1.122a1.16 1.16 0 011.25.562l3.515 6.088c.254.437.197.986-.138 1.363l-3.708 4.185a13.25 13.25 0 010 2.738l3.708 4.185c.335.377.392.926.138 1.363l-3.516 6.088a1.17 1.17 0 01-1.25.562l-5.479-1.122a15.27 15.27 0 01-2.378 1.387l-1.758 5.366h-9.256z" fill="#1DB86A"/><path d="M39.009 13.083l-3.516-6.088a1.16 1.16 0 00-1.25-.562l-5.48 1.122a15.293 15.293 0 00-2.37-1.384L24.628.8a1.174 1.174 0 00-1.112-.8H20v39.198h4.628l1.758-5.365a15.27 15.27 0 002.378-1.387l5.48 1.121c.503.097 1-.126 1.249-.562l3.516-6.088a1.169 1.169 0 00-.138-1.363l-3.708-4.185c.096-.986.094-1.77 0-2.738l3.708-4.185a1.17 1.17 0 00.138-1.363z" fill="#1DB86A"/><path d="M24.39 45.122h-8.78c-.809 0-2.807-.655-2.807-1.465V30.964c0-.494.248-.954.66-1.225.414-.27 2.279-.314 2.73-.118 2.31 1.004 5.305 1.004 7.614 0 .452-.195 2.32-.15 2.73.118.412.27.661.731.661 1.225v12.693c0 .81-1.999 1.465-2.807 1.465z" fill="#434343"/><path d="M15.027 32.307C10.062 30.31 6.83 25.524 6.83 20.124c0-5.37 3.226-10.167 8.223-12.222 1.722-.709 2.576-.135 2.985.137.405.272.648.728.648 1.217h2.628c0-.49.243-.945.65-1.217.405-.272 1.844-.787 2.984-.137 4.996 2.055 8.223 6.853 8.223 12.222 0 5.4-3.233 10.187-8.235 12.199-2.958 1.287-6.777 1.346-9.909-.016z" fill="#434343"/><path d="M23.516 40h-7.031a1.171 1.171 0 01-1.172-1.172V28.673a1.172 1.172 0 011.639-1.075c1.85.803 4.248.803 6.097 0a1.172 1.172 0 011.639 1.075v10.155c0 .648-.524 1.172-1.172 1.172z" fill="#6F70E8"/><path d="M16.018 29.747C12.042 28.151 9.454 24.32 9.454 20c0-4.296 2.584-8.134 6.584-9.779a1.17 1.17 0 011.618 1.084v8.068l2.345 1.562 2.343-1.562v-8.068a1.171 1.171 0 011.618-1.084c4.001 1.645 6.585 5.483 6.585 9.78 0 4.32-2.588 8.15-6.594 9.759-2.369 1.03-5.427 1.077-7.935-.013z" fill="#6F70E8"/></g><defs><clipPath id="clip0"><path fill="#fff" d="M0 0h40v40H0z"/></clipPath></defs></svg>