<svg width="40" height="40" fill="none" xmlns="http://www.w3.org/2000/svg"><g clip-path="url(#clip0)"><path d="M39.122 20.439c0 10.803-8.758 19.56-19.561 19.56S0 31.243 0 20.44C0 9.636 8.758.879 19.56.879c10.804 0 19.562 8.757 19.562 19.56z" fill="#424242"/><path d="M3.912 21.557h3.992v14.591a19.684 19.684 0 01-3.992-3.971v-10.62zM26.267 38.82a19.498 19.498 0 003.992-2.004v-24.84h-3.992V38.82zm-7.664 1.157a19.73 19.73 0 003.992-.21V19.16h-3.992v20.815zm-7.505-1.898a19.415 19.415 0 003.992 1.407V21.557h-3.992V38.08zM33.453 5.59v28.62a19.594 19.594 0 003.992-5.837V5.589h-3.992z" fill="#6F70E8"/><path d="M39.988.499l-2.307 8.97a.399.399 0 01-.669.183l-1.638-1.638-12.51 12.51-2.102 2.102c-.3.3-.706.468-1.13.468H7.792a.799.799 0 00-.565.234l-5.39 5.39c-.758-1.62-1.3-3.36-1.59-5.184l4.762-4.763c.3-.3.706-.467 1.129-.467H17.98a.798.798 0 00.565-.234l.932-.933 12.51-12.51-1.638-1.638a.4.4 0 01.183-.67l8.97-2.306a.4.4 0 01.487.486z" fill="#1DB86A"/><path d="M39.943.194L34.88 5.558 20.306 20.13a2.38 2.38 0 01-1.693.701H6.771L.995 26.607a19.443 19.443 0 01-.75-3.073l4.763-4.763c.3-.3.706-.468 1.13-.468h11.841a.797.797 0 00.565-.234l.932-.932 12.51-12.51-1.638-1.639a.4.4 0 01.183-.668l8.97-2.307a.398.398 0 01.442.18z" fill="#1DB86A"/></g><defs><clipPath id="clip0"><path fill="#fff" d="M0 0h40v40H0z"/></clipPath></defs></svg>