<svg width="1035" height="795" fill="none" xmlns="http://www.w3.org/2000/svg"><path d="M846.179 714.053a.89.89 0 01-.731-.384c-29.214-42.629-39.172-75.571-29.604-97.904 8.503-19.855 29.976-23.553 30.192-23.59a.884.884 0 11.285 1.747c-.204.031-20.753 3.598-28.86 22.562-9.297 21.738.613 54.104 29.449 96.187a.887.887 0 01-.23 1.233.927.927 0 01-.501.149zm-726.415 0a.891.891 0 00.731-.384c29.213-42.629 39.172-75.571 29.604-97.904-8.504-19.855-29.976-23.553-30.193-23.59a.887.887 0 00-1.015.731.883.883 0 00.731 1.016c.204.031 20.753 3.598 28.86 22.562 9.296 21.738-.613 54.104-29.449 96.187a.887.887 0 00.229 1.233.948.948 0 00.502.149z" fill="#F0F0F0"/><path d="M942.503 263v421.801c0 31.039-27.261 56.199-60.89 56.199h-708.22c-33.628 0-60.89-25.16-60.89-56.199V263h830z" fill="#DFDFDF"/><path d="M320.253 137.739l179.86-108.802c17.497-10.583 38.277-10.583 55.774 0l179.866 108.768 207.75 125.642-207.75 125.326L528.003 514l-207.75-125.464-207.75-125.189 207.75-125.608z" fill="#E7E7E7"/><path d="M926.197 722.748a1.461 1.461 0 001.092-2.426L668.105 428.733a1.462 1.462 0 00-2.054-.124 1.463 1.463 0 00-.124 2.055L925.104 722.26c.289.323.687.488 1.093.488zm-796.978-.001c.398 0 .804-.165 1.086-.488l259.177-291.596a1.45 1.45 0 00-.124-2.054 1.45 1.45 0 00-2.054.123L128.126 720.329a1.45 1.45 0 00.124 2.054c.275.247.625.364.969.364z" fill="#fff"/><path fill-rule="evenodd" clip-rule="evenodd" d="M793.568 53.954l-9.814 31.483c-.286.955.239 1.959 1.17 2.317l23.854 7.453a1.8 1.8 0 011.266 1.791 70.998 70.998 0 001.552 17.318c.167.788-.191 1.6-.908 1.983l-22.086 11.609a1.817 1.817 0 00-.765 2.436l15.306 29.19a1.816 1.816 0 002.436.764l22.11-11.609a1.784 1.784 0 012.149.383 70.735 70.735 0 0013.324 11.155c.669.454.979 1.29.74 2.054l-7.426 23.839a1.772 1.772 0 001.17 2.246l31.471 9.817a1.769 1.769 0 002.244-1.17l7.426-23.84a1.821 1.821 0 011.791-1.266 71.814 71.814 0 0017.288-1.6 1.778 1.778 0 011.981.908l11.605 22.119a1.815 1.815 0 002.435.764l29.203-15.311a1.818 1.818 0 00.764-2.437l-11.605-22.143a1.822 1.822 0 01.382-2.15c4.227-3.941 7.952-8.408 11.175-13.352a1.79 1.79 0 012.03-.741l23.853 7.453a1.77 1.77 0 002.245-1.171l9.838-31.506a1.772 1.772 0 00-1.17-2.246l-23.854-7.453a1.77 1.77 0 01-1.266-1.767c.144-5.876-.382-11.68-1.599-17.294-.168-.789.191-1.6.907-1.983l22.134-11.633a1.818 1.818 0 00.765-2.436l-15.354-29.214a1.815 1.815 0 00-2.435-.764l-22.111 11.609c-.716.382-1.6.215-2.149-.383a71.406 71.406 0 00-13.324-11.107c-.668-.454-.979-1.29-.74-2.054l7.45-23.863a1.771 1.771 0 00-1.17-2.246L896.385.09a1.77 1.77 0 00-2.244 1.17l-7.45 23.863a1.8 1.8 0 01-1.791 1.266 70.62 70.62 0 00-17.287 1.553 1.78 1.78 0 01-1.982-.908l-11.605-22.12a1.815 1.815 0 00-2.435-.764l-29.179 15.31a1.818 1.818 0 00-.764 2.437l11.605 22.119c.382.716.215 1.6-.382 2.15a70.442 70.442 0 00-11.151 13.329c-.454.668-1.29.979-2.054.74l-23.853-7.453a1.77 1.77 0 00-2.245 1.17zm89.189 85.588c-22.321 0-40.415-18.095-40.415-40.416 0-22.32 18.094-40.415 40.415-40.415 22.321 0 40.416 18.095 40.416 40.415 0 22.321-18.095 40.416-40.416 40.416zm61.131 70.982l-4.723 15.152a.92.92 0 00.563 1.115l11.479 3.586c.38.115.621.472.609.862a34.178 34.178 0 00.747 8.335.872.872 0 01-.436.954l-10.63 5.587a.873.873 0 00-.367 1.172l7.365 14.048a.875.875 0 001.173.368l10.64-5.587a.86.86 0 011.035.184 34.003 34.003 0 006.412 5.368.886.886 0 01.356.989l-3.574 11.472a.852.852 0 00.563 1.081l15.145 4.725a.853.853 0 001.081-.564l3.573-11.472a.874.874 0 01.862-.609c2.827.08 5.619-.184 8.32-.771a.855.855 0 01.953.437l5.586 10.645c.23.425.75.586 1.17.368l14.05-7.369a.87.87 0 00.37-1.172l-5.58-10.657a.874.874 0 01.18-1.034 34.3 34.3 0 005.38-6.426.866.866 0 01.98-.357l11.48 3.587a.857.857 0 001.08-.563l4.73-15.163a.85.85 0 00-.56-1.081l-11.48-3.586a.854.854 0 01-.61-.851 35.47 35.47 0 00-.77-8.323.868.868 0 01.44-.954l10.65-5.598c.42-.23.58-.747.37-1.173l-7.39-14.059a.883.883 0 00-1.18-.368l-10.64 5.587a.852.852 0 01-1.03-.184 34.174 34.174 0 00-6.41-5.345.897.897 0 01-.36-.989l3.59-11.484a.856.856 0 00-.57-1.081l-15.142-4.724a.85.85 0 00-1.08.563l-3.585 11.484a.864.864 0 01-.862.609 33.959 33.959 0 00-8.32.748.855.855 0 01-.953-.437l-5.585-10.645a.875.875 0 00-1.172-.368l-14.042 7.369a.875.875 0 00-.368 1.172l5.585 10.645a.86.86 0 01-.184 1.035 33.898 33.898 0 00-5.366 6.414.885.885 0 01-.989.357l-11.479-3.587a.852.852 0 00-1.08.563zm42.922 41.19c-10.742 0-19.45-8.708-19.45-19.45 0-10.742 8.708-19.45 19.45-19.45 10.742 0 19.45 8.708 19.45 19.45 0 10.742-8.708 19.45-19.45 19.45z" fill="#E7E7E7"/><path d="M2.542 338.493l-.322 3.914v.019a.68.68 0 01-.731.619.679.679 0 01-.62-.731v-.006l.366-3.951a.66.66 0 01.718-.595c.36.031.626.347.595.706l-.006.025zm-.676 13.08l.019 3.927v.018c0 .415-.328.75-.743.75a.743.743 0 01-.75-.743v-.007l.019-3.963a.727.727 0 011.455 0v.018zm.459 13.086l.353 3.915v.018a.818.818 0 01-.737.886.822.822 0 01-.886-.737v-.006l-.316-3.958a.793.793 0 011.58-.136l.006.018zm1.555 13l.675 3.871.006.019a.882.882 0 11-1.74.303v-.006l-.638-3.921a.865.865 0 01.712-.99.859.859 0 01.985.699v.025zm2.607 12.826l.978 3.797.006.018a.95.95 0 01-1.839.477v-.012l-.948-3.853a.931.931 0 01.682-1.127.927.927 0 011.12.669v.031zm3.605 12.572l1.27 3.716.005.025a1.011 1.011 0 01-.631 1.288 1.012 1.012 0 01-1.288-.631l-.007-.013-1.245-3.771a.997.997 0 011.89-.632l.006.018zm4.564 12.263l1.548 3.611.013.025a1.084 1.084 0 11-1.995.855l-.006-.013-1.53-3.672a1.063 1.063 0 011.957-.83l.013.024zm5.474 11.879l1.815 3.481.013.024a1.157 1.157 0 01-.49 1.555 1.157 1.157 0 01-1.554-.489l-.006-.013-1.803-3.542a1.133 1.133 0 01.496-1.524 1.14 1.14 0 011.517.483l.013.025zm6.349 11.433l2.069 3.332.012.024a1.219 1.219 0 11-2.075 1.282l-.006-.012-2.062-3.4a1.206 1.206 0 01.402-1.648 1.2 1.2 0 011.641.391l.019.031zm7.171 10.925l2.31 3.171.02.025a1.286 1.286 0 01-2.081 1.511l-.007-.013-2.31-3.239a1.262 1.262 0 01.297-1.765 1.272 1.272 0 011.76.285l.012.025zm7.965 10.355l2.54 2.985.018.025a1.354 1.354 0 01-2.063 1.753l-.006-.013-2.545-3.059a1.33 1.33 0 01.173-1.877 1.333 1.333 0 011.87.161l.013.025zm8.714 9.717l2.756 2.787.025.025a1.42 1.42 0 01-.013 2.013 1.421 1.421 0 01-2.013-.012l-.012-.013-2.775-2.861a1.402 1.402 0 012-1.963l.032.024zm9.432 9.023l2.96 2.558.025.025c.626.539.694 1.48.155 2.1a1.485 1.485 0 01-2.1.154l-.012-.012-2.985-2.632a1.47 1.47 0 011.932-2.217l.025.024zm10.101 8.25l3.153 2.31.03.025a1.554 1.554 0 11-1.839 2.508l-.012-.012-3.19-2.384a1.534 1.534 0 01-.31-2.149 1.53 1.53 0 012.138-.316l.03.018zm10.721 7.407l3.326 2.05.037.019a1.608 1.608 0 01-1.685 2.737l-.006-.006-3.381-2.112a1.595 1.595 0 011.678-2.713l.03.025zm11.278 6.503l3.48 1.759.038.019a1.646 1.646 0 01-1.487 2.936l-.006-.007-3.548-1.814a1.627 1.627 0 01-.707-2.199 1.631 1.631 0 012.187-.712l.043.018zm11.786 5.506l3.629 1.45.037.018a1.683 1.683 0 01-1.251 3.122l-.006-.007-3.697-1.505a1.673 1.673 0 011.251-3.102l.037.024zm12.226 4.49l3.734 1.152.037.013a1.71 1.71 0 011.134 2.149 1.712 1.712 0 01-2.149 1.133h-.013l-3.802-1.201a1.71 1.71 0 011.015-3.264l.044.018zm12.541 3.499l3.815.861.037.006a1.758 1.758 0 01-.768 3.432h-.013l-3.883-.898a1.745 1.745 0 01.781-3.401h.031zm12.776 2.527l3.865.57.037.006a1.79 1.79 0 011.511 2.038 1.8 1.8 0 01-2.037 1.517h-.013l-3.939-.607a1.786 1.786 0 01.533-3.53l.043.006zm12.932 1.586l3.895.297.038.006a1.837 1.837 0 011.69 1.97 1.837 1.837 0 01-1.969 1.691h-.012l-3.97-.322a1.815 1.815 0 01-1.666-1.964 1.827 1.827 0 011.957-1.672l.037-.006zm13.018.669l3.914.031h.037a1.873 1.873 0 11-.031 3.747h-.012l-3.982-.056a1.856 1.856 0 01-1.833-1.889 1.857 1.857 0 011.876-1.833h.031zm13.037-.193l3.908-.223h.038a1.908 1.908 0 012.012 1.803 1.907 1.907 0 01-1.802 2.013h-.012l-3.976.204a1.902 1.902 0 01-.205-3.797h.037zm13-1.015l3.889-.459.037-.006a1.946 1.946 0 012.162 1.71 1.945 1.945 0 01-1.709 2.161h-.013l-3.957.44a1.94 1.94 0 01-2.143-1.71 1.932 1.932 0 011.697-2.136h.037zm12.925-1.79l3.859-.681.03-.006a1.991 1.991 0 012.304 1.61 1.991 1.991 0 01-1.61 2.304h-.012l-3.927.669a1.974 1.974 0 01-2.279-1.617 1.975 1.975 0 011.604-2.279h.031zm12.802-2.52l3.809-.892.031-.006a2.025 2.025 0 11.923 3.945h-.013l-3.877.885a2.015 2.015 0 01-.904-3.926l.031-.006zm12.653-3.202l3.765-1.09.031-.007a2.07 2.07 0 012.558 1.406 2.066 2.066 0 01-1.406 2.558l-.012.006-3.834 1.09a2.05 2.05 0 01-1.133-3.939l.031-.024zm12.479-3.865l3.704-1.282.031-.012a2.1 2.1 0 111.368 3.97l-.012.006-3.772 1.276a2.093 2.093 0 01-2.65-1.307 2.085 2.085 0 011.294-2.645l.037-.006zm12.262-4.471l3.636-1.462.031-.012a2.138 2.138 0 111.592 3.969l-.013.007-3.703 1.461a2.121 2.121 0 01-2.756-1.195 2.13 2.13 0 011.182-2.756l.031-.012zm12.041-5.067l3.561-1.629.031-.012a2.18 2.18 0 012.886 1.072 2.179 2.179 0 01-1.072 2.886l-.012.006-3.629 1.635a2.165 2.165 0 01-2.862-1.084 2.16 2.16 0 011.072-2.855l.025-.019zm11.785-5.629l3.487-1.796.025-.013a2.216 2.216 0 012.031 3.939l-.012.006-3.555 1.809a2.202 2.202 0 01-2.96-.966 2.195 2.195 0 01.953-2.954l.031-.025zm11.52-6.163l3.4-1.944.025-.013a2.229 2.229 0 112.211 3.871h-.006l-3.456 1.963a2.223 2.223 0 01-3.035-.836 2.222 2.222 0 01.836-3.034l.025-.007zm11.259-6.633l3.332-2.075.019-.012a2.241 2.241 0 013.09.719 2.24 2.24 0 01-.718 3.09h-.006l-3.376 2.099a2.244 2.244 0 01-3.084-.718 2.245 2.245 0 01.718-3.084l.025-.019zm11.006-7.066l3.251-2.199.019-.012a2.244 2.244 0 013.127.607 2.244 2.244 0 01-.607 3.127h-.006l-3.295 2.217a2.244 2.244 0 01-3.121-.613 2.245 2.245 0 01.613-3.121l.019-.006zm10.757-7.451l3.177-2.304.019-.012a2.265 2.265 0 012.663 3.666h-.006l-3.221 2.329a2.264 2.264 0 01-3.158-.508 2.264 2.264 0 01.507-3.158l.019-.013zm10.51-7.803l3.109-2.403.019-.013a2.278 2.278 0 112.787 3.605h-.006l-3.14 2.421a2.278 2.278 0 01-2.775-3.61h.006zm10.275-8.12l3.04-2.489.013-.013a2.291 2.291 0 013.226.316 2.291 2.291 0 01-.315 3.227h-.007l-3.071 2.508a2.29 2.29 0 01-2.899-3.542l.013-.007zm10.051-8.404l2.973-2.57.012-.012a2.31 2.31 0 013.252.235 2.31 2.31 0 01-.236 3.251h-.006l-3.004 2.589a2.303 2.303 0 01-3.245-.241 2.304 2.304 0 01.242-3.246l.012-.006zm9.854-8.645l2.917-2.639.013-.012a2.32 2.32 0 013.115 3.437h-.006l-2.942 2.651a2.32 2.32 0 01-3.27-.167 2.318 2.318 0 01.167-3.27h.006zm9.662-8.869l2.861-2.694.012-.007a2.336 2.336 0 013.295.099c.88.936.836 2.41-.099 3.295h-.006l-2.886 2.707a2.328 2.328 0 01-3.184-3.394l.007-.006zm9.487-9.055l2.818-2.75.006-.006a2.341 2.341 0 013.314.043c.904.929.885 2.41-.044 3.314h-.006l-2.842 2.762a2.34 2.34 0 01-3.308-.05 2.347 2.347 0 01.062-3.313zm9.346-9.215l2.781-2.794.006-.006a2.356 2.356 0 013.338 3.326l-.006.006-2.799 2.806a2.35 2.35 0 01-3.326 0 2.375 2.375 0 01.006-3.338zm9.228-9.352l2.75-2.83.006-.007a2.369 2.369 0 113.4 3.301l-.006.007-2.762 2.836a2.367 2.367 0 01-3.345.043 2.362 2.362 0 01-.043-3.35zm9.117-9.464l2.725-2.861a2.378 2.378 0 113.456 3.27l-.007.006-2.737 2.861a2.378 2.378 0 01-3.363.075 2.368 2.368 0 01-.074-3.351zm9.042-9.55l2.7-2.88a2.39 2.39 0 013.382-.111 2.389 2.389 0 01.111 3.381l-.006.007-2.712 2.879a2.389 2.389 0 01-3.475-3.276zm8.986-9.612l2.688-2.892a2.407 2.407 0 013.53 3.27l-.006.006-2.694 2.893a2.4 2.4 0 01-3.394.117 2.395 2.395 0 01-.124-3.394zm8.949-9.655l2.688-2.898a2.418 2.418 0 013.419-.13c.979.91 1.04 2.44.13 3.418l-.006.006-2.694 2.899a2.412 2.412 0 01-3.413.124 2.425 2.425 0 01-.124-3.419zm8.943-9.661l2.688-2.899a2.437 2.437 0 013.438-.13 2.436 2.436 0 01.13 3.437l-.007.007-2.687 2.886a2.423 2.423 0 01-3.431.124 2.42 2.42 0 01-.131-3.425zm8.969-9.65l2.694-2.886a2.445 2.445 0 013.573 3.338l-.006.007-2.7 2.879a2.444 2.444 0 01-3.45.118 2.452 2.452 0 01-.111-3.456zm9.01-9.611l2.719-2.874a2.463 2.463 0 013.475-.099 2.462 2.462 0 01.099 3.474l-.006.007-2.713 2.861a2.454 2.454 0 01-3.468.099 2.45 2.45 0 01-.106-3.468zm9.08-9.557l2.744-2.849a2.469 2.469 0 013.493-.068 2.469 2.469 0 01.068 3.493l-.006.006-.007.007-2.737 2.836-.006.006a2.465 2.465 0 01-3.487.062 2.474 2.474 0 01-.062-3.493zm9.178-9.469l2.775-2.824a2.484 2.484 0 013.543 3.481l-.007.006-.006.006-2.768 2.805-.006.007a2.483 2.483 0 01-3.506.024 2.476 2.476 0 01-.025-3.505zm9.29-9.371l2.812-2.787a2.493 2.493 0 013.506 3.543l-.007.006-.006.006-2.805 2.762-.006.006a2.493 2.493 0 01-3.524-.024 2.49 2.49 0 01.03-3.512zm9.439-9.234l2.861-2.737a2.506 2.506 0 113.469 3.617l-.006.006-.013.006-2.849 2.719-.012.006a2.504 2.504 0 01-3.537-.08 2.505 2.505 0 01.087-3.537zm9.606-9.061l2.923-2.688a2.497 2.497 0 013.53.149 2.497 2.497 0 01-.149 3.53l-.006.006-2.898 2.67-.013.012a2.505 2.505 0 01-3.536-.142 2.506 2.506 0 01.149-3.537zm9.804-8.869l2.979-2.619a2.482 2.482 0 013.511.229 2.481 2.481 0 01-.229 3.511l-.012.007-2.948 2.601-.012.012a2.49 2.49 0 01-3.518-.223 2.497 2.497 0 01.229-3.518zm10.008-8.645l3.041-2.545a2.482 2.482 0 013.493.309 2.482 2.482 0 01-.31 3.493l-.012.013-3.01 2.527-.013.012a2.485 2.485 0 01-3.189-3.809zm10.219-8.392l3.109-2.459a2.47 2.47 0 013.066 3.871l-.013.012-3.072 2.441-.018.012a2.473 2.473 0 11-3.072-3.877zm10.461-8.101l3.183-2.366a2.462 2.462 0 012.935 3.952l-.018.012-3.146 2.341-.019.012a2.469 2.469 0 01-3.45-.501 2.477 2.477 0 01.515-3.45zm10.708-7.779l3.264-2.266a2.452 2.452 0 012.799 4.025l-.019.013-3.22 2.241-.019.013a2.447 2.447 0 01-3.412-.613 2.443 2.443 0 01.607-3.413zm10.968-7.419l3.344-2.155a2.44 2.44 0 112.645 4.106l-.019.012-3.295 2.125-.024.012a2.45 2.45 0 01-3.382-.731c-.731-1.121-.403-2.632.731-3.369zm11.241-7.029l3.418-2.025a2.433 2.433 0 012.478 4.186l-.019.013-3.369 2-.025.012a2.438 2.438 0 01-3.338-.848 2.443 2.443 0 01.855-3.338zm11.488-6.603l3.493-1.895a2.42 2.42 0 013.283.973 2.419 2.419 0 01-.972 3.282l-.019.012-3.444 1.877-.024.012a2.418 2.418 0 01-3.289-.966 2.436 2.436 0 01.972-3.295zm11.724-6.174l3.561-1.772a2.412 2.412 0 012.149 4.317l-.018.012-3.512 1.753-.025.012a2.413 2.413 0 01-3.239-1.083 2.41 2.41 0 011.084-3.239zm11.934-5.747l3.623-1.642a2.401 2.401 0 011.982 4.373l-.019.006-3.567 1.623-.025.012a2.403 2.403 0 01-3.183-1.195 2.387 2.387 0 011.189-3.177zm12.133-5.315l3.679-1.511a2.39 2.39 0 013.121 1.307 2.39 2.39 0 01-1.306 3.121l-.019.006-3.629 1.493-.025.012a2.398 2.398 0 01-3.128-1.3 2.401 2.401 0 011.307-3.128zm12.318-4.873l3.729-1.375a2.375 2.375 0 013.059 1.412 2.375 2.375 0 01-1.412 3.059l-.018.006-3.679 1.363-.025.006a2.388 2.388 0 01-3.066-1.406 2.386 2.386 0 011.412-3.065zm12.48-4.435l3.777-1.245a2.375 2.375 0 011.487 4.509l-.019.006-3.722 1.232-.025.007a2.375 2.375 0 01-3.003-1.512 2.36 2.36 0 011.505-2.997zm12.634-3.995l3.815-1.108a2.362 2.362 0 012.93 1.61 2.363 2.363 0 01-1.61 2.93l-.019.006-3.766 1.102-.024.006a2.366 2.366 0 01-2.936-1.604 2.365 2.365 0 011.61-2.942zm12.764-3.542l3.852-.979a2.355 2.355 0 011.159 4.565l-.019.006-3.803.966-.024.006a2.356 2.356 0 01-2.868-1.703 2.344 2.344 0 011.703-2.861zm12.882-3.097l3.884-.842a2.347 2.347 0 012.786 1.796 2.346 2.346 0 01-1.796 2.787l-.018.006-3.834.836-.025.007a2.349 2.349 0 01-.997-4.59zm12.981-2.639l3.915-.706a2.334 2.334 0 01.83 4.596l-.019.006-3.865.7-.024.006a2.34 2.34 0 01-2.719-1.883 2.332 2.332 0 011.882-2.719zm13.068-2.179l3.933-.564c1.27-.179 2.452.7 2.632 1.97a2.327 2.327 0 01-1.969 2.632h-.019l-3.883.564-.025.006a2.33 2.33 0 01-2.638-1.97 2.318 2.318 0 011.969-2.638zm13.13-1.722l3.951-.427a2.317 2.317 0 11.496 4.608h-.019l-3.902.427-.025.006a2.322 2.322 0 01-.501-4.614zm13.192-1.257l3.964-.285a2.304 2.304 0 012.465 2.136 2.309 2.309 0 01-2.137 2.465h-.019l-3.914.285h-.025a2.31 2.31 0 01-2.471-2.136 2.303 2.303 0 012.137-2.465zm13.222-.787l3.97-.142a2.292 2.292 0 012.378 2.211 2.293 2.293 0 01-2.211 2.378h-.018l-3.921.149h-.024a2.3 2.3 0 01-2.385-2.211 2.291 2.291 0 012.211-2.385zm13.235-.316h3.976a2.284 2.284 0 012.286 2.286 2.293 2.293 0 01-2.286 2.291h-.018l-3.927.006h-.024a2.288 2.288 0 01-2.292-2.285 2.287 2.287 0 012.285-2.298zm13.248.162l3.97.142a2.272 2.272 0 012.192 2.36 2.272 2.272 0 01-2.359 2.192h-.019l-3.92-.136h-.025a2.28 2.28 0 01-2.199-2.36 2.275 2.275 0 012.36-2.198zm13.223.637l3.963.285a2.273 2.273 0 012.1 2.428 2.274 2.274 0 01-2.428 2.1h-.025l-3.914-.279h-.025a2.273 2.273 0 01-2.105-2.428 2.288 2.288 0 012.434-2.106zm13.197 1.127l3.951.434a2.26 2.26 0 012.001 2.49 2.26 2.26 0 01-2.49 2h-.018l-3.902-.421h-.025a2.265 2.265 0 01-2.007-2.49 2.254 2.254 0 012.49-2.013zm13.148 1.611l3.933.576a2.245 2.245 0 011.895 2.551 2.244 2.244 0 01-2.551 1.895l-.025-.006-3.883-.563-.025-.007a2.245 2.245 0 01-1.901-2.551 2.252 2.252 0 012.557-1.895zm13.081 2.105l3.908.737a2.239 2.239 0 01-.83 4.398l-.025-.006-3.852-.725-.031-.006a2.241 2.241 0 01-1.79-2.62 2.247 2.247 0 012.62-1.778zm12.987 2.657l3.871.911a2.223 2.223 0 011.66 2.681 2.223 2.223 0 01-2.682 1.66l-.025-.006-3.815-.892-.031-.006a2.232 2.232 0 01-1.666-2.682 2.246 2.246 0 012.688-1.666zm12.864 3.239l3.827 1.09a2.223 2.223 0 011.53 2.744 2.223 2.223 0 01-2.744 1.53l-.031-.006-3.765-1.066-.031-.006a2.222 2.222 0 01-1.536-2.744 2.23 2.23 0 012.75-1.542zm12.702 3.865l3.772 1.288a2.199 2.199 0 011.368 2.787 2.198 2.198 0 01-2.787 1.369l-.024-.006-3.71-1.251-.031-.012a2.206 2.206 0 01-1.387-2.787 2.21 2.21 0 012.793-1.388h.006zm12.479 4.528l3.698 1.492a2.16 2.16 0 011.195 2.818 2.159 2.159 0 01-2.818 1.195l-.025-.012-3.635-1.449-.037-.013a2.173 2.173 0 111.61-4.038l.012.007zm12.22 5.226l3.604 1.71a2.138 2.138 0 011.016 2.843 2.138 2.138 0 01-2.843 1.015l-.024-.012-3.537-1.66-.037-.019a2.14 2.14 0 01-1.028-2.855 2.141 2.141 0 012.855-1.028l-.006.006zm11.885 5.965l3.487 1.938a2.111 2.111 0 01.817 2.868 2.11 2.11 0 01-2.867.817l-.031-.018-3.425-1.883-.037-.019a2.122 2.122 0 01-.836-2.873 2.115 2.115 0 012.873-.83h.019zm11.47 6.744l3.344 2.18a2.077 2.077 0 01-2.266 3.481l-.031-.019-3.283-2.118-.037-.024a2.088 2.088 0 012.267-3.506l.006.006zm10.955 7.568l3.171 2.434a2.052 2.052 0 01.378 2.874 2.051 2.051 0 01-2.874.378l-.031-.025-3.102-2.36-.038-.031a2.055 2.055 0 112.484-3.276l.012.006zm10.343 8.398l2.967 2.682c.823.749.891 2.025.142 2.855a2.025 2.025 0 01-2.855.143l-.031-.031-2.898-2.602-.038-.037a2.02 2.02 0 01-.154-2.861 2.022 2.022 0 012.861-.155l.006.006zm9.612 9.241l2.725 2.93c.75.805.7 2.062-.105 2.811-.805.75-2.062.7-2.812-.105l-.031-.031-2.663-2.843-.037-.037a1.997 1.997 0 112.917-2.731l.006.006zm8.764 10.057l2.44 3.184a1.967 1.967 0 01-.36 2.749 1.965 1.965 0 01-2.749-.359l-.031-.043-2.379-3.072-.037-.049a1.966 1.966 0 01.353-2.763 1.972 1.972 0 012.763.353zm7.754 10.882l2.105 3.406c.564.911.279 2.1-.625 2.657-.911.564-2.1.279-2.657-.625l-.025-.044-2.056-3.294-.031-.05a1.94 1.94 0 01.619-2.675 1.94 1.94 0 012.676.619l-.006.006zm6.62 11.588l1.765 3.592a1.898 1.898 0 01-.873 2.545 1.899 1.899 0 01-2.545-.873l-.019-.043-1.728-3.487-.025-.05a1.914 1.914 0 113.432-1.697l-.007.013zm5.469 12.163l1.418 3.741a1.875 1.875 0 01-1.09 2.415 1.875 1.875 0 01-2.415-1.09l-.019-.043-1.393-3.642-.019-.049a1.884 1.884 0 113.518-1.35v.018zm4.317 12.616l1.071 3.846a1.846 1.846 0 01-3.555.991l-.012-.037-1.059-3.747-.012-.05a1.852 1.852 0 113.567-1.003zm3.164 12.932l.731 3.932a1.819 1.819 0 01-1.455 2.118 1.822 1.822 0 01-2.118-1.455l-.007-.037-.73-3.834-.007-.049a1.825 1.825 0 013.586-.675zm2.032 13.16l.39 3.976a1.778 1.778 0 01-1.604 1.951 1.778 1.778 0 01-1.951-1.604l-.006-.037-.396-3.884-.006-.043c-.1-.985.619-1.87 1.604-1.969a1.799 1.799 0 011.969 1.604v.006zm.904 13.279l.056 3.994a1.762 1.762 0 01-1.734 1.784 1.757 1.757 0 01-1.784-1.734v-.037l-.068-3.902v-.043a1.764 1.764 0 011.734-1.796 1.764 1.764 0 011.796 1.734zm-.216 13.309l-.279 3.982a1.727 1.727 0 01-1.846 1.604 1.728 1.728 0 01-1.604-1.845v-.038l.26-3.895v-.044a1.732 1.732 0 011.852-1.616 1.73 1.73 0 011.617 1.846v.006zm-1.326 13.235l-.613 3.945a1.699 1.699 0 11-3.357-.526l.006-.037.583-3.859.006-.043a1.712 1.712 0 011.944-1.437 1.702 1.702 0 011.431 1.945v.012zm-2.44 13.08l-.948 3.877a1.671 1.671 0 01-3.245-.793l.006-.037.91-3.796.013-.044a1.674 1.674 0 012.025-1.238 1.675 1.675 0 011.239 2.025v.006zm-3.555 12.82l-1.288 3.784a1.64 1.64 0 11-3.109-1.053l.012-.037 1.239-3.703.012-.044a1.646 1.646 0 012.087-1.04 1.647 1.647 0 011.041 2.087l.006.006zm-4.676 12.455l-1.617 3.648a1.612 1.612 0 01-2.13.818 1.612 1.612 0 01-.818-2.131l.012-.037 1.567-3.567.019-.044a1.62 1.62 0 012.137-.83 1.627 1.627 0 01.836 2.137l-.006.006zm-5.791 11.978l-1.957 3.48a1.583 1.583 0 01-2.762-1.548l.019-.031 1.895-3.413.025-.037a1.595 1.595 0 012.787 1.549h-.007zm-6.918 11.371l-2.292 3.27a1.534 1.534 0 01-2.52-1.747l.025-.037 2.211-3.214.024-.038a1.55 1.55 0 012.552 1.759v.007zm-8.008 10.633l-2.607 3.023a1.48 1.48 0 01-2.248-1.927l.031-.037 2.521-2.972.031-.038a1.5 1.5 0 012.285 1.939l-.013.012zm-9.048 9.761l-2.905 2.744a1.432 1.432 0 01-2.018-.056 1.432 1.432 0 01.049-2.013l.031-.031 2.824-2.706.031-.031a1.447 1.447 0 012.044.043 1.447 1.447 0 01-.043 2.044l-.013.006zm-9.99 8.788l-3.159 2.434a1.378 1.378 0 01-1.69-2.174l.031-.024 3.078-2.41.031-.024a1.396 1.396 0 011.721 2.198h-.012zm-10.801 7.748l-3.375 2.118a1.326 1.326 0 01-1.418-2.242l.031-.018 3.294-2.106.031-.019a1.342 1.342 0 011.443 2.261l-.006.006zm-11.476 6.682l-3.555 1.797a1.274 1.274 0 01-1.152-2.273l.031-.019 3.481-1.79.031-.018a1.285 1.285 0 011.734.557 1.294 1.294 0 01-.558 1.74l-.012.006zm-12.039 5.599l-3.698 1.468a1.219 1.219 0 01-1.585-.687 1.226 1.226 0 01.675-1.586l.031-.012 3.623-1.468.031-.012a1.238 1.238 0 011.61.681 1.239 1.239 0 01-.681 1.61l-.006.006zm-12.468 4.503l-3.815 1.139a1.168 1.168 0 01-1.455-.786 1.168 1.168 0 01.78-1.456l.031-.006 3.747-1.152.031-.006a1.186 1.186 0 01.693 2.267h-.012zm-12.82 3.412l-3.895.812a1.117 1.117 0 01-.465-2.187l.031-.006 3.834-.83.031-.006a1.137 1.137 0 011.35.867 1.137 1.137 0 01-.867 1.35h-.019zm-13.049 2.316l-3.945.483a1.065 1.065 0 01-1.189-.929 1.07 1.07 0 01.922-1.189l.025-.006 3.89-.502.024-.006a1.083 1.083 0 011.214.935c.075.595-.34 1.14-.935 1.214h-.006zm-13.192 1.214l-3.97.149a1.017 1.017 0 01-.086-2.031h.024l3.921-.18h.025a1.032 1.032 0 11.092 2.062h-.006zm-13.241.1l-3.97-.186a.963.963 0 01-.916-1.01.957.957 0 011.003-.916h.025l3.92.155h.025a.98.98 0 01-.074 1.957h-.013zm-13.204-1.022l-3.945-.527a.915.915 0 01.235-1.814h.025l3.902.489h.024a.927.927 0 01-.229 1.839l-.012.013zm-13.074-2.162l-3.877-.873a.859.859 0 01.372-1.678l.025.006 3.833.83.025.006a.875.875 0 01-.372 1.709h-.006z" fill="#424242"/><path d="M785.721 59.333H205.112c-10.238 0-18.717 8.884-18.717 19.123v471.183h682.619v-405.7l-83.293-84.606z" fill="#fff"/><path d="M868.691 143.939l-76.188.66c-2.021.02-3.601-.77-5.037-2.192-1.436-1.43-1.581-3.367-1.581-5.381V59.91l82.806 84.029z" fill="#EDEDED"/><path d="M678.435 280.972c0 17.714-2.831 33.924-8.486 48.621-5.655 14.698-13.653 26.235-23.988 34.597-10.334 8.363-22.324 12.547-35.978 12.547-9.104 0-17.157-2.185-24.173-6.548-7.008-4.37-12.052-10.115-15.13-17.254h-2.955c-13.282 15.866-30.199 23.802-50.744 23.802-21.775 0-38.933-6.548-51.48-19.652-12.547-13.103-18.82-31.03-18.82-53.788 0-25.953 8.238-46.869 24.723-62.735 16.484-15.865 38.011-23.802 64.583-23.802 10.581 0 22.235 1.017 34.968 3.044 12.732 2.027 23.218 4.46 31.456 7.291l-4.246 90.226c0 17.096 4.672 25.651 14.024 25.651 7.875 0 14.148-5.752 18.821-17.254 4.672-11.503 7.008-26.537 7.008-45.117 0-19.803-4.123-37.304-12.361-52.496-8.239-15.193-19.838-26.785-34.783-34.783-14.945-7.998-32.013-11.99-51.204-11.99-24.847 0-46.436 5.105-64.762 15.316s-32.384 24.943-42.162 44.189c-9.778 19.253-14.67 41.489-14.67 66.7 0 33.951 9.07 60 27.217 78.14 18.147 18.147 44.436 27.217 78.882 27.217 13.042 0 27.368-1.443 42.994-4.336 15.625-2.893 30.996-7.105 46.126-12.636v35.428c-26.323 11.193-55.54 16.793-87.643 16.793-46.745 0-83.183-12.299-109.329-36.905-26.138-24.599-39.207-58.798-39.207-102.588 0-30.385 6.672-57.966 20.023-82.758 13.344-24.785 32.35-44.223 57.018-58.309 24.661-14.087 53.046-21.13 85.155-21.13 27.059 0 51.233 5.539 72.513 16.608 21.28 11.07 37.703 26.819 49.267 47.233 11.557 20.429 17.343 43.983 17.343 70.678zm-188.946 23.06c0 25.953 10.582 38.933 31.738 38.933 11.07 0 19.494-3.903 25.28-11.716 5.778-7.812 9.29-20.51 10.52-38.101l2.398-40.781c-6.274-1.353-13.344-2.027-21.219-2.027-15.378 0-27.341 4.796-35.889 14.395-8.547 9.6-12.828 22.696-12.828 39.297z" fill="#1DB86A"/><path d="M303.699 515.729v72.383c0 4.267-2.601 7.729-5.809 7.729H87.063c-2.663 0-4.992 2.416-5.636 5.853l-3.425 18.239c-.452 2.416-2.979 2.62-3.648.291l-4.41-15.409c-.86-2.997-3.016-4.979-5.43-4.979h-8.2c-3.209 0-5.81-3.462-5.81-7.729v-73.844c0-4.243 2.57-7.693 5.76-7.73L297.847 508c3.22-.037 5.852 3.438 5.852 7.729z" fill="#6F70E8"/><path d="M90.033 576.273c12.926 0 23.405-10.756 23.405-24.024s-10.479-24.023-23.405-24.023c-12.926 0-23.404 10.755-23.404 24.023 0 13.268 10.478 24.024 23.404 24.024z" fill="#fff"/><path d="M98.511 542.514c0 4.316-3.499 8.974-7.816 8.974-4.316 0-7.815-4.658-7.815-8.974 0-4.317 3.499-7.377 7.816-7.377 4.316 0 7.815 3.06 7.815 7.377zm-17.508 25.59h19.076a4.615 4.615 0 004.397-3.208l1.028-3.208c.749-2.347-.471-4.893-2.787-5.741-7.76-2.837-15.787-2.472-24.011.26-2.304.768-3.58 3.233-2.948 5.574l.792 2.91a4.613 4.613 0 004.453 3.413z" fill="#6F70E8"/><path d="M275.08 558.517c0 2.508-2.118 4.54-4.732 4.54h-139.28c-2.614 0-4.732-2.032-4.732-4.54s2.118-4.54 4.732-4.54h139.28c2.614 0 4.732 2.038 4.732 4.54zm-67.476 14.566a4.123 4.123 0 01-4.125 4.125h-73.018a4.123 4.123 0 01-4.125-4.125 4.123 4.123 0 014.125-4.124h73.018a4.12 4.12 0 014.125 4.124zm67.955 0a4.122 4.122 0 01-4.124 4.125h-52.699a4.123 4.123 0 01-4.125-4.125 4.123 4.123 0 014.125-4.124h52.699a4.122 4.122 0 014.124 4.124zm-67.311-36.596a5.796 5.796 0 01-5.797 5.797h-70.318a5.796 5.796 0 01-5.797-5.797v-.47a5.796 5.796 0 015.797-5.797h70.318a5.796 5.796 0 015.797 5.797v.47z" fill="#fff"/><path d="M809.503 458.712a9.29 9.29 0 019.29-9.29h206.417a9.29 9.29 0 019.29 9.29V784.89a9.29 9.29 0 01-9.29 9.29H818.793a9.29 9.29 0 01-9.29-9.29V458.712z" fill="#424242"/><path d="M823.294 479.76a9.29 9.29 0 019.29-9.29H1013.6a9.29 9.29 0 019.29 9.29v273.92a9.29 9.29 0 01-9.29 9.29H832.584a9.29 9.29 0 01-9.29-9.29V479.76z" fill="#EBEBEB"/><path d="M920.479 681.745c38.242 0 69.242-31.001 69.242-69.242 0-38.242-31-69.242-69.242-69.242-38.241 0-69.242 31-69.242 69.242 0 38.241 31.001 69.242 69.242 69.242z" fill="#fff"/><path d="M963.069 630.597a12.35 12.35 0 00-7.331-8.121l-4.979-1.975a9.553 9.553 0 00-11.17 3.158l-4.435 5.922c-6.968.203-15.002-2.395-22.137-7.73-6.699-5.015-11.308-11.475-13.311-17.818a.218.218 0 01.08-.24.22.22 0 01.254.008l3.999-5.342a10.906 10.906 0 00-.203-13.333l-3.31-4.159a12.491 12.491 0 00-19.771.29 16.077 16.077 0 00-2.628 5.364c-3.665 12.977 6.78 32.588 26.064 47.025 19.263 14.414 41.023 18.922 52.44 11.758 1.727-1.082 3.222-2.432 4.427-4.043a12.293 12.293 0 002.011-10.764z" fill="#1DB86A"/></svg>