<svg width="343" height="343" fill="none" xmlns="http://www.w3.org/2000/svg"><g clip-path="url(#clip0)"><path d="M292.712 342.33H.67l20.051-20.048h271.991v20.048zm-3.34-66.473H181.778v20.049h107.594v-20.049z" fill="#1DB86A"/><path d="M342.998 60.151L103.036 300.115.506 342.496l42.38-102.534L282.846 0l60.151 60.151z" fill="#1DB86A"/><path d="M291.722 111.429l51.275-51.275L282.848.004 231.572 51.28l60.15 60.149z" fill="#1DB86A"/><path d="M103.036 300.113L.506 342.496l42.38-102.534 60.15 60.151z" fill="#F9F9F8"/><path d="M283.949 119.193l14.176-14.176-60.15-60.15-14.176 14.177 60.15 60.149zm-30.239 30.248l14.176-14.177-60.15-60.15-14.176 14.177 60.15 60.15z" fill="#424242"/><path d="M11.58 315.702L.507 342.496l26.792-11.075-15.719-15.719z" fill="#36CC8F"/><path d="M19.44 323.561L.507 342.495l26.792-11.075-7.859-7.859z" fill="#00BA64"/><path d="M11.58 315.702L.507 342.496l26.792-11.075-15.719-15.719z" fill="#20C070"/></g><defs><clipPath id="clip0"><path fill="#fff" transform="translate(.504)" d="M0 0h342.496v342.496H0z"/></clipPath></defs></svg>