<svg width="1006" height="726" fill="none" xmlns="http://www.w3.org/2000/svg"><path opacity=".2" fill-rule="evenodd" clip-rule="evenodd" d="M324.316 92.871l16.892 54.192c.493 1.644-.411 3.371-2.014 3.988l-41.059 12.828c-1.356.411-2.22 1.686-2.178 3.084a122.272 122.272 0 01-2.672 29.809c-.288 1.357.329 2.755 1.562 3.413l38.018 19.982a3.129 3.129 0 011.315 4.194l-26.345 50.244a3.126 3.126 0 01-4.193 1.316l-38.059-19.982c-1.233-.658-2.753-.37-3.699.658a121.763 121.763 0 01-22.934 19.201c-1.151.781-1.685 2.22-1.274 3.536l12.782 41.034a3.047 3.047 0 01-2.013 3.865l-54.171 16.899a3.046 3.046 0 01-3.863-2.015l-12.782-41.034c-.453-1.357-1.686-2.22-3.083-2.179a123.639 123.639 0 01-29.757-2.755c-1.356-.329-2.753.329-3.411 1.562l-19.975 38.074a3.126 3.126 0 01-4.192 1.316l-50.266-26.356a3.128 3.128 0 01-1.315-4.194l19.975-38.114c.616-1.234.37-2.755-.658-3.701-7.275-6.784-13.686-14.473-19.235-22.984a3.082 3.082 0 00-3.493-1.275l-41.06 12.829a3.047 3.047 0 01-3.863-2.015L.363 194.059a3.048 3.048 0 012.014-3.865l41.059-12.829a3.048 3.048 0 002.178-3.042c-.246-10.115.658-20.106 2.754-29.769.288-1.356-.329-2.754-1.562-3.412l-38.1-20.024a3.128 3.128 0 01-1.315-4.194l26.427-50.285a3.126 3.126 0 014.193-1.316L76.07 85.306c1.233.658 2.753.37 3.699-.658 6.74-7.195 14.426-13.61 22.934-19.12 1.15-.78 1.685-2.22 1.274-3.535L91.153 20.918a3.048 3.048 0 012.014-3.866L147.338.154a3.046 3.046 0 013.863 2.014l12.823 41.076c.411 1.356 1.685 2.22 3.083 2.179 10.111-.33 20.098.575 29.757 2.672 1.356.33 2.753-.328 3.411-1.562L220.25 8.459a3.125 3.125 0 014.192-1.316L274.667 33.5a3.129 3.129 0 011.315 4.194l-19.975 38.074c-.658 1.233-.37 2.755.658 3.7a121.293 121.293 0 0119.193 22.943c.781 1.151 2.22 1.686 3.535 1.275l41.059-12.829a3.047 3.047 0 013.864 2.015zM170.794 240.194c38.42 0 69.566-31.146 69.566-69.567 0-38.421-31.146-69.567-69.566-69.567-38.421 0-69.567 31.146-69.567 69.567 0 38.421 31.146 69.567 69.567 69.567z" fill="#D8D8D8"/><rect x="703.43" y="285.844" width="302.416" height="390.448" rx="15" fill="#DDD"/><rect x="723.107" y="305.521" width="263.06" height="324.165" rx="15" fill="#F0F0F0"/><rect x="846.352" y="644.185" width="17.606" height="17.606" rx="8.803" fill="#fff"/><rect x="743.821" y="329.343" width="221.634" height="88.032" rx="10" fill="#DDD"/><rect x="743.821" y="486.765" width="221.634" height="122.209" rx="10" fill="#DDD"/><rect x="820.46" y="427.732" width="68.354" height="48.676" rx="10" fill="#DDD"/><rect x="899.171" y="427.732" width="66.283" height="48.676" rx="10" fill="#DDD"/><rect width="63.176" height="48.676" rx="10" transform="matrix(-1 0 0 1 806.997 427.732)" fill="#DDD"/><path d="M428.365 526.768l-13.969 125.274h162.055l-21.11-125.274H428.365z" fill="#E0E0E0"/><path d="M156.147 218.129v286.902c0 23.603 18.806 42.9 42.4 43.508 104.792 2.702 471.297 9.254 571.053 7.782 17.143-.253 31.035-13.975 31.526-31.114 1.925-66.649 5.046-226.925-6.513-301.333-2.435-15.671-15.661-27.385-31.512-27.895-87.803-2.81-476.323-11.729-576.03-9.488-17.192.393-30.924 14.441-30.924 31.638z" fill="#E7E7E7"/><rect x="156.595" y="186.421" width="644.187" height="390.448" rx="15" fill="#E7E7E7"/><rect x="176.273" y="210.242" width="604.832" height="310.701" rx="15" fill="#F0F0F0"/><g opacity=".71"><path opacity=".8" d="M353.535 491.761H226.627c-6.255 0-11.325-5.069-11.325-11.325V314.964c0-6.256 5.07-11.326 11.325-11.326h136.206c6.504 0 11.671 5.464 11.306 11.958l-9.298 165.472c-.34 6.003-5.298 10.693-11.306 10.693z" fill="#DEF5E9"/><path opacity=".71" d="M353.535 483.134h-2.936a.975.975 0 01-.972-.972c0-.535.437-.973.972-.973h2.936c.292 0 .549-.16.68-.422a.974.974 0 011.745.86 2.695 2.695 0 01-2.425 1.507zm-7.797 0h-4.86a.975.975 0 01-.972-.972c0-.535.437-.973.972-.973h4.86a.973.973 0 110 1.945zm-9.721 0h-4.861a.976.976 0 01-.972-.972c0-.535.438-.973.972-.973h4.861a.972.972 0 110 1.945zm-9.721 0h-4.861a.975.975 0 01-.972-.972c0-.535.437-.973.972-.973h4.861a.972.972 0 010 1.945zm-9.722 0h-4.86a.975.975 0 01-.972-.972c0-.535.437-.973.972-.973h4.86a.972.972 0 110 1.945zm-9.721 0h-4.861a.976.976 0 01-.972-.972c0-.535.438-.973.972-.973h4.861a.972.972 0 010 1.945zm-9.721 0h-4.861a.975.975 0 01-.972-.972c0-.535.437-.973.972-.973h4.861a.972.972 0 010 1.945zm-9.722 0h-4.86a.976.976 0 01-.973-.972c0-.535.438-.973.973-.973h4.86a.972.972 0 110 1.945zm-9.721 0h-4.861a.975.975 0 01-.972-.972c0-.535.437-.973.972-.973h4.861a.972.972 0 010 1.945zm-9.722 0h-4.86a.975.975 0 01-.972-.972c0-.535.437-.973.972-.973h4.86a.973.973 0 110 1.945zm-9.721 0h-4.861a.976.976 0 01-.972-.972c0-.535.438-.973.972-.973h4.861a.972.972 0 110 1.945zm-9.721 0h-4.861a.975.975 0 01-.972-.972c0-.535.437-.973.972-.973h4.861a.972.972 0 010 1.945zm-9.722 0h-4.86a.975.975 0 01-.972-.972c0-.535.437-.973.972-.973h4.86a.972.972 0 110 1.945zm-9.721 0h-2.455a2.701 2.701 0 01-2.697-2.698v-2.148c0-.535.437-.972.972-.972.534 0 .972.437.972.972v2.148c0 .418.34.753.753.753h2.455a.972.972 0 110 1.945zm126.412-5.794h-.054a.97.97 0 01-.913-1.026l.272-4.851a.97.97 0 111.939.112l-.272 4.851a.978.978 0 01-.972.914zm-130.597-2.941a.974.974 0 01-.972-.972v-4.861c0-.534.437-.972.972-.972.535 0 .972.438.972.972v4.861a.97.97 0 01-.972.972zm131.141-6.761h-.053a.97.97 0 01-.914-1.026l.272-4.851a.975.975 0 011.026-.913.97.97 0 01.914 1.025l-.273 4.851a.977.977 0 01-.972.914zm-131.141-2.96a.975.975 0 01-.972-.972v-4.861c0-.535.437-.972.972-.972.535 0 .972.437.972.972v4.861a.97.97 0 01-.972.972zm131.686-6.747h-.054a.969.969 0 01-.914-1.025l.273-4.851a.968.968 0 011.025-.914.969.969 0 01.914 1.025l-.272 4.851a.974.974 0 01-.972.914zm-131.686-2.975a.974.974 0 01-.972-.972v-4.86c0-.535.437-.973.972-.973.535 0 .972.438.972.973v4.86c0 .54-.433.972-.972.972zm132.235-6.732h-.054a.969.969 0 01-.913-1.025l.272-4.851a.976.976 0 011.025-.914.97.97 0 01.914 1.026l-.272 4.851a.977.977 0 01-.972.913zm-132.235-2.989a.974.974 0 01-.972-.972v-4.861c0-.535.437-.972.972-.972.535 0 .972.437.972.972v4.861a.97.97 0 01-.972.972zm132.779-6.717h-.053a.97.97 0 01-.914-1.026l.272-4.851c.029-.535.506-.938 1.026-.914a.97.97 0 01.914 1.026l-.273 4.851a.977.977 0 01-.972.914zm-132.779-3.004a.975.975 0 01-.972-.973v-4.86c0-.535.437-.972.972-.972.535 0 .972.437.972.972v4.86a.97.97 0 01-.972.973zm133.324-6.703h-.054a.97.97 0 01-.914-1.026l.273-4.851a.981.981 0 011.025-.914.97.97 0 01.914 1.026l-.272 4.851a.978.978 0 01-.972.914zm-133.324-3.019a.974.974 0 01-.972-.972v-4.861c0-.534.437-.972.972-.972.535 0 .972.438.972.972v4.861c0 .54-.433.972-.972.972zm133.868-6.688h-.053a.97.97 0 01-.914-1.026l.272-4.851a.978.978 0 011.026-.913.969.969 0 01.913 1.025l-.272 4.851a.97.97 0 01-.972.914zm-133.868-3.033a.975.975 0 01-.972-.972v-4.861c0-.535.437-.972.972-.972.535 0 .972.437.972.972v4.861a.97.97 0 01-.972.972zm134.417-6.674h-.053a.969.969 0 01-.914-1.025l.272-4.851a.979.979 0 011.026-.914.969.969 0 01.914 1.025l-.273 4.851a.976.976 0 01-.972.914zm-134.417-3.047a.975.975 0 01-.972-.973v-4.86c0-.535.437-.972.972-.972.535 0 .972.437.972.972v4.86a.97.97 0 01-.972.973zm134.962-6.655h-.054a.97.97 0 01-.914-1.025l.273-4.851a.975.975 0 011.025-.914.969.969 0 01.914 1.025l-.272 4.851a.98.98 0 01-.972.914zm-134.962-3.067a.974.974 0 01-.972-.972v-4.861c0-.534.437-.972.972-.972.535 0 .972.438.972.972v4.861c0 .54-.433.972-.972.972zm135.506-6.64h-.053a.968.968 0 01-.914-1.025l.272-4.851a.969.969 0 011.026-.914.97.97 0 01.913 1.026l-.272 4.851a.98.98 0 01-.972.913zm-135.506-3.081a.975.975 0 01-.972-.972v-4.861c0-.535.437-.972.972-.972.535 0 .972.437.972.972v4.861a.97.97 0 01-.972.972zm136.051-6.625h-.054a.97.97 0 01-.914-1.026l.272-4.851a.976.976 0 011.026-.914.97.97 0 01.914 1.026l-.272 4.851a.971.971 0 01-.972.914zm-136.051-3.097a.974.974 0 01-.972-.972v-4.86c0-.535.437-.973.972-.973.535 0 .972.438.972.973v4.86c0 .54-.433.972-.972.972zm136.595-6.61h-.054a.97.97 0 01-.913-1.026l.272-4.851a.975.975 0 011.025-.913c.535.029.948.49.914 1.025l-.272 4.851a.97.97 0 01-.972.914zm-136.595-3.111a.974.974 0 01-.972-.972v-4.861c0-.534.437-.972.972-.972.535 0 .972.438.972.972v4.861a.97.97 0 01-.972.972zm137.144-6.596h-.053a.97.97 0 01-.914-1.026l.272-4.85a.985.985 0 011.026-.914.97.97 0 01.914 1.025l-.273 4.851a.976.976 0 01-.972.914zm-137.144-3.125a.975.975 0 01-.972-.972v-4.861c0-.535.437-.972.972-.972.535 0 .972.437.972.972v4.861a.97.97 0 01-.972.972zm137.689-6.582h-.054a.969.969 0 01-.914-1.025l.272-4.851a.98.98 0 011.026-.914.97.97 0 01.914 1.026l-.272 4.851a.977.977 0 01-.972.913zm-137.689-3.14a.974.974 0 01-.972-.972v-4.861c0-.534.437-.972.972-.972.535 0 .972.438.972.972v4.861c0 .54-.433.972-.972.972zm138.233-6.562h-.053a.969.969 0 01-.914-1.025l.272-4.851a.979.979 0 011.026-.914.97.97 0 01.913 1.026l-.272 4.851a.977.977 0 01-.972.913zM224.897 338.3a.975.975 0 01-.972-.972v-4.861c0-.535.437-.972.972-.972.535 0 .972.437.972.972v4.861a.97.97 0 01-.972.972zm138.777-6.547h-.053a.97.97 0 01-.914-1.026l.272-4.851a.979.979 0 011.026-.914.97.97 0 01.914 1.026l-.272 4.851a.975.975 0 01-.973.914zm-138.777-3.174a.975.975 0 01-.972-.973v-4.86c0-.535.437-.972.972-.972.535 0 .972.437.972.972v4.86a.97.97 0 01-.972.973zm139.327-6.533h-.054a.97.97 0 01-.914-1.026l.273-4.851a.97.97 0 111.939.112l-.272 4.851a.981.981 0 01-.972.914zm-139.327-3.189a.974.974 0 01-.972-.972v-2.921c0-1.026.598-1.983 1.526-2.431a.97.97 0 011.298.452.97.97 0 01-.452 1.298.758.758 0 00-.428.681v2.921c0 .54-.433.972-.972.972zm137.052-4.647h-4.861a.974.974 0 01-.972-.972c0-.534.437-.972.972-.972h4.861c.534 0 .972.438.972.972a.975.975 0 01-.972.972zm-9.722 0h-4.86a.974.974 0 01-.972-.972c0-.534.437-.972.972-.972h4.86c.535 0 .973.438.973.972a.975.975 0 01-.973.972zm-9.721 0h-4.861a.975.975 0 01-.972-.972c0-.534.438-.972.972-.972h4.861c.535 0 .972.438.972.972a.974.974 0 01-.972.972zm-9.721 0h-4.861a.974.974 0 01-.972-.972c0-.534.437-.972.972-.972h4.861c.534 0 .972.438.972.972a.975.975 0 01-.972.972zm-9.722 0h-4.86a.974.974 0 01-.972-.972c0-.534.437-.972.972-.972h4.86c.535 0 .972.438.972.972a.974.974 0 01-.972.972zm-9.721 0h-4.861a.975.975 0 01-.972-.972c0-.534.438-.972.972-.972h4.861c.535 0 .972.438.972.972a.974.974 0 01-.972.972zm-9.721 0h-4.861a.974.974 0 01-.972-.972c0-.534.437-.972.972-.972h4.861c.534 0 .972.438.972.972a.975.975 0 01-.972.972zm-9.722 0h-4.86a.975.975 0 01-.973-.972c0-.534.438-.972.973-.972h4.86c.535 0 .972.438.972.972a.974.974 0 01-.972.972zm-9.721 0h-4.861a.974.974 0 01-.972-.972c0-.534.437-.972.972-.972h4.861c.535 0 .972.438.972.972a.974.974 0 01-.972.972zm-9.722 0h-4.86a.974.974 0 01-.972-.972c0-.534.437-.972.972-.972h4.86c.535 0 .973.438.973.972a.975.975 0 01-.973.972zm-9.721 0h-4.861a.975.975 0 01-.972-.972c0-.534.438-.972.972-.972h4.861c.535 0 .972.438.972.972a.974.974 0 01-.972.972zm-9.721 0h-4.861a.974.974 0 01-.972-.972c0-.534.437-.972.972-.972h4.861c.534 0 .972.438.972.972a.975.975 0 01-.972.972zm-9.722 0h-4.86a.974.974 0 01-.972-.972c0-.534.437-.972.972-.972h4.86c.535 0 .972.438.972.972a.974.974 0 01-.972.972zm-9.721 0h-4.861a.975.975 0 01-.972-.972c0-.534.438-.972.972-.972h4.861c.535 0 .972.438.972.972a.974.974 0 01-.972.972zm310.894 178.524h-4.86a.976.976 0 01-.973-.972c0-.535.438-.972.973-.972h4.86c1.439 0 2.834-.292 4.137-.861a.971.971 0 01.777 1.779 12.122 12.122 0 01-4.914 1.026zm-9.721 0h-4.861a.975.975 0 01-.972-.972c0-.535.437-.972.972-.972h4.861a.972.972 0 010 1.944zm-9.722 0h-4.86a.975.975 0 01-.972-.972c0-.535.437-.972.972-.972h4.86a.973.973 0 110 1.944zm-9.721 0h-4.861a.976.976 0 01-.972-.972c0-.535.438-.972.972-.972h4.861a.972.972 0 110 1.944zm-9.721 0h-4.861a.975.975 0 01-.972-.972c0-.535.437-.972.972-.972h4.861a.972.972 0 010 1.944zm-9.722 0h-4.86a.975.975 0 01-.972-.972c0-.535.437-.972.972-.972h4.86a.972.972 0 110 1.944zm-9.721 0h-4.861a.976.976 0 01-.972-.972c0-.535.438-.972.972-.972h4.861a.972.972 0 110 1.944zm-9.721 0h-4.861a.975.975 0 01-.972-.972c0-.535.437-.972.972-.972h4.861a.972.972 0 010 1.944zm-9.722 0h-4.86a.976.976 0 01-.973-.972c0-.535.438-.972.973-.972h4.86a.972.972 0 110 1.944zm-9.721 0h-4.861a.976.976 0 01-.972-.972c0-.535.438-.972.972-.972h4.861a.972.972 0 010 1.944zm-9.721 0h-4.861a.975.975 0 01-.972-.972c0-.535.437-.972.972-.972h4.861a.972.972 0 010 1.944zm-9.722 0h-4.861a.976.976 0 01-.972-.972c0-.535.438-.972.972-.972h4.861a.972.972 0 110 1.944zm-9.721 0h-4.861a.975.975 0 01-.972-.972c0-.535.437-.972.972-.972h4.861a.972.972 0 010 1.944zm-9.722 0h-4.86a.975.975 0 01-.972-.972c0-.535.437-.972.972-.972h4.86a.973.973 0 110 1.944zm-9.721 0h-4.861a.976.976 0 01-.972-.972c0-.535.438-.972.972-.972h4.861a.972.972 0 110 1.944zm-9.721 0h-.248c-1.692 0-3.33-.336-4.871-1.001a.972.972 0 01.773-1.784c1.293.559 2.674.841 4.098.841h.248a.972.972 0 010 1.944zm-8.648-3.733a.972.972 0 01-.724-.321 12.397 12.397 0 01-2.605-4.545.973.973 0 111.857-.583 10.404 10.404 0 002.192 3.825.97.97 0 01-.068 1.371.976.976 0 01-.652.253zm162.906-.039a.97.97 0 01-.719-1.619 10.466 10.466 0 002.178-3.835.973.973 0 011.215-.641c.51.16.797.704.641 1.215a12.456 12.456 0 01-2.586 4.554.982.982 0 01-.729.326zm-165.768-8.953h-.054a.97.97 0 01-.914-1.026l.272-4.851a.976.976 0 011.026-.914.97.97 0 01.914 1.026l-.272 4.851a.97.97 0 01-.972.914zm168.588-.044a.97.97 0 01-.968-.914l-.296-4.851a.972.972 0 01.909-1.03.963.963 0 011.03.909l.297 4.851a.973.973 0 01-.909 1.03c-.025.005-.044.005-.063.005zm-168.044-9.658h-.054a.97.97 0 01-.913-1.026l.272-4.851a.975.975 0 011.025-.914.97.97 0 01.914 1.026l-.272 4.851a.974.974 0 01-.972.914zm167.451-.044a.97.97 0 01-.968-.914l-.296-4.851a.972.972 0 011.939-.121l.297 4.851a.973.973 0 01-.909 1.03c-.02.005-.044.005-.063.005zM390.228 460.6h-.053a.97.97 0 01-.914-1.026l.272-4.851a.978.978 0 011.026-.913.97.97 0 01.914 1.025l-.273 4.851a.98.98 0 01-.972.914zm166.313-.044a.969.969 0 01-.967-.914l-.296-4.851a.973.973 0 011.939-.121l.297 4.851a.973.973 0 01-.909 1.03c-.025.005-.044.005-.064.005zm-165.768-9.663h-.054a.97.97 0 01-.914-1.026l.273-4.85a.975.975 0 011.025-.914.969.969 0 01.914 1.025l-.272 4.851a.973.973 0 01-.972.914zm165.175-.039a.969.969 0 01-.967-.914l-.296-4.851a.973.973 0 011.939-.121l.297 4.851a.973.973 0 01-.909 1.03c-.025.005-.044.005-.064.005zm-164.631-9.668h-.054a.969.969 0 01-.913-1.025l.272-4.851a.976.976 0 011.026-.914.97.97 0 01.913 1.026l-.272 4.85a.973.973 0 01-.972.914zm164.038-.034a.969.969 0 01-.967-.914l-.296-4.85a.973.973 0 01.909-1.031.964.964 0 011.03.909l.297 4.851a.973.973 0 01-.909 1.03c-.025.005-.044.005-.064.005zm-163.494-9.672h-.053a.97.97 0 01-.914-1.026l.272-4.851a.976.976 0 011.026-.914.97.97 0 01.914 1.026l-.272 4.851a.972.972 0 01-.973.914zm162.901-.035a.969.969 0 01-.967-.913l-.296-4.851a.973.973 0 01.909-1.031.964.964 0 011.03.909l.297 4.851a.973.973 0 01-.909 1.031c-.025.004-.044.004-.064.004zm-162.351-9.672h-.054a.97.97 0 01-.914-1.026l.273-4.851a.97.97 0 111.939.112l-.272 4.851a.978.978 0 01-.972.914zm161.758-.029a.97.97 0 01-.967-.914l-.296-4.851a.973.973 0 01.909-1.031.961.961 0 011.03.909l.297 4.851a.973.973 0 01-.909 1.031c-.02.005-.039.005-.064.005zm-161.214-9.673h-.053a.97.97 0 01-.914-1.026l.272-4.851a.977.977 0 011.026-.914.97.97 0 01.913 1.026l-.272 4.851a.981.981 0 01-.972.914zm160.626-.029a.97.97 0 01-.967-.914l-.296-4.851a.972.972 0 011.939-.122l.296 4.851a.973.973 0 01-.909 1.031c-.024.005-.043.005-.063.005zm-160.082-9.678h-.053a.97.97 0 01-.914-1.026l.272-4.851a.985.985 0 011.026-.913.969.969 0 01.914 1.025l-.272 4.851a.978.978 0 01-.973.914zm159.489-.024a.97.97 0 01-.967-.914l-.297-4.851a.974.974 0 01.909-1.031.962.962 0 011.031.909l.296 4.851a.973.973 0 01-.909 1.031c-.024.005-.043.005-.063.005zm-158.944-9.683h-.054a.969.969 0 01-.913-1.025l.272-4.851a.978.978 0 011.025-.914.969.969 0 01.914 1.025l-.272 4.851a.974.974 0 01-.972.914zm158.351-.024a.97.97 0 01-.967-.914l-.297-4.851a.973.973 0 01.909-1.03.964.964 0 011.031.909l.296 4.851a.973.973 0 01-.909 1.03c-.024.005-.043.005-.063.005zm-157.802-9.683h-.053a.968.968 0 01-.914-1.025l.272-4.851a.979.979 0 011.026-.914.97.97 0 01.913 1.026l-.272 4.851a.977.977 0 01-.972.913zm157.209-.019a.97.97 0 01-.967-.914l-.297-4.851a.973.973 0 01.909-1.03.967.967 0 011.031.909l.296 4.851a.973.973 0 01-.909 1.03c-.024.005-.043.005-.063.005zm-156.665-9.687h-.053a.97.97 0 01-.914-1.026l.272-4.851a.976.976 0 011.026-.914.97.97 0 01.914 1.026l-.272 4.851a.978.978 0 01-.973.914zm156.077-.015a.97.97 0 01-.967-.914l-.297-4.851a.973.973 0 01.909-1.03.964.964 0 011.031.909l.296 4.851a.973.973 0 01-.909 1.03c-.024.005-.043.005-.063.005zm-155.532-9.692h-.054a.97.97 0 01-.913-1.026l.272-4.851a.97.97 0 111.939.112l-.272 4.851a.974.974 0 01-.972.914zm154.939-.015a.969.969 0 01-.967-.914l-.297-4.851a.973.973 0 01.909-1.03.964.964 0 011.031.909l.296 4.851a.972.972 0 01-.909 1.03c-.024.005-.043.005-.063.005zm-154.395-9.692h-.053a.97.97 0 01-.914-1.026l.272-4.851a.976.976 0 011.026-.913.97.97 0 01.914 1.025l-.273 4.851a.97.97 0 01-.972.914zm153.802-.01a.969.969 0 01-.967-.913l-.297-4.851a.973.973 0 01.909-1.031.967.967 0 011.031.909l.296 4.851a.972.972 0 01-.909 1.03c-.024.005-.043.005-.063.005zm-153.257-9.692h-.054a.97.97 0 01-.914-1.025l.273-4.851a.975.975 0 011.025-.914.969.969 0 01.914 1.025l-.272 4.851a.974.974 0 01-.972.914zm152.664-.01a.969.969 0 01-.967-.913l-.297-4.851a.973.973 0 01.909-1.031.964.964 0 011.031.909l.296 4.851a.973.973 0 01-.909 1.031c-.024.004-.043.004-.063.004zm-152.115-9.697h-.054a.969.969 0 01-.913-1.025l.272-4.851a.976.976 0 011.025-.914.97.97 0 01.914 1.026l-.272 4.851a.98.98 0 01-.972.913zm151.522-.004a.97.97 0 01-.967-.914l-.297-4.851a.973.973 0 01.909-1.031.97.97 0 011.031.909l.296 4.851a.973.973 0 01-.909 1.031c-.019 0-.039.005-.063.005zm-150.978-9.702h-.053a.97.97 0 01-.914-1.026l.272-4.851a.982.982 0 011.026-.914.97.97 0 01.914 1.026l-.273 4.851a.98.98 0 01-.972.914zm150.39-.005a.97.97 0 01-.967-.914l-.297-4.851a.973.973 0 011.94-.122l.296 4.851a.973.973 0 01-.909 1.031c-.024.005-.044.005-.063.005zm-.598-9.702a.97.97 0 01-.967-.895 10.18 10.18 0 00-1.288-4.214.97.97 0 111.691-.952 12.157 12.157 0 011.531 5.006.973.973 0 01-.889 1.05c-.024.005-.049.005-.078.005zm-149.242 0c-.025 0-.054 0-.083-.005a.975.975 0 01-.89-1.05 12.196 12.196 0 011.532-5.011.972.972 0 011.322-.37.968.968 0 01.369 1.322 10.3 10.3 0 00-1.288 4.215.962.962 0 01-.962.899zm144.634-8.22a.978.978 0 01-.573-.189 10.299 10.299 0 00-4.03-1.784.971.971 0 11.389-1.905 12.143 12.143 0 014.793 2.119.967.967 0 01.209 1.356.965.965 0 01-.788.403zm-140.027 0a.972.972 0 01-.787-.398.966.966 0 01.214-1.356 12.225 12.225 0 014.793-2.12.974.974 0 011.147.759.974.974 0 01-.759 1.147 10.146 10.146 0 00-4.029 1.784.987.987 0 01-.579.184zm130.772-2.177h-4.86a.975.975 0 01-.972-.972c0-.535.437-.972.972-.972h4.86a.973.973 0 110 1.944zm-9.721 0h-4.861a.976.976 0 01-.972-.972c0-.535.438-.972.972-.972h4.861a.972.972 0 110 1.944zm-9.721 0h-4.861a.975.975 0 01-.972-.972c0-.535.437-.972.972-.972h4.861a.972.972 0 010 1.944zm-9.722 0h-4.86a.976.976 0 01-.973-.972c0-.535.438-.972.973-.972h4.86a.972.972 0 110 1.944zm-9.721 0h-4.861a.976.976 0 01-.972-.972c0-.535.438-.972.972-.972h4.861a.972.972 0 010 1.944zm-9.721 0h-4.861a.975.975 0 01-.972-.972c0-.535.437-.972.972-.972h4.861a.972.972 0 010 1.944zm-9.722 0h-4.861a.976.976 0 01-.972-.972c0-.535.438-.972.972-.972h4.861a.972.972 0 110 1.944zm-9.721 0h-4.861a.975.975 0 01-.972-.972c0-.535.437-.972.972-.972h4.861a.972.972 0 010 1.944zm-9.722 0h-4.86a.975.975 0 01-.972-.972c0-.535.437-.972.972-.972h4.86a.973.973 0 110 1.944zm-9.721 0h-4.861a.976.976 0 01-.972-.972c0-.535.438-.972.972-.972h4.861a.972.972 0 110 1.944zm-9.721 0h-4.861a.975.975 0 01-.972-.972c0-.535.437-.972.972-.972h4.861a.972.972 0 010 1.944zm-9.722 0h-4.86a.976.976 0 01-.973-.972c0-.535.438-.972.973-.972h4.86a.972.972 0 110 1.944zm-9.721 0h-4.861a.976.976 0 01-.972-.972c0-.535.438-.972.972-.972h4.861a.972.972 0 010 1.944zM730.87 492.734h-4.861a.975.975 0 01-.972-.972c0-.535.437-.972.972-.972h4.861c.535 0 .972.437.972.972a.975.975 0 01-.972.972zm-9.722 0h-4.86a.975.975 0 01-.972-.972c0-.535.437-.972.972-.972h4.86c.535 0 .973.437.973.972a.976.976 0 01-.973.972zm-9.721 0h-4.861a.976.976 0 01-.972-.972c0-.535.438-.972.972-.972h4.861c.535 0 .972.437.972.972a.975.975 0 01-.972.972zm-9.721 0h-4.861a.975.975 0 01-.972-.972c0-.535.437-.972.972-.972h4.861c.534 0 .972.437.972.972a.976.976 0 01-.972.972zm-9.722 0h-4.86a.975.975 0 01-.972-.972c0-.535.437-.972.972-.972h4.86c.535 0 .973.437.973.972a.976.976 0 01-.973.972zm-9.721 0h-4.861a.976.976 0 01-.972-.972c0-.535.438-.972.972-.972h4.861c.535 0 .972.437.972.972a.975.975 0 01-.972.972zm-9.721 0h-4.861a.975.975 0 01-.972-.972c0-.535.437-.972.972-.972h4.861c.534 0 .972.437.972.972a.976.976 0 01-.972.972zm-9.722 0h-4.86a.976.976 0 01-.973-.972c0-.535.438-.972.973-.972h4.86c.535 0 .972.437.972.972a.975.975 0 01-.972.972zm-9.721 0h-4.861a.976.976 0 01-.972-.972c0-.535.438-.972.972-.972h4.861c.535 0 .972.437.972.972a.975.975 0 01-.972.972zm-9.721 0h-4.861a.975.975 0 01-.972-.972c0-.535.437-.972.972-.972h4.861c.534 0 .972.437.972.972a.976.976 0 01-.972.972zm-9.722 0h-4.861a.976.976 0 01-.972-.972c0-.535.438-.972.972-.972h4.861c.535 0 .972.437.972.972a.975.975 0 01-.972.972zm-9.721 0h-4.861a.975.975 0 01-.972-.972c0-.535.437-.972.972-.972h4.861c.534 0 .972.437.972.972a.976.976 0 01-.972.972zm-9.722 0h-4.86a.975.975 0 01-.972-.972c0-.535.437-.972.972-.972h4.86c.535 0 .973.437.973.972a.976.976 0 01-.973.972zm-9.721 0h-4.861a.976.976 0 01-.972-.972c0-.535.438-.972.972-.972h4.861c.535 0 .972.437.972.972a.975.975 0 01-.972.972zm-9.721 0h-1.434c-1.249 0-2.484-.19-3.665-.559a.971.971 0 01.578-1.852 10.36 10.36 0 003.087.467h1.434c.534 0 .972.437.972.972a.976.976 0 01-.972.972zm138.31-.219a.972.972 0 01-.189-1.925 10.253 10.253 0 004.039-1.764.966.966 0 011.356.219.967.967 0 01-.219 1.356 12.144 12.144 0 01-4.802 2.095.795.795 0 01-.185.019zm-147.312-2.683a.986.986 0 01-.652-.248 12.315 12.315 0 01-3.062-4.243.97.97 0 01.506-1.279.97.97 0 011.278.506 10.387 10.387 0 002.581 3.573.968.968 0 01-.651 1.691zm154.953-2.839a.972.972 0 01-.845-1.453 10.288 10.288 0 001.307-4.209.967.967 0 011.05-.885.968.968 0 01.885 1.05 12.186 12.186 0 01-1.551 5.002.968.968 0 01-.846.495zm-158.745-5.798a.97.97 0 01-.967-.914l-.296-4.851a.973.973 0 01.909-1.031.967.967 0 011.03.909l.296 4.851a.972.972 0 01-.908 1.031.276.276 0 01-.064.005zm160.218-3.665a.976.976 0 01-.972-.972v-4.861c0-.535.438-.972.972-.972.535 0 .972.437.972.972v4.861a.972.972 0 01-.972.972zm-160.806-6.042a.97.97 0 01-.967-.914l-.297-4.851a.973.973 0 01.909-1.03.966.966 0 011.031.909l.296 4.85a.973.973 0 01-.909 1.031c-.024.005-.043.005-.063.005zm160.806-3.68a.975.975 0 01-.972-.972v-4.861c0-.534.438-.972.972-.972.535 0 .972.438.972.972v4.861c0 .54-.437.972-.972.972zm-161.399-6.022a.97.97 0 01-.967-.914l-.297-4.851a.973.973 0 011.94-.121l.296 4.851a.973.973 0 01-.909 1.03c-.024.005-.043.005-.063.005zm161.399-3.699a.976.976 0 01-.972-.972v-4.861c0-.535.438-.972.972-.972.535 0 .972.437.972.972v4.861a.972.972 0 01-.972.972zm-161.992-6.003a.97.97 0 01-.967-.914l-.297-4.851a.973.973 0 01.909-1.03.96.96 0 011.031.909l.296 4.851a.973.973 0 01-.909 1.03c-.024.005-.043.005-.063.005zm161.992-3.718a.976.976 0 01-.972-.973v-4.86c0-.535.438-.972.972-.972.535 0 .972.437.972.972v4.86c0 .54-.437.973-.972.973zm-162.585-5.984a.97.97 0 01-.967-.914l-.297-4.851a.973.973 0 01.909-1.03.96.96 0 011.031.909l.296 4.851a.973.973 0 01-.909 1.03c-.024 0-.043.005-.063.005zm162.585-3.738a.975.975 0 01-.972-.972v-4.861c0-.534.438-.972.972-.972.535 0 .972.438.972.972v4.861c0 .54-.437.972-.972.972zm-163.178-5.969a.969.969 0 01-.967-.914l-.297-4.851a.973.973 0 01.909-1.03.964.964 0 011.031.909l.296 4.851a.972.972 0 01-.909 1.03c-.019.005-.038.005-.063.005zm163.178-3.752a.976.976 0 01-.972-.972v-4.861c0-.535.438-.972.972-.972.535 0 .972.437.972.972v4.861a.972.972 0 01-.972.972zm-163.766-5.95a.969.969 0 01-.967-.913l-.297-4.851a.973.973 0 01.909-1.031.96.96 0 011.031.909l.296 4.851a.972.972 0 01-.909 1.03c-.024.005-.043.005-.063.005zm163.766-3.772a.975.975 0 01-.972-.972v-4.86c0-.535.438-.973.972-.973.535 0 .972.438.972.973v4.86c0 .54-.437.972-.972.972zm-164.359-5.93a.969.969 0 01-.967-.913l-.297-4.851a.973.973 0 01.909-1.031.967.967 0 011.031.909l.296 4.851a.973.973 0 01-.909 1.031c-.024.004-.043.004-.063.004zm164.359-3.791a.975.975 0 01-.972-.972v-4.861c0-.534.438-.972.972-.972.535 0 .972.438.972.972v4.861a.972.972 0 01-.972.972zm-164.952-5.915a.97.97 0 01-.967-.914l-.297-4.851a.973.973 0 01.909-1.031.968.968 0 011.031.909l.296 4.851a.973.973 0 01-.909 1.031c-.024.005-.044.005-.063.005zm164.952-3.806a.976.976 0 01-.972-.972v-4.861c0-.535.438-.972.972-.972.535 0 .972.437.972.972v4.861a.972.972 0 01-.972.972zm-165.545-5.896a.97.97 0 01-.967-.914l-.297-4.851a.973.973 0 01.909-1.031.965.965 0 011.031.909l.296 4.851a.973.973 0 01-.909 1.031c-.019.005-.043.005-.063.005zm165.545-3.826a.975.975 0 01-.972-.972v-4.861c0-.534.438-.972.972-.972.535 0 .972.438.972.972v4.861c0 .54-.437.972-.972.972zm-166.133-5.876a.97.97 0 01-.967-.914l-.297-4.851a.972.972 0 011.94-.122l.296 4.851a.973.973 0 01-.909 1.031c-.024.005-.044.005-.063.005zm166.133-3.845a.976.976 0 01-.972-.972v-4.861c0-.535.438-.972.972-.972.535 0 .972.437.972.972v4.861a.972.972 0 01-.972.972zm-166.726-5.857a.97.97 0 01-.967-.914l-.297-4.851a.972.972 0 011.94-.121l.296 4.851a.973.973 0 01-.909 1.03c-.024 0-.044.005-.063.005zm166.726-3.864a.976.976 0 01-.972-.973v-4.86c0-.535.438-.972.972-.972.535 0 .972.437.972.972v4.86c0 .54-.437.973-.972.973zm-167.319-5.843a.97.97 0 01-.967-.914l-.297-4.851a.973.973 0 01.909-1.03.964.964 0 011.031.909l.296 4.851a.973.973 0 01-.909 1.03c-.024.005-.044.005-.063.005zm167.319-3.879a.975.975 0 01-.972-.972v-4.861c0-.534.438-.972.972-.972.535 0 .972.438.972.972v4.861c0 .54-.437.972-.972.972zm-167.912-5.823a.969.969 0 01-.967-.914l-.297-4.851a.973.973 0 011.94-.121l.296 4.851a.973.973 0 01-.909 1.03c-.024.005-.044.005-.063.005zm167.912-3.898a.976.976 0 01-.972-.972v-4.861c0-.535.438-.972.972-.972.535 0 .972.437.972.972v4.861a.972.972 0 01-.972.972zm-168.5-5.804a.968.968 0 01-.967-.914l-.297-4.851a.973.973 0 011.939-.121l.297 4.851a.972.972 0 01-.909 1.03c-.024.005-.044.005-.063.005zm168.5-3.918a.975.975 0 01-.972-.972v-4.86c0-.535.438-.972.972-.972.535 0 .972.437.972.972v4.86c0 .54-.437.972-.972.972zm-169.093-5.789a.97.97 0 01-.968-.913l-.296-4.851a.973.973 0 01.909-1.031.966.966 0 011.03.909l.297 4.851a.973.973 0 01-.909 1.031c-.024.004-.044.004-.063.004zm169.093-3.932a.975.975 0 01-.972-.972v-4.861c0-.534.438-.972.972-.972.535 0 .972.438.972.972v4.861a.972.972 0 01-.972.972zm-169.686-5.77a.97.97 0 01-.968-.913l-.296-4.851a.97.97 0 111.939-.122l.297 4.851a.973.973 0 01-.909 1.031c-.024.004-.044.004-.063.004zm169.686-3.951a.976.976 0 01-.972-.972v-4.861c0-.535.438-.972.972-.972.535 0 .972.437.972.972v4.861a.972.972 0 01-.972.972zm-170.27-5.75a.974.974 0 01-.972-.948c-.005-.112-.005-.229-.005-.341 0-1.667.331-3.281.982-4.807a.965.965 0 011.274-.51.964.964 0 01.51 1.273 10.211 10.211 0 00-.821 4.331.973.973 0 01-.943.997c-.01.005-.015.005-.025.005zm169.682-3.904a.974.974 0 01-.923-.661 10.345 10.345 0 00-2.266-3.781.975.975 0 01.044-1.376.975.975 0 011.376.044 12.394 12.394 0 012.688 4.496.97.97 0 01-.919 1.278zm-165.992-4.768a.983.983 0 01-.72-.316.975.975 0 01.064-1.375 12.192 12.192 0 014.53-2.625.966.966 0 011.22.632.967.967 0 01-.632 1.22 10.237 10.237 0 00-3.811 2.211.948.948 0 01-.651.253zm159.547-2.109c-.122 0-.248-.025-.37-.073a10.278 10.278 0 00-3.922-.768h-.457a.975.975 0 01-.972-.972c0-.535.437-.973.972-.973h.457c1.614 0 3.179.307 4.661.914a.973.973 0 01-.369 1.872zm-9.61-.846h-4.86a.976.976 0 01-.973-.972c0-.535.438-.972.973-.972h4.86c.535 0 .972.437.972.972a.975.975 0 01-.972.972zm-9.721 0h-4.861a.975.975 0 01-.972-.972c0-.535.437-.972.972-.972h4.861c.535 0 .972.437.972.972a.975.975 0 01-.972.972zm-9.722 0h-4.86a.975.975 0 01-.972-.972c0-.535.437-.972.972-.972h4.86c.535 0 .973.437.973.972a.976.976 0 01-.973.972zm-9.721 0h-4.861a.976.976 0 01-.972-.972c0-.535.438-.972.972-.972h4.861c.535 0 .972.437.972.972a.975.975 0 01-.972.972zm-9.721 0h-4.861a.975.975 0 01-.972-.972c0-.535.437-.972.972-.972h4.861c.534 0 .972.437.972.972a.976.976 0 01-.972.972zm-9.722 0h-4.86a.975.975 0 01-.972-.972c0-.535.437-.972.972-.972h4.86c.535 0 .973.437.973.972a.976.976 0 01-.973.972zm-9.721 0h-4.861a.976.976 0 01-.972-.972c0-.535.438-.972.972-.972h4.861c.535 0 .972.437.972.972a.975.975 0 01-.972.972zm-9.721 0h-4.861a.975.975 0 01-.972-.972c0-.535.437-.972.972-.972h4.861c.534 0 .972.437.972.972a.976.976 0 01-.972.972zm-9.722 0h-4.86a.976.976 0 01-.973-.972c0-.535.438-.972.973-.972h4.86c.535 0 .972.437.972.972a.975.975 0 01-.972.972zm-9.721 0h-4.861a.976.976 0 01-.972-.972c0-.535.438-.972.972-.972h4.861c.535 0 .972.437.972.972a.975.975 0 01-.972.972zm-9.721 0h-4.861a.975.975 0 01-.972-.972c0-.535.437-.972.972-.972h4.861c.534 0 .972.437.972.972a.976.976 0 01-.972.972zm-9.722 0h-4.86a.976.976 0 01-.973-.972c0-.535.438-.972.973-.972h4.86c.535 0 .972.437.972.972a.975.975 0 01-.972.972zm-9.721 0h-4.861a.975.975 0 01-.972-.972c0-.535.437-.972.972-.972h4.861c.534 0 .972.437.972.972a.976.976 0 01-.972.972zm-9.722 0h-4.86a.975.975 0 01-.972-.972c0-.535.437-.972.972-.972h4.86c.535 0 .973.437.973.972a.976.976 0 01-.973.972zm-9.721 0h-4.861a.976.976 0 01-.972-.972c0-.535.438-.972.972-.972h4.861c.535 0 .972.437.972.972a.975.975 0 01-.972.972z" fill="#1DB86A"/></g><path d="M611.355 677.673H374.183c-6.445 0-11.282-4.589-10.037-9.513l3.043-12.035c.913-3.621 4.899-6.275 9.629-6.426l228.646-7.135c4.944-.156 9.318 2.469 10.392 6.231l5.488 19.171c1.419 4.977-3.441 9.707-9.989 9.707z" fill="#F2F2F2"/><path d="M106.54 714.13l70.149-46.847a29.521 29.521 0 0116.016-4.968c63.699-.783 456.301-5.152 547.138 4.481a21.877 21.877 0 0111.933 5.163l49.19 42.171H106.54z" fill="#E7E7E7"/><path d="M108.314 720.098l-1.774-5.973h694.421l-2.94 5.599a11.733 11.733 0 01-10.388 6.275H116.227a8.241 8.241 0 01-7.913-5.901zm41.797-20.964l36.989-25.869a19.56 19.56 0 0111.301-3.534l523.307 2.163a29.115 29.115 0 0119.049 7.204l19.34 16.925c2.717 2.377 1.05 6.849-2.556 6.868l-605.16 3.373c-3.845.02-5.42-4.928-2.27-7.13z" fill="#CFCFCF"/><path d="M739.055 679.288c1.055 0 1.872-.049 1.814-.097-.059-.054.908-.472 0-1.011l-17.271-5.935a25.543 25.543 0 00-3.805-.365l-8.857-1.03c-1.054-.005-1.113 1.653-.442 2.464l3.743 4.535c.671.812 2.085 1.478 3.14 1.478l21.678-.039zm-31.633 5.386c-.671-.812-2.085-1.478-3.14-1.478l-32.192-.914c-1.055 0-1.094 1.702-.515 2.586l2.843 4.321c.579.88 1.92 1.604 2.975 1.6l33.106-.068c1.055 0 1.458-1.566.787-2.377l-3.864-3.67zm-6.304-5.309c1.054 0 1.487-1.521.811-2.338l-3.922-3.757c-.671-.812-2.085-1.483-3.14-1.487l-30.365-1.109c-1.055-.005-1.152 1.702-.569 2.581l3.009 4.574c.579.88 1.92 1.604 2.975 1.599l31.201-.063zm-82.758 5.712c-.486-.938-1.745-1.701-2.8-1.701l-27.448-.7c-1.055 0-1.172 1.57-.812 2.566l1.419 3.923c.36.991 1.517 1.803 2.571 1.798l28.168-.058c1.055 0 1.614-1.565 1.128-2.503l-2.226-3.325zm41.743-.184c-.578-.88-1.92-1.599-2.974-1.599l-27.39-.895c-1.055 0-1.07 1.721-.584 2.659l2.134 4.122c.486.938 1.745 1.701 2.8 1.701l27.993-.058c1.054 0 1.443-1.735.865-2.615l-2.844-3.315zM532.7 679.711c1.055 0 1.779-1.497 1.55-2.527l-1.113-4.195c-.228-1.031-1.278-1.876-2.333-1.881l-27.905-.117a1.81 1.81 0 00-1.828 1.91l.243 4.958a2.042 2.042 0 002.013 1.915l29.373-.063zm40.436-.083c1.055 0 1.711-1.492 1.351-2.484l-1.803-4.064c-.36-.991-1.517-1.808-2.571-1.813l-26.248-.627c-1.055-.004-1.123 1.356-.894 2.387l1.054 4.783c.229 1.03 1.279 1.871 2.334 1.871l26.777-.053zm40.436-.083c1.055 0 1.594-1.608 1.108-2.542l-2.503-3.859c-.486-.938-1.745-1.706-2.8-1.711l-25.625-.787c-1.055-.005-1.201 1.487-.841 2.478l1.691 4.676c.36.992 1.517 1.804 2.572 1.799l26.398-.054zm41.034-.082c1.055 0 1.444-1.735.865-2.615l-3.057-3.635c-.579-.88-1.92-1.609-2.975-1.609l-25.786-.948c-1.055-.005-1.132 1.599-.646 2.537l2.396 4.627c.486.939 1.745 1.702 2.8 1.702l26.403-.059zm-118.722 5.954c-.229-1.03-1.279-1.871-2.334-1.871l-30.039.063a1.82 1.82 0 00-1.827 1.92l.18 3.704a2.041 2.041 0 002.012 1.915l31.337-.063c1.055 0 1.769-1.352 1.541-2.382l-.87-3.286zm-325.729.174c.729-.763.646-2.381-.409-2.381l-36.484 1.069c-1.055 0-2.625.501-3.49 1.103l-7.665 4.351c-.865.602-.71 2.109.345 2.104l39.882-.082c1.055 0 2.518-.627 3.247-1.39l4.574-4.774zm45.763.024c.656-.826.505-2.503-.549-2.498l-28.654 1.055c-1.055 0-2.518.627-3.247 1.39l-4.574 3.772c-.729.763-.462 2.396.593 2.391l29.738-.058c1.055 0 2.454-.681 3.111-1.512l3.582-4.54zm233.964-5.816a1.821 1.821 0 001.828-1.92l-.243-5.017c-.053-1.054-.958-1.92-2.012-1.924l-25.82-.107c-1.055-.005-2.008.85-2.11 1.9l-.52 5.216c-.107 1.05.671 1.91 1.73 1.905l27.147-.053zm233.736 9.414c.671.811 2.085 1.477 3.14 1.477l25.266-.053c1.055 0 1.541-1.298.748-1.993l-5.973-4.268c-.793-.695-2.309-1.264-3.364-1.259l-23.234-.821c-1.055 0-1.021 1.536-.35 2.348l3.767 4.569zm-324.694-3.539c.277-1.021.117-2.557-.938-2.557l-35.08.778c-1.054 0-2.274.792-2.712 1.75l-1.964 3.489c-.437.963.205 2.304 1.259 2.299l35.979-.072c1.055 0 2.144-.836 2.421-1.857l1.035-3.83zm51.659-.047c.107-1.05-.67-1.911-1.73-1.906l-37.568.078c-1.055 0-2.144.836-2.421 1.857L407.775 689c-.277 1.021.418 2.343 1.473 2.343l38.852-.078c1.054 0 2.007-.865 2.109-1.915l.374-3.723zm41.496-.079a2.04 2.04 0 00-2.012-1.915l-27.725.058c-1.055 0-2.008.865-2.11 1.915l-.369 3.719c-.107 1.05.67 1.91 1.73 1.905l28.848-.058a1.821 1.821 0 001.828-1.92l-.19-3.704zm-142.427.121c.437-.963.325-2.552-.73-2.552l-29.407.865c-1.055 0-2.367.744-2.911 1.648l-2.654 3.645c-.545.905-.049 2.256 1.006 2.256l30.151-.063c1.055 0 2.275-.793 2.712-1.755l1.833-4.044zm227.446-.407c-.36-.991-1.517-1.803-2.572-1.798l-27.9-.467c-1.055 0-1.147 1.366-.919 2.397l.836 3.786c.229 1.031 1.279 1.872 2.334 1.872l28.376-.059c1.055 0 1.711-1.497 1.351-2.488l-1.506-3.243zm-271.713.392c.545-.904.375-2.537-.68-2.537l-33.422.962c-1.055 0-2.455.681-3.111 1.512l-3.587 3.529c-.656.826-.326 2.513.729 2.513l34.588-.073c1.055 0 2.368-.744 2.912-1.648l2.571-4.258zm198.681 9.329a1.82 1.82 0 00-1.828 1.92l.267 5.492a2.03 2.03 0 002.013 1.906l33.572-.19c1.055-.005 1.779-1.4 1.551-2.435l-1.245-4.895c-.228-1.03-1.278-1.871-2.333-1.871l-31.997.073zm-42.862.088c-1.055 0-2.007.865-2.109 1.915l-.569 5.663c-.107 1.05.671 1.905 1.73 1.901l30.822-.171a1.83 1.83 0 001.828-1.929l-.268-5.527a2.04 2.04 0 00-2.012-1.915l-29.422.063zm87.969-.885c-1.055 0-1.186 1.551-.958 2.581l1.196 5.405c.228 1.031 1.278 1.872 2.333 1.862l30.165-.17c1.055-.005 1.716-1.478 1.357-2.469l-2.052-4.769c-.359-.991-1.516-1.803-2.571-1.798l-29.47-.642zm-99.931-14.305c1.055 0 2.008-.865 2.11-1.915l.53-5.279c.106-1.05-.671-1.915-1.731-1.92l-35.308-.146c-1.055-.005-2.143.826-2.421 1.847l-1.584 5.128c-.277 1.021.428 2.358 1.482 2.358l36.922-.073zm186.446 14.11c-1.055 0-1.137 1.493-.651 2.426l2.809 5.429c.486.938 1.745 1.701 2.8 1.692l29.689-.166c1.055-.004 1.551-1.555.967-2.44l-3.728-4.685c-.578-.88-1.92-1.604-2.974-1.599l-28.912-.657zm43.877-.343c-1.054 0-1.098 1.706-.515 2.586l3.597 5.468c.578.88 1.92 1.599 2.975 1.594l35.089-.194c1.055-.005 1.468-1.551.797-2.367l-4.705-4.701c-.671-.811-2.085-1.477-3.14-1.477l-34.098-.909zm80.829 3.26c-.612.214-2.936-2.445-3.991-2.445l-26.767-.923c-1.055 0-1.08 1.647-.404 2.459l4.569 5.531c.671.812 2.085 1.473 3.14 1.468l18.685-.102c.826-.004 1.944-.354 2.775-.836.389-.223.676-.598.831-1.02l1.167-3.126c-.165-1.035.073-1.03-.005-1.006zm-168.005-3.086c-1.055 0-1.337 1.799-.977 2.79l1.949 5.386c.36.992 1.517 1.798 2.572 1.794l30.102-.171c1.055-.004 1.609-1.594 1.123-2.532l-2.917-4.652c-.486-.938-1.745-1.701-2.8-1.701l-29.052-.914zM350.264 680.08c1.055 0 2.275-.792 2.712-1.75l2.805-6.197c.437-.962.277-2.703-.778-2.707l-27.196.84c-1.054-.004-2.367.73-2.911 1.634l-4.141 5.92c-.545.904.029 2.318 1.083 2.314l28.426-.054zm-43.489.093c1.055 0 2.367-.744 2.912-1.648l4.024-6.669c.545-.904.521-2.426-.534-2.43l-30.822.651c-1.055-.005-2.454.671-3.111 1.497l-5.794 6.348c-.656.826-.194 2.319.861 2.314l32.464-.063zm-48.548.096c1.055 0 2.454-.68 3.111-1.511l5.721-7.233c.656-.826.675-2.455-.38-2.455l-26.301.836c-1.054-.005-2.518.618-3.247 1.381l-7.485 6.839c-.729.763-.306 2.206.748 2.206l27.833-.063z" fill="#E2E2E2"/><path d="M312.642 695.367c-1.054.005-2.367.749-2.911 1.653l-4.078 6.751c-.545.904-.127 1.638.928 1.633l159.499-.831c1.054-.005 2.274-.797 2.712-1.76l2.902-6.411c.437-.962-.073-1.745-1.128-1.74l-157.924.705zm85.898-15.384c1.055 0 2.144-.836 2.421-1.857l1.536-5.696c.277-1.021.107-2.504-.948-2.508l-32.538.515c-1.054-.005-2.274.778-2.712 1.74l-2.882 5.434c-.438.963.18 2.445 1.234 2.445l33.889-.073zm-185.294.379c1.055 0 2.518-.627 3.247-1.39l7.412-7.743c.73-.763.73-2.328-.325-2.333l-23.249.846a29.57 29.57 0 00-3.816.281l-7.679 2.402a28.95 28.95 0 00-3.296 1.944l-7.364 4.161a1.035 1.035 0 00.603 1.9l34.467-.068zm49.025 15.117c-1.055 0-2.455.681-3.111 1.512l-5.706 7.213c-.657.826-.326 1.502.729 1.497l37.31-.209c1.055-.005 2.368-.748 2.912-1.653l4.102-6.79c.545-.904.496-2.377-.559-2.377l-35.677.807zm-46.468.092c-1.055 0-2.518.627-3.247 1.39l-7.301 7.626c-.729.763-.462 1.381.593 1.376l32.212-.18c1.055-.005 2.455-.69 3.111-1.517l5.74-7.256c.657-.827.326-1.502-.729-1.502l-30.379.063zm-58.863.121c-1.055 0-2.62.501-3.485 1.104l-3.13 2.197c-.73.51-.516.86-.564 1.575-.025.335.009.675.111.996l.598 1.876c.404 1.264 1.386 2.294 2.664 2.644.408.112.812.175 1.162.171l34.355-.19c1.055-.005 2.518-.637 3.247-1.395l7.349-7.675c.729-.763.72-2.377-.34-2.377l-41.967 1.074z" fill="#E2E2E2"/><path d="M739.056 678.278c1.054 0 1.871-.048 1.813-.097-.059-.053-.851-.534-1.755-1.074l-15.511-5.867c-1.035-.194-2.751-.36-3.805-.364l-8.599-.034c-1.055-.005-1.371.656-.695 1.472l3.743 4.535c.67.812 2.085 1.478 3.14 1.478l21.669-.049zm-31.634 5.386c-.671-.812-2.085-1.478-3.14-1.478l-31.842.063c-1.055 0-1.444.725-.865 1.609l2.843 4.322c.578.879 1.92 1.604 2.975 1.599l33.106-.068c1.055 0 1.371-.671.695-1.483l-3.772-4.564zm-6.304-5.308c1.055 0 1.371-.671.695-1.483l-3.806-4.612c-.671-.812-2.085-1.483-3.14-1.488l-30.068-.126c-1.055-.005-1.444.714-.865 1.594l3.008 4.574c.579.88 1.92 1.604 2.975 1.599l31.201-.058zm-82.758 5.715c-.486-.938-1.745-1.701-2.8-1.701l-26.996.054c-1.055 0-1.624.816-1.264 1.808l1.419 3.922c.36.992 1.517 1.804 2.572 1.799l28.167-.058c1.055 0 1.522-.773 1.036-1.707l-2.134-4.117zm41.743-.184c-.578-.879-1.92-1.604-2.974-1.599l-26.938.054c-1.055 0-1.522.772-1.036 1.706l2.134 4.121c.486.939 1.745 1.702 2.8 1.702l27.993-.059c1.054 0 1.443-.724.865-1.608l-2.844-4.317zM532.7 678.7c1.054 0 1.735-.846 1.507-1.876l-1.07-4.846c-.228-1.031-1.278-1.876-2.333-1.881l-27.905-.117a1.81 1.81 0 00-1.828 1.91l.243 4.958a2.042 2.042 0 002.013 1.915l29.373-.063zm40.436-.082c1.055 0 1.624-.816 1.264-1.808l-1.716-4.739c-.36-.992-1.516-1.808-2.571-1.813l-25.64-.107c-1.055-.005-1.736.836-1.507 1.866l1.055 4.783c.228 1.031 1.278 1.872 2.333 1.872l26.782-.054zm40.436-.082c1.055 0 1.521-.773 1.035-1.706l-2.43-4.696c-.486-.938-1.745-1.706-2.8-1.711l-25.197-.102c-1.055-.005-1.624.802-1.264 1.799l1.691 4.676c.36.991 1.517 1.803 2.572 1.798l26.393-.058zm41.034-.084c1.055 0 1.444-.724.865-1.608l-3.057-4.647c-.579-.88-1.92-1.609-2.975-1.609l-25.397-.107c-1.055-.005-1.521.758-1.035 1.696l2.396 4.628c.486.938 1.745 1.701 2.8 1.701l26.403-.054zm-118.722 5.955c-.229-1.03-1.279-1.871-2.333-1.871l-30.039.063a1.82 1.82 0 00-1.828 1.92l.18 3.704a2.041 2.041 0 002.012 1.915l31.337-.063c1.055 0 1.735-.846 1.507-1.877l-.836-3.791zm-325.729.174c.729-.763.461-1.385-.593-1.38l-36.3.073c-1.055 0-2.625.501-3.49 1.103l-7.665 5.362c-.865.602-.71 1.098.345 1.093l39.882-.082c1.055 0 2.518-.627 3.247-1.391l4.574-4.778zm45.763.026c.656-.827.326-1.502-.729-1.502l-28.474.058c-1.055 0-2.518.627-3.247 1.39l-4.574 4.778c-.729.763-.462 1.385.593 1.381l29.738-.059c1.055 0 2.454-.68 3.111-1.511l3.582-4.535zm233.964-5.819a1.82 1.82 0 001.828-1.92l-.243-5.016c-.054-1.055-.958-1.92-2.012-1.925l-25.82-.107c-1.055-.005-2.008.851-2.11 1.901l-.52 5.215c-.107 1.05.671 1.91 1.73 1.905l27.147-.053zm233.736 9.415c.671.811 2.085 1.477 3.14 1.477l25.266-.053c1.055 0 1.268-.574.476-1.269l-5.706-4.992c-.793-.695-2.309-1.264-3.364-1.259l-22.884.049c-1.055 0-1.371.671-.695 1.482l3.767 4.565zm-324.694-3.538c.277-1.021-.364-1.852-1.419-1.848l-34.593.073c-1.055 0-2.275.793-2.713 1.75l-1.832 4.049c-.438.963.073 1.745 1.127 1.745l35.979-.073c1.055 0 2.144-.836 2.421-1.856l1.03-3.84zm51.659-.048c.107-1.05-.67-1.911-1.73-1.906l-37.568.078c-1.055 0-2.144.836-2.421 1.857l-1.035 3.835c-.277 1.02.364 1.852 1.419 1.847l38.852-.078c1.054 0 2.007-.865 2.109-1.915l.374-3.718zm41.496-.078a2.04 2.04 0 00-2.012-1.915l-27.725.058c-1.055 0-2.008.865-2.11 1.915l-.369 3.719c-.107 1.05.67 1.91 1.73 1.905l28.848-.058a1.822 1.822 0 001.828-1.92l-.19-3.704zm-142.428.121c.438-.963-.072-1.745-1.127-1.745l-29.009.058c-1.055 0-2.367.744-2.911 1.648l-2.572 4.262c-.544.905-.126 1.643.929 1.639l30.151-.064c1.054 0 2.274-.792 2.712-1.754l1.827-4.044zm227.447-.403c-.36-.992-1.517-1.804-2.572-1.799l-27.317.054c-1.055 0-1.735.845-1.507 1.876l.836 3.786c.229 1.031 1.279 1.872 2.334 1.872l28.376-.059c1.055 0 1.624-.816 1.264-1.808l-1.414-3.922zm-271.713.388c.545-.904.127-1.643-.928-1.638l-33.174.068c-1.055 0-2.455.681-3.111 1.512l-3.587 4.54c-.656.826-.326 1.502.729 1.502l34.588-.073c1.055 0 2.368-.744 2.912-1.648l2.571-4.263zm198.681 9.328a1.82 1.82 0 00-1.828 1.92l.267 5.492a2.03 2.03 0 002.013 1.906l33.572-.19c1.055-.005 1.735-.855 1.507-1.886l-1.201-5.444c-.228-1.03-1.278-1.871-2.333-1.871l-31.997.073zm45.656-.094c-1.055 0-1.735.846-1.507 1.877l1.196 5.405c.228 1.03 1.278 1.871 2.333 1.861l30.166-.17c1.054-.005 1.623-.821 1.263-1.813l-1.963-5.424c-.36-.992-1.517-1.804-2.572-1.799l-28.916.063zm-100.48-15.008c1.055 0 2.007-.865 2.11-1.915l.529-5.279c.107-1.05-.67-1.915-1.73-1.92l-35.308-.146c-1.055-.005-2.144.827-2.421 1.847l-1.521 5.634c-.277 1.021.364 1.852 1.419 1.847l36.922-.068zm186.83 14.836c-1.055 0-1.521.773-1.035 1.706l2.809 5.43c.486.938 1.745 1.701 2.8 1.691l29.689-.165c1.055-.005 1.444-.734.865-1.614l-3.626-5.507c-.578-.88-1.92-1.604-2.974-1.599l-28.528.058zm43.839-.095c-1.055 0-1.444.724-.866 1.609l3.597 5.468c.579.88 1.92 1.6 2.975 1.595l35.089-.195c1.055-.005 1.371-.675.695-1.492l-4.603-5.575c-.67-.812-2.085-1.478-3.14-1.478l-33.747.068zm79.297.623c-.491-.427-1.755-.777-2.81-.777l-26.476.053c-1.055 0-1.371.671-.695 1.483l4.569 5.531c.671.812 2.085 1.473 3.14 1.468l18.684-.102c.754-.005 1.741-.292 2.538-.705a2.337 2.337 0 001.108-1.263l1.123-3.009c-.156-1.045-.69-2.251-1.181-2.679z" fill="#E7E7E7"/><path d="M357.754 694.274c-1.055 0-2.275.792-2.712 1.75l-2.887 6.372c-.438.963.073 1.745 1.127 1.74l38.531-.214c1.055-.004 2.144-.845 2.421-1.861l1.623-6.008c.277-1.021-.365-1.852-1.419-1.847l-36.684.068z" fill="#CFCFCF"/><path d="M592.676 693.793c-1.055 0-1.624.817-1.264 1.808l1.949 5.386c.36.991 1.517 1.798 2.572 1.793l30.102-.17c1.055-.005 1.521-.777 1.035-1.716l-2.829-5.463c-.486-.938-1.745-1.701-2.8-1.701l-28.765.063zm-242.412-14.719c1.055 0 2.275-.792 2.712-1.75l2.805-6.197c.437-.962-.073-1.75-1.128-1.755l-26.85-.111c-1.055-.005-2.367.729-2.912 1.633l-3.986 6.601c-.544.904-.126 1.642.929 1.638l28.43-.059zm-43.489.088c1.055 0 2.368-.743 2.912-1.648l4.025-6.668c.544-.904.126-1.648-.929-1.653l-30.423-.126c-1.055-.005-2.454.67-3.111 1.497l-5.657 7.159c-.657.827-.326 1.502.729 1.502l32.454-.063zm-48.548.102c1.055 0 2.455-.68 3.111-1.511l5.721-7.233c.656-.826.325-1.507-.729-1.512l-25.952-.107c-1.054-.004-2.517.618-3.246 1.381l-7.33 7.66c-.729.763-.462 1.386.593 1.381l27.832-.059zm234.674 22.175l-.268-5.527a2.04 2.04 0 00-2.012-1.915l-29.417.058c-.17 0-.335.03-.496.073l-148.066.234c-1.055 0-2.367.743-2.911 1.647l-4.079 6.752c-.544.904-.126 1.638.929 1.633l183.782-.782c.428-.073.729-.166.958-.273a1.814 1.814 0 001.58-1.9zm-94.361-22.462c1.055 0 2.144-.836 2.421-1.857l1.536-5.696c.277-1.021-.365-1.857-1.42-1.862l-32.07-.131c-1.055-.005-2.275.777-2.713 1.74l-2.775 6.129c-.438.963.073 1.745 1.128 1.745l33.893-.068zm-185.294.375c1.055 0 2.518-.627 3.247-1.39l7.413-7.743c.729-.763.461-1.39-.593-1.395l-22.987-.093a29.556 29.556 0 00-3.815.282l-7.68 2.401a29.194 29.194 0 00-3.296 1.945l-7.106 4.967c-.865.603-.71 1.099.345 1.094l34.472-.068zm49.025 15.116c-1.055 0-2.455.681-3.111 1.512l-5.706 7.213c-.657.827-.326 1.502.729 1.498l37.31-.209c1.055-.005 2.367-.749 2.912-1.653l4.102-6.791c.545-.904.127-1.642-.928-1.638l-35.308.068zm-46.468.094c-1.055 0-2.518.627-3.247 1.39l-7.301 7.626c-.729.763-.462 1.381.593 1.376l32.212-.18c1.055-.005 2.454-.69 3.111-1.516l5.74-7.258c.656-.826.326-1.501-.729-1.501l-30.379.063zm-58.853.121c-1.055 0-2.625.5-3.49 1.103l-1.77 1.239c-.685.477-1.385 1.415-1.764 2.3-.17.398-.17.845-.039 1.258l.544 1.707c.457 1.438 1.629 2.59 3.116 2.877.267.054.525.078.758.078l34.356-.19c1.054-.005 2.518-.636 3.247-1.395l7.349-7.675c.729-.763.462-1.385-.593-1.38l-41.714.078z" fill="#E7E7E7"/><path d="M452.183 336.452c6.209 0 11.243-5.033 11.243-11.242 0-6.21-5.034-11.243-11.243-11.243-6.209 0-11.243 5.033-11.243 11.243 0 6.209 5.034 11.242 11.243 11.242zm6.448-202.368c6.096-1.177 10.085-7.074 8.907-13.171-1.177-6.097-7.074-10.085-13.171-8.908-6.096 1.178-10.085 7.074-8.907 13.171 1.177 6.097 7.074 10.085 13.171 8.908z" fill="#424242"/><path d="M627.736 377.977c-.977.763-4.316-.831-6.363-1.93a2.355 2.355 0 01-1.137-2.78c.491-1.551 1.312-3.558 2.323-3.811 1.677-.418 9.197 5.381 5.177 8.521z" fill="url(#paint0_linear)"/><path d="M792.314 425.116l-255.24-90.773-13.502 37.51 255.151 93.31c5.42 1.983 11.467-.214 14.373-5.201 2.985-5.123 5.833-13.124 6.003-25.11a10.202 10.202 0 00-6.785-9.736z" fill="#1DB86A"/><path d="M458.108 324.646l35.259 4.331c-.039 4.851-1.628 11.131-7.004 18.334l-29.446-19.423c-1.56-1.036-.666-3.471 1.191-3.242z" fill="#424242"/><path d="M537.074 334.343c1.614 23.506-13.503 37.51-13.503 37.51l-37.208-24.547c5.381-7.203 6.965-13.478 7.004-18.334l43.707 5.371z" fill="#fff"/><path d="M449.014 328.023h-4.861a.974.974 0 01-.972-.972c0-.534.437-.972.972-.972h4.861a.972.972 0 110 1.944zm-9.722 0h-4.86a.975.975 0 01-.973-.972c0-.534.438-.972.973-.972h4.86a.971.971 0 110 1.944zm-9.721 0h-4.861a.975.975 0 01-.972-.972c0-.534.438-.972.972-.972h4.861a.971.971 0 110 1.944zm-9.721 0h-4.861a.974.974 0 01-.972-.972c0-.534.437-.972.972-.972h4.861a.972.972 0 110 1.944zm-9.722 0h-4.861a.975.975 0 01-.972-.972c0-.534.438-.972.972-.972h4.861a.971.971 0 110 1.944zm-9.721 0h-4.861a.974.974 0 01-.972-.972c0-.534.437-.972.972-.972h4.861a.972.972 0 110 1.944zm-9.722 0h-4.86a.974.974 0 01-.972-.972c0-.534.437-.972.972-.972h4.86a.972.972 0 110 1.944zm-9.721 0h-4.861a.975.975 0 01-.972-.972c0-.534.438-.972.972-.972h4.861a.971.971 0 110 1.944zm-9.721 0h-4.861a.974.974 0 01-.972-.972c0-.534.437-.972.972-.972h4.861a.972.972 0 110 1.944zm-9.722 0h-4.86a.975.975 0 01-.973-.972c0-.534.438-.972.973-.972h4.86a.971.971 0 110 1.944zm-9.721 0h-4.861a.975.975 0 01-.972-.972c0-.534.438-.972.972-.972h4.861a.971.971 0 110 1.944zm-9.721 0h-4.861a.974.974 0 01-.972-.972c0-.534.437-.972.972-.972h4.861a.972.972 0 110 1.944zm-9.722 0h-4.86a.975.975 0 01-.973-.972c0-.534.438-.972.973-.972h4.86a.971.971 0 110 1.944zm-9.721 0h-4.861a.974.974 0 01-.972-.972c0-.534.437-.972.972-.972h4.861a.972.972 0 110 1.944zm-9.722 0h-4.86a.974.974 0 01-.972-.972c0-.534.437-.972.972-.972h4.86a.972.972 0 110 1.944zm-9.721 0h-4.861a.975.975 0 01-.972-.972c0-.534.438-.972.972-.972h4.861a.971.971 0 110 1.944zm-9.721 0h-4.861a.974.974 0 01-.972-.972c0-.534.437-.972.972-.972h4.861a.972.972 0 110 1.944zm-9.722 0h-4.86a.974.974 0 01-.972-.972c0-.534.437-.972.972-.972h4.86a.971.971 0 110 1.944zm-9.721 0h-4.861a.975.975 0 01-.972-.972c0-.534.438-.972.972-.972h4.861a.971.971 0 110 1.944zm-9.721 0h-4.861a.974.974 0 01-.972-.972c0-.534.437-.972.972-.972h4.861a.972.972 0 110 1.944zm-9.722 0h-4.86a.975.975 0 01-.973-.972c0-.534.438-.972.973-.972h4.86a.971.971 0 110 1.944zm197.626-1.691h-.02a.972.972 0 01-.952-.992l.092-4.86a.971.971 0 01.972-.953h.02c.534.01.962.452.952.992l-.092 4.86a.971.971 0 01-.972.953zm.189-9.717h-.019a.972.972 0 01-.953-.991l.093-4.861a.97.97 0 01.972-.953h.019c.535.01.963.452.953.992l-.092 4.861a.978.978 0 01-.973.952zm.185-9.721h-.019a.972.972 0 01-.953-.992l.092-4.86a.973.973 0 011.945.039l-.093 4.86a.97.97 0 01-.972.953zm.19-9.721h-.02a.972.972 0 01-.952-.992l.092-4.861a.988.988 0 01.992-.952.971.971 0 01.952.991l-.092 4.861a.978.978 0 01-.972.953zm.184-9.717h-.019a.973.973 0 01-.953-.991l.093-4.861a.97.97 0 01.972-.953h.019c.535.01.963.452.953.992l-.092 4.86a.972.972 0 01-.973.953zm412.911-3.485a.972.972 0 01-.972-.962l-.039-4.861a.975.975 0 01.967-.982h.005c.535 0 .967.433.972.963l.039 4.86a.976.976 0 01-.967.982h-.005zm-412.726-6.236h-.019a.972.972 0 01-.953-.992l.092-4.86c.01-.535.477-.973.992-.953.535.01.962.452.953.991l-.093 4.861a.97.97 0 01-.972.953zm412.653-3.485a.973.973 0 01-.972-.963l-.039-4.86a.976.976 0 01.967-.982.973.973 0 01.977.962l.039 4.861a.977.977 0 01-.967.982h-.005zm-412.463-6.237h-.02a.971.971 0 01-.952-.991l.092-4.861a.971.971 0 01.972-.953h.02c.534.01.962.453.952.992l-.092 4.861a.977.977 0 01-.972.952zm412.39-3.485a.972.972 0 01-.972-.962l-.039-4.861a.977.977 0 01.967-.982h.005c.535 0 .967.433.972.963l.039 4.86a.976.976 0 01-.967.982h-.005zm-412.206-6.231h-.019a.973.973 0 01-.953-.992l.093-4.86a.97.97 0 01.972-.953h.019c.535.01.963.452.953.992l-.092 4.86a.972.972 0 01-.973.953zm412.133-3.49a.973.973 0 01-.972-.962l-.039-4.861a.976.976 0 01.967-.982h.005c.535 0 .967.433.972.962l.039 4.861a.976.976 0 01-.967.982h-.005zm-411.948-6.231h-.019a.972.972 0 01-.953-.992l.092-4.861a.971.971 0 01.973-.952h.019a.972.972 0 01.953.991l-.093 4.861a.97.97 0 01-.972.953zm411.875-3.49a.973.973 0 01-.972-.963l-.039-4.861a.975.975 0 01.967-.981c.54.014.977.427.977.962l.039 4.861a.976.976 0 01-.967.982h-.005zm-411.685-6.227h-.02a.972.972 0 01-.952-.992l.092-4.86a.98.98 0 01.992-.953c.534.01.962.452.952.992l-.092 4.86a.974.974 0 01-.972.953zm411.607-3.495a.973.973 0 01-.972-.962l-.039-4.861a.976.976 0 01.968-.982h.004c.535 0 .968.433.973.963l.038 4.86a.975.975 0 01-.967.982h-.005zm-411.423-6.226h-.019a.973.973 0 01-.953-.992l.093-4.861c.009-.539.471-.981.991-.952a.971.971 0 01.953.991l-.092 4.861a.972.972 0 01-.973.953zm411.35-3.495a.974.974 0 01-.972-.963l-.039-4.86a.977.977 0 01.968-.982h.005c.534 0 .967.432.972.962l.039 4.861a.977.977 0 01-.968.982h-.005zm-411.16-6.227h-.019a.971.971 0 01-.953-.991l.092-4.861a.972.972 0 01.972-.953h.02c.534.01.962.452.953.992l-.093 4.861a.977.977 0 01-.972.952zm411.087-3.495a.973.973 0 01-.972-.962l-.039-4.861a.976.976 0 01.968-.981h.005c.534 0 .967.432.972.962l.039 4.861a.976.976 0 01-.968.981h-.005zM454.453 209.7h-.02a.972.972 0 01-.952-.992l.092-4.86a.971.971 0 01.972-.953h.019c.535.01.963.452.953.991l-.092 4.861a.972.972 0 01-.972.953zm410.83-3.5a.973.973 0 01-.973-.962l-.038-4.861a.975.975 0 01.967-.982h.005c.534 0 .967.433.972.963l.039 4.86a.976.976 0 01-.968.982h-.004zm-410.646-6.222h-.019a.972.972 0 01-.953-.991l.093-4.861a.978.978 0 01.991-.953c.535.01.963.453.953.992l-.092 4.861a.971.971 0 01-.973.952zm410.573-3.499a.972.972 0 01-.972-.963l-.039-4.86a.974.974 0 01.962-.982h.01c.534 0 .967.432.972.962l.039 4.861a.975.975 0 01-.963.982h-.009zm-410.383-6.222h-.019a.972.972 0 01-.953-.992l.092-4.86a.972.972 0 01.972-.953h.02c.534.01.962.452.952.992l-.092 4.86a.977.977 0 01-.972.953zm410.31-3.5a.972.972 0 01-.972-.962l-.039-4.861a.977.977 0 01.967-.982.95.95 0 01.977.963l.039 4.861a.975.975 0 01-.967.981h-.005zm-410.125-6.216h-.02a.972.972 0 01-.952-.992l.092-4.861a.97.97 0 01.972-.952h.019a.971.971 0 01.953.991l-.092 4.861a.972.972 0 01-.972.953zm410.052-3.505a.973.973 0 01-.972-.962l-.039-4.861a.975.975 0 01.962-.982h.01c.535 0 .967.433.972.962l.039 4.861a.975.975 0 01-.962.982h-.01zm-409.863-6.217h-.019a.972.972 0 01-.953-.991l.092-4.861a.972.972 0 01.973-.953h.019c.535.01.962.452.953.992l-.093 4.861a.977.977 0 01-.972.952zm409.79-3.504a.973.973 0 01-.972-.963l-.039-4.86a.976.976 0 01.967-.982h.005c.535 0 .967.432.972.962l.039 4.861a.977.977 0 01-.967.982h-.005zm-409.605-6.217h-.019a.972.972 0 01-.953-.992l.092-4.86a.972.972 0 01.972-.953h.02c.534.01.962.452.952.991l-.092 4.861a.974.974 0 01-.972.953zm409.532-3.505a.972.972 0 01-.972-.962l-.039-4.861a.976.976 0 01.962-.982h.01c.535 0 .967.433.972.963l.039 4.86a.975.975 0 01-.962.982h-.01zm-409.347-6.212h-.02a.971.971 0 01-.952-.991l.092-4.861a.971.971 0 01.972-.953h.019c.535.01.963.452.953.992l-.092 4.861a.972.972 0 01-.972.952zm409.274-3.509a.973.973 0 01-.972-.963l-.039-4.86a.976.976 0 01.967-.982c.525.01.977.428.977.962l.039 4.861a.975.975 0 01-.967.982h-.005zM455.76 141.66h-.019a.972.972 0 01-.953-.992l.092-4.86a.973.973 0 011.945.039l-.093 4.86a.977.977 0 01-.972.953zm409.012-3.509a.974.974 0 01-.972-.963l-.039-4.861a.974.974 0 01.963-.981h.009c.535 0 .968.432.973.962l.038 4.861a.975.975 0 01-.962.982h-.01zm-408.827-6.208h-.02a.971.971 0 01-.952-.991l.092-4.861a.971.971 0 01.972-.953h.02c.534.01.962.453.952.992l-.092 4.861a.974.974 0 01-.972.952zm408.749-3.514a.973.973 0 01-.972-.962l-.039-4.861a.977.977 0 01.968-.982h.005c.534 0 .967.433.972.963l.039 4.86a.977.977 0 01-.968.982h-.005zm-4.345-5.41h-4.861a.975.975 0 01-.972-.972c0-.535.438-.972.972-.972h4.861c.535 0 .972.437.972.972a.974.974 0 01-.972.972zm-9.721 0h-4.861a.974.974 0 01-.972-.972c0-.535.437-.972.972-.972h4.861c.534 0 .972.437.972.972a.975.975 0 01-.972.972zm-9.722 0h-4.86a.975.975 0 01-.973-.972c0-.535.438-.972.973-.972h4.86c.535 0 .972.437.972.972a.974.974 0 01-.972.972zm-9.721 0h-4.861a.975.975 0 01-.972-.972c0-.535.438-.972.972-.972h4.861c.535 0 .972.437.972.972a.974.974 0 01-.972.972zm-9.721 0h-4.861a.974.974 0 01-.972-.972c0-.535.437-.972.972-.972h4.861c.534 0 .972.437.972.972a.975.975 0 01-.972.972zm-9.722 0h-4.861a.975.975 0 01-.972-.972c0-.535.438-.972.972-.972h4.861c.535 0 .972.437.972.972a.974.974 0 01-.972.972zm-9.721 0h-4.861a.974.974 0 01-.972-.972c0-.535.437-.972.972-.972h4.861c.534 0 .972.437.972.972a.975.975 0 01-.972.972zm-9.722 0h-4.86a.974.974 0 01-.972-.972c0-.535.437-.972.972-.972h4.86c.535 0 .973.437.973.972a.975.975 0 01-.973.972zm-9.721 0h-4.861a.975.975 0 01-.972-.972c0-.535.438-.972.972-.972h4.861c.535 0 .972.437.972.972a.974.974 0 01-.972.972zm-9.721 0h-4.861a.974.974 0 01-.972-.972c0-.535.437-.972.972-.972h4.861c.534 0 .972.437.972.972a.975.975 0 01-.972.972zm-9.722 0h-4.86a.974.974 0 01-.972-.972c0-.535.437-.972.972-.972h4.86c.535 0 .972.437.972.972a.974.974 0 01-.972.972zm-9.721 0h-4.861a.975.975 0 01-.972-.972c0-.535.438-.972.972-.972h4.861c.535 0 .972.437.972.972a.974.974 0 01-.972.972zm-9.721 0h-4.861a.974.974 0 01-.972-.972c0-.535.437-.972.972-.972h4.861c.534 0 .972.437.972.972a.975.975 0 01-.972.972zm-9.722 0h-4.86a.975.975 0 01-.973-.972c0-.535.438-.972.973-.972h4.86c.535 0 .972.437.972.972a.974.974 0 01-.972.972zm-9.721 0h-4.861a.974.974 0 01-.972-.972c0-.535.437-.972.972-.972h4.861c.535 0 .972.437.972.972a.974.974 0 01-.972.972zm-9.721 0h-4.861a.974.974 0 01-.972-.972c0-.535.437-.972.972-.972h4.861c.534 0 .972.437.972.972a.975.975 0 01-.972.972zm-9.722 0h-4.861a.975.975 0 01-.972-.972c0-.535.438-.972.972-.972h4.861c.535 0 .972.437.972.972a.974.974 0 01-.972.972zm-9.721 0h-4.861a.974.974 0 01-.972-.972c0-.535.437-.972.972-.972h4.861c.534 0 .972.437.972.972a.975.975 0 01-.972.972zm-9.722 0h-4.86a.974.974 0 01-.972-.972c0-.535.437-.972.972-.972h4.86c.535 0 .973.437.973.972a.975.975 0 01-.973.972zm-9.721 0h-4.861a.975.975 0 01-.972-.972c0-.535.438-.972.972-.972h4.861c.535 0 .972.437.972.972a.974.974 0 01-.972.972zm-9.721 0h-4.861a.974.974 0 01-.972-.972c0-.535.437-.972.972-.972h4.861c.534 0 .972.437.972.972a.975.975 0 01-.972.972zm-9.722 0h-4.86a.975.975 0 01-.973-.972c0-.535.438-.972.973-.972h4.86c.535 0 .972.437.972.972a.974.974 0 01-.972.972zm-9.721 0h-4.861a.975.975 0 01-.972-.972c0-.535.438-.972.972-.972h4.861c.535 0 .972.437.972.972a.974.974 0 01-.972.972zm-9.721 0h-4.861a.974.974 0 01-.972-.972c0-.535.437-.972.972-.972h4.861c.534 0 .972.437.972.972a.975.975 0 01-.972.972zm-9.722 0h-4.861a.975.975 0 01-.972-.972c0-.535.438-.972.972-.972h4.861c.535 0 .972.437.972.972a.974.974 0 01-.972.972zm-9.721 0h-4.861a.974.974 0 01-.972-.972c0-.535.437-.972.972-.972h4.861c.534 0 .972.437.972.972a.975.975 0 01-.972.972zm-9.722 0h-4.86a.974.974 0 01-.972-.972c0-.535.437-.972.972-.972h4.86c.535 0 .973.437.973.972a.975.975 0 01-.973.972zm-9.721 0h-4.861a.975.975 0 01-.972-.972c0-.535.438-.972.972-.972h4.861c.535 0 .972.437.972.972a.974.974 0 01-.972.972zm-9.721 0h-4.861a.974.974 0 01-.972-.972c0-.535.437-.972.972-.972h4.861c.534 0 .972.437.972.972a.975.975 0 01-.972.972zm-9.722 0h-4.86a.975.975 0 01-.973-.972c0-.535.438-.972.973-.972h4.86c.535 0 .972.437.972.972a.974.974 0 01-.972.972zm-9.721 0h-4.861a.975.975 0 01-.972-.972c0-.535.438-.972.972-.972h4.861c.535 0 .972.437.972.972a.974.974 0 01-.972.972zm-9.721 0h-4.861a.974.974 0 01-.972-.972c0-.535.437-.972.972-.972h4.861c.534 0 .972.437.972.972a.975.975 0 01-.972.972zm-9.722 0h-4.86a.975.975 0 01-.973-.972c0-.535.438-.972.973-.972h4.86c.535 0 .972.437.972.972a.974.974 0 01-.972.972zm-9.721 0h-4.861a.974.974 0 01-.972-.972c0-.535.437-.972.972-.972h4.861c.535 0 .972.437.972.972a.974.974 0 01-.972.972zm-9.722 0h-4.86a.974.974 0 01-.972-.972c0-.535.437-.972.972-.972h4.86c.535 0 .973.437.973.972a.975.975 0 01-.973.972zm-9.721 0h-4.861a.975.975 0 01-.972-.972c0-.535.438-.972.972-.972h4.861c.535 0 .972.437.972.972a.974.974 0 01-.972.972zm-9.721 0h-4.861a.974.974 0 01-.972-.972c0-.535.437-.972.972-.972h4.861c.534 0 .972.437.972.972a.975.975 0 01-.972.972zm-9.722 0h-4.86a.974.974 0 01-.972-.972c0-.535.437-.972.972-.972h4.86c.535 0 .973.437.973.972a.975.975 0 01-.973.972zm-9.721 0h-4.861a.975.975 0 01-.972-.972c0-.535.438-.972.972-.972h4.861c.535 0 .972.437.972.972a.974.974 0 01-.972.972zm-9.721 0h-4.861a.974.974 0 01-.972-.972c0-.535.437-.972.972-.972h4.861c.534 0 .972.437.972.972a.975.975 0 01-.972.972zm-9.722 0h-4.86a.975.975 0 01-.973-.972c0-.535.438-.972.973-.972h4.86c.535 0 .972.437.972.972a.974.974 0 01-.972.972zm-9.721 0h-4.861a.975.975 0 01-.972-.972c0-.535.438-.972.972-.972h4.861c.535 0 .972.437.972.972a.974.974 0 01-.972.972z" fill="#424242"/><path fill="#6F70E8" d="M156.595 297.237h100.46v78.711h-100.46z"/><path d="M227.827 362.904c-.394 0-.783-.17-1.045-.486l-2.737-3.252a21.925 21.925 0 01-5.993-.15l-2.897 3.11a1.36 1.36 0 01-1.555.316l-5.245-2.328a1.373 1.373 0 01-.807-1.366l.365-4.238a21.88 21.88 0 01-4.132-4.341l-4.248.151a1.368 1.368 0 01-1.322-.875l-2.061-5.352a1.37 1.37 0 01.394-1.536l3.251-2.736a21.73 21.73 0 01.151-5.993l-3.111-2.897a1.356 1.356 0 01-.316-1.551l2.329-5.245c.233-.53.782-.855 1.365-.807l4.239.365a21.854 21.854 0 014.341-4.132l-.151-4.248c-.02-.583.33-1.113.875-1.322l5.351-2.061a1.374 1.374 0 011.536.394l2.737 3.252a21.925 21.925 0 015.993.15l2.897-3.111a1.357 1.357 0 011.551-.315l5.244 2.328c.53.233.856.782.807 1.366l-.364 4.238a21.82 21.82 0 014.131 4.341l4.248-.151a1.364 1.364 0 011.323.875l2.06 5.352a1.37 1.37 0 01-.393 1.536l-3.252 2.736a21.881 21.881 0 01-.151 5.993l3.111 2.897c.428.394.554 1.021.316 1.551l-2.328 5.245a1.368 1.368 0 01-1.366.806l-4.239-.364a21.7 21.7 0 01-4.34 4.131l.151 4.249a1.366 1.366 0 01-.875 1.322l-5.352 2.061a1.295 1.295 0 01-.486.092zm-2.98-5.808l3.16 3.752 4.583-1.764-.175-4.9.443-.301a19.802 19.802 0 004.661-4.438l.326-.428 4.89.418 1.993-4.486-3.593-3.344.103-.525c.403-2.129.456-4.292.16-6.431l-.073-.53 3.753-3.159-1.765-4.584-4.899.175-.302-.442a19.806 19.806 0 00-4.438-4.662l-.427-.325.418-4.89-4.487-1.993-3.344 3.592-.525-.102a19.95 19.95 0 00-6.431-.165l-.529.073-3.16-3.753-4.583 1.765.175 4.899-.443.301a19.823 19.823 0 00-4.661 4.438l-.326.428-4.89-.418-1.993 4.486 3.592 3.345-.102.525a19.72 19.72 0 00-.16 6.43l.073.53-3.753 3.159 1.765 4.584 4.899-.175.302.442a19.806 19.806 0 004.438 4.662l.427.325-.418 4.89 4.487 1.993 3.344-3.592.525.102a19.81 19.81 0 006.431.165l.529-.072zm18.311-31.109s0 .005 0 0zm-21.665 26.156c-5.949 0-11.578-3.612-13.843-9.489a14.716 14.716 0 01.282-11.335 14.734 14.734 0 018.215-7.816 14.716 14.716 0 0111.335.282 14.719 14.719 0 017.816 8.215c.379.987.656 2.012.816 3.048a.98.98 0 01-.811 1.113.978.978 0 01-1.113-.812 13.05 13.05 0 00-.71-2.649 12.778 12.778 0 00-6.79-7.136 12.793 12.793 0 00-9.848-.248 12.777 12.777 0 00-7.136 6.791 12.793 12.793 0 00-.248 9.848c2.552 6.62 10.013 9.935 16.639 7.383a12.895 12.895 0 005.512-4.078.977.977 0 011.365-.17c.423.33.496.943.166 1.366a14.826 14.826 0 01-6.344 4.695c-1.74.676-3.533.992-5.303.992z" fill="#fff"/><path d="M221.6 343.432a6.071 6.071 0 01-4.962-2.562 6.019 6.019 0 01-1.021-4.53 6.058 6.058 0 012.479-3.928 6.047 6.047 0 014.53-1.025 6.046 6.046 0 013.927 2.479 6.019 6.019 0 011.021 4.53 6.058 6.058 0 01-5.974 5.036zm-.014-10.188c-.846 0-1.667.257-2.367.758a4.13 4.13 0 00-.992 5.745 4.125 4.125 0 007.432-1.682 4.092 4.092 0 00-.695-3.076 4.089 4.089 0 00-2.669-1.682 4.404 4.404 0 00-.709-.063zm-42.385 3.806c-.039 0-.073 0-.112-.005l-2.742-.34a.927.927 0 01-.787-.72l-.394-1.866a10.688 10.688 0 01-2.328-1.317l-1.803.617a.915.915 0 01-1.021-.306l-1.696-2.173a.927.927 0 01-.049-1.064l1.04-1.6a10.746 10.746 0 01-.714-2.581l-1.711-.836a.923.923 0 01-.511-.933l.341-2.741a.92.92 0 01.719-.788l1.866-.394c.341-.831.783-1.608 1.318-2.328l-.618-1.803a.912.912 0 01.307-1.021l2.172-1.696a.922.922 0 011.065-.049l1.599 1.04a10.51 10.51 0 012.581-.709l.836-1.711a.923.923 0 01.938-.506l2.737.34a.927.927 0 01.787.72l.394 1.866c.831.341 1.609.783 2.328 1.318l1.803-.618a.922.922 0 011.021.302l1.697 2.177a.906.906 0 01.043 1.065l-1.035 1.594c.345.826.583 1.692.714 2.581l1.711.836c.35.17.555.549.506.938l-.34 2.737a.926.926 0 01-.72.787l-1.861.394a10.692 10.692 0 01-1.318 2.328l.618 1.804a.919.919 0 01-.302 1.02l-2.177 1.697a.93.93 0 01-1.065.048l-1.599-1.04c-.826.345-1.691.583-2.581.71l-.836 1.711a.914.914 0 01-.821.515zm-2.29-1.745l1.974.243 1.02-2.08.399-.044a9.243 9.243 0 002.902-.802l.364-.17 1.945 1.263 1.57-1.224-.754-2.193.253-.311a9.295 9.295 0 001.483-2.62l.14-.379 2.266-.481.243-1.973-2.081-1.021-.044-.399a9.204 9.204 0 00-.802-2.901l-.17-.365 1.264-1.944-1.225-1.57-2.192.753-.311-.253a9.292 9.292 0 00-2.62-1.482l-.379-.141-.481-2.265-1.974-.243-1.016 2.08-.398.044a9.28 9.28 0 00-2.902.802l-.365.17-1.944-1.264-1.57 1.225.754 2.192-.253.316a9.31 9.31 0 00-1.483 2.62l-.141.379-2.265.481-.243 1.974 2.081 1.021.043.398a9.207 9.207 0 00.802 2.902l.17.365-1.263 1.944 1.225 1.57 2.192-.754.311.253a9.295 9.295 0 002.62 1.483l.379.141.476 2.26zm-8.744-13.95zm20.954-3.145s0 .005 0 0zm-17.911-2.217c-.005.005-.005.005 0 0zm8.039 15.521c-.306 0-.612-.02-.923-.059a7.327 7.327 0 01-4.919-2.79 7.326 7.326 0 01-1.507-5.449 7.355 7.355 0 012.79-4.919 7.325 7.325 0 015.449-1.506 7.327 7.327 0 014.919 2.79c.325.413.602.865.831 1.336a.726.726 0 01-.34.972.725.725 0 01-.972-.34 6.325 6.325 0 00-.666-1.074 5.886 5.886 0 00-3.947-2.236 5.878 5.878 0 00-4.375 1.21 5.89 5.89 0 00-2.236 3.947 5.885 5.885 0 001.211 4.375 5.886 5.886 0 003.946 2.236 5.885 5.885 0 004.375-1.211 5.97 5.97 0 001.886-2.532.731.731 0 01.943-.418.731.731 0 01.418.943 7.376 7.376 0 01-2.348 3.159 7.372 7.372 0 01-4.535 1.566z" fill="#fff"/><path fill="#1DB86A" d="M95.491 132.566h144.994v112.888H95.491z"/><path d="M117.699 228.293h88.328c2.751 0 4.458-2.989 3.063-5.356l-34.968-59.446c-1.458-2.479-5.104-2.29-6.3.325l-16.886 37c-1.001 2.197-3.854 2.775-5.638 1.142l-6.829-6.261a3.558 3.558 0 00-5.323.593l-18.373 26.423c-1.633 2.353.053 5.58 2.926 5.58zm87.128-53.905c7.012 0 12.696-5.684 12.696-12.696s-5.684-12.696-12.696-12.696-12.696 5.684-12.696 12.696 5.684 12.696 12.696 12.696z" fill="#F7F7F7"/><path d="M637.155 245.378a45.046 45.046 0 01-44.46-28.329 45.05 45.05 0 1185.729-6.383l-16.514-3.864a28.09 28.09 0 00-29.438-34.415 28.097 28.097 0 00-24.017 38.395 28.092 28.092 0 0027.722 17.664l.978 16.932z" fill="#424242"/><path d="M677.558 186.963a45.054 45.054 0 01-16.688 50.008 45.056 45.056 0 01-52.718-.068 45.053 45.053 0 01-.512-72.628 45.051 45.051 0 0126.226-8.92l.26 16.959a28.088 28.088 0 00-26.359 19.64 28.09 28.09 0 0053.437 17.34 28.09 28.09 0 00.166-17.272l16.188-5.059z" fill="#fff"/><path d="M704.92 188.909a45.043 45.043 0 0115.884-24.055 45.049 45.049 0 0170.993 23.163 45.051 45.051 0 01-74.22 45.165l11.635-12.341a28.091 28.091 0 10-7.893-27.606l-16.399-4.326z" fill="#6F70E8"/><path d="M724.373 238.46a45.058 45.058 0 01-19.26-50.258 45.047 45.047 0 0142.636-32.847l.276 16.958a28.098 28.098 0 00-26.586 20.482 28.09 28.09 0 0012.01 31.337l-9.076 14.328z" fill="#fff"/><path d="M865.003 245.378a45.053 45.053 0 01-11.786-89.082 45.056 45.056 0 0152.495 31.687 45.051 45.051 0 01-27.728 54.69l-5.865-15.914a28.087 28.087 0 0017.289-34.101 28.09 28.09 0 00-54.851 11.428 28.093 28.093 0 0029.468 24.36l.978 16.932z" fill="#1DB86A"/><path d="M889.329 236.523a45.054 45.054 0 01-69.571-21.6 45.05 45.05 0 0141.934-59.568l.268 16.959a28.085 28.085 0 00-22.525 11.917 28.075 28.075 0 00-4.836 12.178 28.1 28.1 0 008.214 24.124 28.085 28.085 0 0024.338 7.556 28.086 28.086 0 0012.042-5.165l10.136 13.599z" fill="#fff"/><path d="M672.459 54.348l-158.964-.885c-6.508-.034-10.547 7.058-7.198 12.638l.797 1.332a8.342 8.342 0 007.155 4.049h158.166a8.348 8.348 0 008.346-8.346v-.443c-.005-4.593-3.713-8.321-8.302-8.345zm22.204 8.53v.257a8.347 8.347 0 008.345 8.346h35.289a8.337 8.337 0 008.059-6.192c1.41-5.274-2.542-10.46-8.001-10.5l-35.288-.257c-4.633-.034-8.404 3.714-8.404 8.346zM634.22 84.3l-120.725-.886c-6.508-.034-10.547 7.058-7.198 12.638l.797 1.332a8.342 8.342 0 007.155 4.049h119.927a8.348 8.348 0 008.346-8.346v-.442c-.005-4.593-3.713-8.322-8.302-8.346zm22.204 8.53v.257a8.347 8.347 0 008.345 8.346h35.289a8.337 8.337 0 008.059-6.193c1.41-5.273-2.542-10.46-8.001-10.499l-35.288-.257a8.344 8.344 0 00-8.404 8.345z" fill="#E4E4E4"/><path d="M438.354 134.18c-.637 0-1.278.233-1.779.709l-35.104 33.252a16.292 16.292 0 01-11.252 4.482H270.743a2.585 2.585 0 100 5.172h119.476c5.531 0 10.79-2.095 14.81-5.901l35.104-33.252a2.587 2.587 0 00.097-3.655 2.557 2.557 0 00-1.876-.807zm-66.479 54.473H270.743a2.585 2.585 0 100 5.172h101.132a2.584 2.584 0 002.585-2.586 2.584 2.584 0 00-2.585-2.586zm-16.454 16.036h-84.678a2.585 2.585 0 100 5.172h84.678a2.585 2.585 0 100-5.172z" fill="#1DB86A"/><defs><linearGradient id="paint0_linear" x1="628.903" y1="373.807" x2="620.125" y2="373.807" gradientUnits="userSpaceOnUse"><stop stop-color="#FF928E"/><stop offset="1" stop-color="#FEB3B1"/></linearGradient></defs></svg>