<svg width="1047" height="743" fill="none" xmlns="http://www.w3.org/2000/svg"><path d="M975.321 351.339h-19.374c-2.797 0-5.193-1.598-6.192-4.194-.2-.6-.599-1.199-.799-1.998-.999-2.397-.4-5.393 1.398-7.19l14.381-14.381a6.63 6.63 0 000-9.388l-27.364-27.364a6.63 6.63 0 00-9.388 0l-13.981 13.981c-1.998 1.998-4.994 2.397-7.59 1.399-.4-.2-.799-.4-1.199-.4-2.596-.999-4.394-3.395-4.394-6.192v-20.773c0-3.595-2.996-6.591-6.591-6.591h-38.75c-3.595 0-6.591 2.996-6.591 6.591v20.773c0 2.797-1.798 5.193-4.394 6.192-.2 0-.4.2-.599.2-2.597.999-5.593.599-7.391-1.398l-15.18-15.18a6.63 6.63 0 00-9.388 0l-27.364 27.364a6.63 6.63 0 000 9.387l15.18 15.18c1.998 1.998 2.397 4.994 1.399 7.591v.199c-.999 2.597-3.396 4.195-6.192 4.195h-22.171c-3.596 0-6.592 2.996-6.592 6.591v38.749c0 3.596 2.996 6.592 6.592 6.592h21.571c2.797 0 5.194 1.797 6.192 4.394.999 2.597.6 5.393-1.398 7.39l-15.779 15.78a6.629 6.629 0 000 9.387l27.364 27.364a6.63 6.63 0 009.388 0l14.98-14.98c1.997-1.997 4.993-2.397 7.59-1.398.2 0 .2.2.4.2 2.596.998 4.194 3.395 4.194 6.192v21.971c0 3.595 2.996 6.591 6.591 6.591h38.75c3.595 0 6.591-2.996 6.591-6.591V457.4c0-2.796 1.598-5.193 4.195-6.192.399-.199.799-.399 1.398-.599 2.397-.999 5.393-.399 7.19 1.398l14.781 14.781a6.632 6.632 0 009.388 0l27.364-27.364a6.632 6.632 0 000-9.388l-13.782-13.782c-1.997-1.997-2.597-4.794-1.398-7.39.199-.599.599-1.199.799-1.798.998-2.397 3.395-3.995 6.192-3.995h20.373c3.595 0 6.591-2.996 6.591-6.591v-38.749c-.399-3.396-3.395-6.392-6.991-6.392zm-101.666 63.717c-21.372 0-38.75-17.378-38.75-38.75s17.378-38.749 38.75-38.749 38.749 17.377 38.749 38.749c0 21.372-17.377 38.75-38.749 38.75z" fill="#E0E0E0"/><path d="M851.083 603.609H333.162c-13.582 0-24.767-10.986-24.767-24.768V231.097c0-13.582 10.985-24.767 24.767-24.767h517.921c13.582 0 24.768 10.985 24.768 24.767v347.744c0 13.782-10.986 24.768-24.768 24.768z" fill="#E0E0E0"/><path d="M308.596 581.837c1.398 12.184 11.984 21.772 24.568 21.772h517.921c12.583 0 23.169-9.588 24.567-21.772H308.596z" fill="#E5E5E5"/><path d="M830.909 575.246H353.335c-13.582 0-24.768-10.986-24.768-24.768V251.27c0-13.582 10.986-24.767 24.768-24.767h477.574c13.582 0 24.768 10.986 24.768 24.767v299.009c0 13.782-10.986 24.967-24.768 24.967z" fill="#F2F2F2"/><path d="M648.749 464.192H417.852v7.79h230.897v-7.79zm53.929 0h-45.54v7.789h45.54v-7.789z" fill="#6F70E8"/><path d="M753.412 464.192h-45.54v7.789h45.54v-7.789z" fill="#fff"/><path d="M702.678 493.553h-45.54v7.79h45.54v-7.79zm-.2 15.18H555.671v7.79h146.807v-7.79z" fill="#6F70E8"/><path d="M753.412 493.553h-45.54v7.79h45.54v-7.79zm-50.733-14.58H471.781v7.79h230.898v-7.79z" fill="#fff"/><path d="M753.213 478.973h-45.54v7.79h45.54v-7.79zm0 29.76h-45.54v7.79h45.54v-7.79z" fill="#6F70E8"/><path d="M370.315 265.852a8.788 8.788 0 008.788-8.789 8.789 8.789 0 10-8.788 8.789zm29.162 0a8.788 8.788 0 008.788-8.789 8.789 8.789 0 10-8.788 8.789zm29.161 0a8.789 8.789 0 100-17.578 8.789 8.789 0 000 17.578z" fill="#fff"/><path d="M344.549 276.438h488.959" stroke="#fff" stroke-width=".968" stroke-miterlimit="10"/><path d="M900.219 646.951H284.026c-14.181 0-26.964-8.788-31.958-22.17l-11.185-30.361h702.479l-11.185 30.361c-4.994 13.382-17.777 22.17-31.958 22.17z" fill="#E0E0E0"/><path d="M251.27 622.584l.799 2.197c4.993 13.382 17.576 22.171 31.958 22.171h616.192c14.181 0 26.964-8.789 31.958-22.171l.799-2.197H251.27z" fill="#F2F2F2"/><path d="M332.964 525.312H224.706c-24.767 0-44.741-19.973-44.741-44.741v-56.925c0-24.768 19.974-44.742 44.741-44.742h108.258c24.768 0 44.742 19.974 44.742 44.742v56.925c0 24.568-19.974 44.741-44.742 44.741z" fill="#fff"/><path d="M326.573 453.606l-80.095-42.144v85.088l80.095-42.944z" fill="#6F70E8"/><path d="M66.48 242.507l-17.133-1.228-23.974 334.488 17.133 1.228L66.48 242.507zM310.792 28.363h-71.506v10.386h71.506V28.362z" fill="#E9E9E9"/><path d="M68.91 241.484L260.858 14.981l-12.583-9.587-199.938 236.09H68.91z" fill="#E9E9E9"/><path d="M53.13 567.256H17.179v46.739H53.13v-46.739z" fill="#E0E0E0"/><path d="M53.13 590.026H17.179v23.969H53.13v-23.969z" fill="#E5E5E5"/><path d="M142.014 646.952H14.381A14.32 14.32 0 010 632.571v-15.38a14.322 14.322 0 0114.381-14.381h127.633a14.322 14.322 0 0114.381 14.381v15.38c0 7.99-6.392 14.381-14.381 14.381z" fill="#E0E0E0"/><path d="M.2 627.777v4.793a14.32 14.32 0 0014.381 14.381h127.433a14.32 14.32 0 0014.381-14.381v-4.793H.2z" fill="#F2F2F2"/><path d="M344.147 75.501H273.64V18.576C273.64 8.389 282.029 0 292.215 0h33.357c10.186 0 18.575 8.389 18.575 18.576V75.5z" fill="#424242"/><path d="M344.147 45.34H273.64v30.161h70.507v-30.16z" fill="#424242"/><path d="M390.886 163.784H232.693v-30.559c0-43.743 35.354-79.097 79.097-79.097 43.742 0 79.096 35.354 79.096 79.097v30.559z" fill="#1DB86A"/><path d="M396.856 138.619H226.724v25.167h170.132v-25.167z" fill="#424242"/><path d="M60.121 259.66c12.245 0 22.171-9.926 22.171-22.171s-9.926-22.171-22.17-22.171c-12.245 0-22.172 9.926-22.172 22.171s9.926 22.171 22.171 22.171z" fill="#E0E0E0"/><path d="M920.395 515.923h-160.39v226.104h160.39V515.923z" fill="#fff"/><path d="M899.621 544.885H780.178v5.793h119.443v-5.793zm-40.147 10.986h-79.296v5.792h79.296v-5.792zm24.368 11.184H780.178v5.793h103.664v-5.793zm-7.191 10.786h-96.473v5.793h96.473v-5.793zm0 94.477h-96.473v5.792h96.473v-5.792zm-26.365 11.385h-70.108v5.793h70.108v-5.793zm9.388 11.585h-79.496v5.792h79.496v-5.792z" fill="#1DB86A"/><path d="M826.716 57.925H515.524c-8.788 0-15.779-7.19-15.779-15.78V17.178c0-8.788 7.191-15.78 15.779-15.78h311.192c8.789 0 15.78 7.191 15.78 15.78v24.768c0 8.988-6.991 15.979-15.78 15.979z" fill="#fff" stroke="#F2F2F2" stroke-width="1.99" stroke-miterlimit="10"/><path d="M826.718 1.398h-85.089c-9.587 0-17.377 7.79-17.377 17.378v21.97c0 9.588 7.79 17.378 17.377 17.378h85.089c8.788 0 15.779-7.19 15.779-15.78V17.179c0-8.589-6.991-15.78-15.779-15.78z" fill="#1DB86A"/><path d="M826.716 128.632H515.524c-8.788 0-15.779-7.19-15.779-15.779V88.086c0-8.789 7.191-15.78 15.779-15.78h311.192c8.789 0 15.78 7.19 15.78 15.78v24.767c0 8.589-6.991 15.779-15.78 15.779z" fill="#fff" stroke="#F2F2F2" stroke-width="1.99" stroke-miterlimit="10"/><path d="M826.717 71.906h-85.089c-9.587 0-17.377 7.79-17.377 17.378v21.971c0 9.587 7.79 17.377 17.377 17.377h85.089c8.788 0 15.779-7.19 15.779-15.779V88.085c0-8.988-6.991-16.178-15.779-16.178z" fill="#E9E9E9"/><path d="M1025.01 182.219c12.14-73.238-37.382-142.455-110.62-154.6-73.238-12.147-142.455 37.378-154.6 110.616-12.146 73.238 37.379 142.456 110.617 154.601 73.238 12.146 142.453-37.379 154.603-110.617z" fill="#fff"/><path d="M814.334 162.787l24.568-34.155h24.168l-23.769 34.155 23.769 33.955h-24.368l-24.368-33.955zM910.407 75.9h24.168L877.25 239.686h-24.168L910.407 75.9zm11.585 120.842l23.769-33.955-23.769-34.155h24.368l24.568 34.155-24.568 33.955h-24.368z" fill="#1DB86A"/></svg>