<svg width="430" height="430" fill="none" xmlns="http://www.w3.org/2000/svg"><path d="M277.291 278l-9.197 9.143L245 310.088l83.034 82.52c15.284 15.189 40.067 15.189 55.354 0l4.612-4.584L277.291 278z" fill="#6F70E8"/><path d="M277 278.067L387.897 388l4.621-4.58c15.309-15.18 15.309-39.788 0-54.968L309.342 246l-23.127 22.932-9.215 9.135z" fill="#6F70E8"/><path d="M38.184 39L29 48.187l22.997 50.687 30.426 2.803L171.813 191l9.187-9.187L38.184 39zM190 171.876l-88.735-88.802L98.48 52.85 48.127 30 39 39.127 180.876 181l9.124-9.124z" fill="#F3F3F3"/><path d="M245 246.091l9.31-9.091L287 268.909 277.69 278 245 246.091z" fill="#E6E7E8"/><path d="M236 255.088l9.091-9.088L277 277.909 267.909 287 236 255.088z" fill="#D1D3D4"/><path d="M277 277.997l9.997-8.997.003.003-9.997 8.997-.003-.003zm-9 8.997l8.997-8.994.003.003-8.994 8.997-.006-.006z" fill="#78B9EB"/><path d="M394.718 87l-49.064 48.925-41.384-13.775L42 384.018l4.588 4.578c15.267 15.205 39.98 15.205 55.247 0l183.498-183.217c32.704 8.743 67.566-1.342 90.522-26.185 22.955-24.843 30.222-60.349 18.863-92.194zM339 32.268c-31.845-11.329-67.351-4.082-92.194 18.812-24.843 22.895-34.928 57.662-26.185 90.278L37.404 324.361c-15.205 15.226-15.205 39.872 0 55.098L41.982 384 212.76 213.456l91.09-90.984-13.775-41.273L339 32.268z" fill="#1DB86A"/></svg>