<svg width="430" height="430" fill="none" xmlns="http://www.w3.org/2000/svg"><path d="M33.594 409.844h362.812a13.438 13.438 0 0013.438-13.438V60.469H20.156v335.937a13.438 13.438 0 0013.438 13.438z" fill="#F8F8F8"/><path d="M20.156 73.906h389.688V33.594a13.438 13.438 0 00-13.438-13.438H33.594a13.438 13.438 0 00-13.438 13.438v40.312z" fill="#EBEBEB"/><path d="M47.031 53.75a7.068 7.068 0 01-4.77-1.948 6.27 6.27 0 01-1.411-2.217 6.719 6.719 0 01-.538-2.553 6.941 6.941 0 011.949-4.77 6.72 6.72 0 0111.489 4.77 6.652 6.652 0 01-6.719 6.719z" fill="#6F70E8"/><path d="M73.906 53.75a7.068 7.068 0 01-4.77-1.948c-.29-.32-.558-.656-.806-1.008a5.084 5.084 0 01-.605-1.21 4.271 4.271 0 01-.403-1.209 9.109 9.109 0 01-.135-1.344 6.719 6.719 0 0113.438 0c-.011.45-.056.9-.134 1.344a4.275 4.275 0 01-.403 1.21c-.147.428-.35.834-.605 1.209l-.806 1.008a7.068 7.068 0 01-4.77 1.948z" fill="#FFE175"/><path d="M100.782 53.75a7.069 7.069 0 01-4.77-1.948 6.813 6.813 0 010-9.54 6.72 6.72 0 0111.488 4.77 6.641 6.641 0 01-1.947 4.77 6.65 6.65 0 01-4.771 1.949zm278.187 47.031H51.031a4 4 0 00-4 4v72.625a4 4 0 004 4H378.97a4 4 0 004-4v-72.625a4 4 0 00-4-4zm-228.438 107.5h-99.5a4 4 0 00-4 4v166.688a4 4 0 004 4h99.5a4 4 0 004-4V212.281a4 4 0 00-4-4z" fill="#1DB86A"/><path d="M378.969 208.281H185.406a4 4 0 00-4 4v65.907a4 4 0 004 4h193.563a4 4 0 004-4v-65.907a4 4 0 00-4-4zm0 100.781H185.406a4 4 0 00-4 4.001v65.906a4 4 0 004 4h193.563a4 4 0 004-4v-65.907a4 4 0 00-4-4z" fill="#6F70E8"/></svg>