<svg width="430" height="430" fill="none" xmlns="http://www.w3.org/2000/svg"><path d="M413 214.958a199.317 199.317 0 01-4.286 41.304 1.097 1.097 0 01-1.074.866c-6.388 0-11.567 5.18-11.567 11.571v21.682a22.31 22.31 0 01-2.145 9.584 196.645 196.645 0 01-3.215 6.452c-1.705 3.268-5.116 5.291-8.803 5.291a6.326 6.326 0 00-6.326 6.329v11.285c0 .995-.315 1.967-.905 2.769a197.085 197.085 0 01-44.444 43.676c-.19.133-.412.205-.644.205h-7.624c-5.026 0-9.099 4.074-9.102 9.1a2.919 2.919 0 01-1.516 2.55 195.108 195.108 0 01-23.402 10.967.893.893 0 01-.331.063h-12.705a4.562 4.562 0 00-4.562 4.56c0 .752-.469 1.428-1.197 1.627a196.867 196.867 0 01-34.237 6.31c-1.895-4.32-6.202-7.344-11.224-7.344-5.339 0-9.872 3.424-11.547 8.195-21.463-.409-42.077-4.209-61.314-10.913-2.512-.875-4.082-3.283-4.088-5.944-.012-7.401-6.015-13.399-13.42-13.399h-18.01c-3.059 0-6.055-.896-8.602-2.591a197.052 197.052 0 01-49.203-46.818 5.088 5.088 0 01-.992-3.034v-10.408a7.377 7.377 0 00-7.471-7.377c-3.191.039-6.073-1.894-7.559-4.72a196.864 196.864 0 01-3.176-6.32 32.083 32.083 0 01-3.149-13.868v-17.223c0-6.196-4.704-11.286-10.734-11.914a1.266 1.266 0 01-1.092-1.002 199.105 199.105 0 01-4.32-39.019 198.01 198.01 0 013.102-37.483.766.766 0 01.65-.61c5.242-.764 9.266-5.274 9.266-10.727 0-3.869-2.03-7.254-5.077-9.175a196.033 196.033 0 0120.82-46.984c.453-.748 1.317-1.124 2.183-1.001.605.087 1.218.135 1.844.135 7.489 0 13.561-6.072 13.561-13.564v-4.897a13.57 13.57 0 013.42-9.026A198.172 198.172 0 01102.776 53.8a6.47 6.47 0 013.723-1.17h9.333a3.72 3.72 0 003.721-3.718 3.72 3.72 0 013.72-3.719h10.575c7.619 0 13.793-6.175 13.793-13.793a1.71 1.71 0 011.119-1.605c21.439-7.79 44.604-11.972 68.777-11.788 108.49.826 195.43 88.456 195.463 196.952z" fill="#fff"/><path d="M133.257 241.395c-16.977 0-30.74 13.778-30.74 30.771v30.771c0 16.993 13.763 30.77 30.74 30.77 16.977 0 30.74-13.777 30.74-30.77v-30.771c0-16.993-13.763-30.771-30.74-30.771zm11.529 57.695c0 6.374-5.161 11.539-11.529 11.539s-11.528-5.165-11.528-11.539v-23.078c0-6.373 5.16-11.539 11.528-11.539s11.529 5.166 11.529 11.539v23.078zm71.473-165.392c-16.98 0-30.743 13.777-30.743 30.77v30.771c0 16.993 13.763 30.771 30.743 30.771 16.977 0 30.74-13.778 30.74-30.771v-30.771c0-16.993-13.763-30.77-30.74-30.77zm11.529 57.695c0 6.373-5.164 11.539-11.529 11.539-6.368 0-11.528-5.166-11.528-11.539v-23.078c0-6.374 5.16-11.539 11.528-11.539 6.365 0 11.529 5.165 11.529 11.539v23.078zm180.715 65.048c-3.274 15.391-8.236 30.101-14.871 43.929.048-.423.156-.844.156-1.28v-23.078c0-6.373-5.163-11.539-11.528-11.539-6.368 0-11.528 5.166-11.528 11.539v23.078c0 6.374 5.16 11.539 11.528 11.539 3.019 0 5.704-1.172 7.762-3.074-4.662 8.778-9.91 17.162-15.794 25.086-13.081-3.537-22.711-15.491-22.711-29.704v-30.771c0-16.993 13.763-30.771 30.743-30.771 11.234 0 20.879 6.043 26.243 15.046zM299.258 26c-16.977 0-30.74 13.778-30.74 30.77v30.771c0 16.994 13.763 30.771 30.74 30.771 16.98 0 30.743-13.777 30.743-30.77V56.77c0-16.993-13.763-30.771-30.743-30.771zm11.528 57.695c0 6.374-5.16 11.54-11.528 11.54-6.365 0-11.528-5.166-11.528-11.54V60.617c0-6.373 5.163-11.539 11.528-11.539 6.368 0 11.528 5.166 11.528 11.54v23.077zM382.26 26c-16.977 0-30.74 13.778-30.74 30.77v30.771c0 16.994 13.763 30.771 30.74 30.771 16.977 0 30.74-13.777 30.74-30.77V56.77C413 39.778 399.237 26 382.26 26zm11.528 57.695c0 6.374-5.16 11.54-11.528 11.54s-11.528-5.166-11.528-11.54V60.617c0-6.373 5.16-11.539 11.528-11.539s11.528 5.166 11.528 11.54v23.077zm-63.532 292.121c-6.079 4.306-12.414 8.327-18.977 11.933v-4.039c0-6.374-5.16-11.539-11.528-11.539s-11.529 5.165-11.529 11.539v14.88c-6.253 2.443-12.666 4.607-19.211 6.41v-25.136c0-16.993 13.763-30.771 30.74-30.771 15.706 0 28.652 11.503 30.505 26.723zM148.694 30.153c-7.54 2.755-14.824 5.959-21.901 9.54-8.44 4.277-16.502 9.202-24.183 14.65a29.75 29.75 0 00-.093 2.262v30.937c0 16.993 13.763 30.77 30.74 30.77 16.977 0 30.74-13.777 30.74-30.77V56.77c0-11.332-6.19-21.281-15.303-26.618zm-3.908 53.542c0 6.374-5.161 11.54-11.529 11.54s-11.528-5.166-11.528-11.54V60.617c0-6.373 5.16-11.539 11.528-11.539s11.529 5.166 11.529 11.54v23.077zM80.999 272.166v30.771c0 14.21-9.63 26.167-22.708 29.701a196.705 196.705 0 01-15.848-25.083 11.462 11.462 0 007.813 3.074c6.367 0 11.528-5.168 11.528-11.539v-23.078c0-6.373-5.16-11.539-11.529-11.539-6.364 0-11.432 5.166-11.432 11.539v23.078c0 .436.03.866.078 1.286-6.635-13.828-11.63-28.556-14.901-43.947 5.362-9 15.025-15.034 26.255-15.034 16.98 0 30.744 13.778 30.744 30.771z" fill="#6F70E8"/><path d="M287.603 83.697v3.846c0 13.634 8.883 25.191 21.187 29.23a30.831 30.831 0 01-9.63 1.541c-17.023 0-30.82-13.778-30.82-30.771V56.77c0-16.991 13.797-30.77 30.82-30.77 3.363 0 6.597.544 9.63 1.542-12.301 4.038-21.187 15.593-21.187 29.23v26.925zm83.207 3.846V56.77c0-13.633 8.886-25.19 21.19-29.23a30.836 30.836 0 00-9.633-1.54c-17.02 0-30.817 13.778-30.817 30.772v30.77c0 16.994 13.797 30.772 30.817 30.772 3.367 0 6.601-.546 9.633-1.541-12.304-4.039-21.19-15.596-21.19-29.23zm-249.628 0V56.77c0-6.286 1.852-12.221 5.092-17.092-8.473 4.324-16.691 9.096-24.274 14.664-.057.76-.078 1.488-.078 2.263v30.937c0 16.993 13.798 30.771 30.817 30.771 3.367 0 6.601-.546 9.633-1.541-12.304-4.039-21.19-15.596-21.19-29.23zm83.21 80.775v-3.846c0-13.634 8.887-25.192 21.188-29.23a30.73 30.73 0 00-9.63-1.542c-17.02 0-30.818 13.778-30.818 30.772v30.771c0 16.994 13.798 30.772 30.818 30.772 3.363 0 6.6-.547 9.63-1.542-12.301-4.039-21.188-15.593-21.188-29.23v-26.925zM299.654 349.1c-17.023 0-30.821 13.779-30.821 30.772L268.818 405a195.56 195.56 0 0019.26-6.401l.018-14.881v-3.846c0-13.637 8.884-25.191 21.188-29.23a30.832 30.832 0 00-9.63-1.542zm71.156-73.082v-3.846c0-13.637 8.886-25.191 21.19-29.23a30.74 30.74 0 00-9.633-1.542c-17.02 0-30.817 13.778-30.817 30.772v30.771c0 14.211 9.636 26.168 22.75 29.702 1.921-2.581 3.8-5.214 5.598-7.891-5.613-5.572-9.088-13.285-9.088-21.811v-26.925zm-249.628 0v-3.846c0-13.637 8.886-25.191 21.19-29.23a30.74 30.74 0 00-9.633-1.542c-17.019 0-30.817 13.778-30.817 30.772v30.771c0 16.994 13.798 30.772 30.817 30.772 3.367 0 6.601-.547 9.633-1.542-12.304-4.039-21.19-15.593-21.19-29.23v-26.925zM49.532 241.4A30.889 30.889 0 0023 256.434c3.267 15.332 8.33 30.132 14.942 43.916l.13-1.253v-26.925a30.696 30.696 0 0121.09-29.23 30.826 30.826 0 00-9.63-1.542z" fill="#6F70E8"/><path d="M151.775 145.183v69.203c0 6.371-5.159 11.534-11.525 11.534-6.363 0-11.521-5.163-11.521-11.534v-41.359l-7.219 7.223c-4.501 4.506-11.798 4.506-16.296 0-4.501-4.502-4.501-11.807 0-16.309l26.89-26.913a11.482 11.482 0 018.149-3.379c6.363 0 11.522 5.164 11.522 11.534zm154.423-11.534a11.482 11.482 0 00-8.149 3.379l-26.889 26.913c-4.501 4.502-4.501 11.804 0 16.309 4.501 4.506 11.797 4.506 16.295 0l7.219-7.223v41.359c0 6.371 5.159 11.534 11.524 11.534 6.363 0 11.522-5.163 11.522-11.534v-69.203c.003-6.37-5.159-11.534-11.522-11.534zm85.278 0a11.49 11.49 0 00-8.15 3.379l-26.889 26.913c-4.501 4.502-4.501 11.804 0 16.309 4.501 4.506 11.798 4.506 16.296 0l7.218-7.223v41.359c0 6.371 5.159 11.534 11.525 11.534 6.362 0 11.524-5.163 11.524-11.534v-69.203c0-6.37-5.159-11.534-11.524-11.534zM140.304 348.948a11.474 11.474 0 00-8.2 3.379l-26.325 26.342c14.11 9.503 29.613 17.199 45.996 22.815v-40.66c0-6.406-5.069-11.846-11.471-11.876zm82.92-107.649a11.483 11.483 0 00-8.149 3.379l-26.89 26.912c-4.501 4.503-4.501 11.804 0 16.31 4.502 4.505 11.798 4.505 16.299 0l7.216-7.224v41.36c0 6.371 5.158 11.534 11.524 11.534 6.366 0 11.525-5.163 11.525-11.534v-69.203c0-6.371-5.159-11.534-11.525-11.534zm82.974 0a11.477 11.477 0 00-8.149 3.379L271.16 271.59c-4.501 4.503-4.501 11.804 0 16.31 4.501 4.505 11.797 4.505 16.295 0l7.219-7.224v41.36c0 6.371 5.159 11.534 11.524 11.534 6.363 0 11.522-5.163 11.522-11.534v-69.203c.003-6.371-5.159-11.534-11.522-11.534zM223.224 26a11.485 11.485 0 00-8.149 3.38l-26.89 26.911c-4.501 4.503-4.501 11.805 0 16.31 4.502 4.505 11.798 4.505 16.299 0l7.216-7.224v41.36c0 6.371 5.158 11.534 11.524 11.534 6.366 0 11.525-5.163 11.525-11.534V37.534c0-6.37-5.159-11.534-11.525-11.534zm0 322.948a11.487 11.487 0 00-8.149 3.379l-26.89 26.913c-4.501 4.502-4.501 11.804 0 16.309 4.502 4.506 11.798 4.506 16.299 0l7.216-7.223v23.626c1.279.024 2.555.048 3.84.048 6.48 0 12.888-.312 19.209-.925v-50.593c0-6.371-5.159-11.534-11.525-11.534zM57.279 118.271c6.366 0 11.524-5.163 11.524-11.534V84.105a197.16 197.16 0 00-21.268 28.735c2.033 3.265 5.615 5.431 9.744 5.431zm0 15.378a11.488 11.488 0 00-8.15 3.379l-22.204 22.221A195.55 195.55 0 0022 179.983c.081.087.153.183.24.267 4.501 4.506 11.798 4.506 16.296 0l7.218-7.223v41.359c0 6.371 5.16 11.534 11.525 11.534 6.363 0 11.524-5.163 11.524-11.534v-69.203c0-6.37-5.158-11.534-11.524-11.534z" fill="#1DB86A"/><path d="M145.367 224.853a11.48 11.48 0 01-6.528 1.165c-5.872-.676-10.197-5.847-10.197-11.756v-41.044l-7.225 7.221a11.495 11.495 0 01-8.157 3.378 11.494 11.494 0 01-8.154-3.378 11.47 11.47 0 01-3.321-7.005 11.5 11.5 0 013.321-9.299l1.26-1.261a6.41 6.41 0 0010.855 5.588l15.734-15.729c2.239-2.24 6.068-.654 6.068 2.511v59.321c0 4.498 2.584 8.387 6.344 10.288zm-12.229 142.995l-15.734 15.728c-.495.493-1.148.994-1.743 1.294 3.511 2.072 7.162 4.027 10.808 5.883l2.356 1.072c3.408 1.678 6.991 3.357 10.507 4.843l-.126-15.416v-10.894c0-3.165-3.829-4.75-6.068-2.51zM56.157 214.445v-59.321c0-3.165-3.826-4.751-6.065-2.514l-15.734 15.728a6.413 6.413 0 01-9.07 0 6.28 6.28 0 01-.613-.72A195.238 195.238 0 0022 180.055c.081.087.156.18.24.264a11.505 11.505 0 008.157 3.378 11.5 11.5 0 008.157-3.378l7.222-7.221v41.044c0 5.909 4.328 11.08 10.2 11.756a11.46 11.46 0 006.525-1.168c-3.76-1.898-6.344-5.787-6.344-10.285zm0-107.617v-6.87a201.04 201.04 0 00-8.638 12.968c1.797 2.925 4.86 4.943 8.457 5.354a11.47 11.47 0 006.525-1.165c-3.76-1.901-6.344-5.789-6.344-10.287zm159.766 261.02l-15.734 15.728a6.415 6.415 0 01-9.067 0c-1.524-1.522-2.02-3.507-1.692-5.48l-1.263 1.261c-2.542 2.544-3.744 5.871-3.414 9.192a11.48 11.48 0 003.321 7.005 11.494 11.494 0 008.154 3.378c2.954 0 5.906-1.126 8.157-3.378l7.225-7.221v23.619c1.277.024 2.557.048 3.844.048 2.188 0 4.364-.051 6.537-.12v-41.522c0-3.165-3.829-4.75-6.068-2.51zm89.267-153.322v-59.321c0-3.165-3.829-4.751-6.068-2.514l-15.733 15.729a6.412 6.412 0 01-9.068 0 6.385 6.385 0 01-1.785-5.586l-1.262 1.259a11.499 11.499 0 00-3.321 9.302 11.49 11.49 0 003.321 7.005 11.498 11.498 0 008.156 3.378c2.952 0 5.903-1.126 8.154-3.378l7.225-7.221v41.044c0 5.909 4.325 11.08 10.198 11.756a11.462 11.462 0 006.527-1.168c-3.759-1.898-6.344-5.787-6.344-10.285zm85.466-.081v-59.321c0-3.165-3.826-4.751-6.065-2.514l-15.734 15.728a6.413 6.413 0 01-9.07 0 6.449 6.449 0 01-1.81-5.606l-1.262 1.262a11.567 11.567 0 00-3.336 9.326 11.385 11.385 0 003.297 6.975l.024.024a11.59 11.59 0 008.196 3.378 11.5 11.5 0 008.157-3.378l7.183-7.221v41.155c.057 6.276 4.367 10.969 10.239 11.645A11.46 11.46 0 00397 224.73c-3.76-1.898-6.344-5.787-6.344-10.285zM222.159 322.159v-59.322c0-3.165-3.829-4.75-6.068-2.513l-15.734 15.728a6.415 6.415 0 01-9.07 0 6.394 6.394 0 01-1.785-5.588l-1.259 1.261a11.499 11.499 0 00-3.321 9.302 11.476 11.476 0 003.321 7.006 11.488 11.488 0 008.153 3.375 11.49 11.49 0 008.157-3.375l7.222-7.222v41.044c0 5.91 4.328 11.08 10.201 11.756 2.365.27 4.598-.192 6.524-1.168-3.759-1.898-6.341-5.783-6.341-10.284zm-.018-215.277V47.56c0-3.165-3.826-4.75-6.065-2.513l-15.734 15.728a6.414 6.414 0 01-9.07 0 6.391 6.391 0 01-1.785-5.585l-1.262 1.258a11.514 11.514 0 00-3.321 9.303 11.493 11.493 0 003.321 7.005 11.503 11.503 0 008.156 3.378c2.952 0 5.903-1.126 8.157-3.378l7.222-7.222v41.045c0 5.909 4.328 11.08 10.201 11.755a11.448 11.448 0 006.524-1.168c-3.759-1.898-6.344-5.786-6.344-10.284zm82.938 215.292v-59.322c0-3.165-3.829-4.75-6.068-2.51l-15.734 15.728a6.42 6.42 0 01-9.07 0c-1.521-1.522-2.125-3.531-1.797-5.504l-1.248 1.177a11.515 11.515 0 000 16.305 11.495 11.495 0 008.154 3.378c2.952 0 5.906-1.126 8.157-3.378l7.222-7.219v41.041c0 5.913 4.328 11.08 10.2 11.756a11.469 11.469 0 006.525-1.165c-3.76-1.901-6.341-5.786-6.341-10.287z" fill="#1DB86A"/></svg>