<svg width="430" height="430" fill="none" xmlns="http://www.w3.org/2000/svg"><path d="M101.621 256.439h62.988v-79.564l-12.597-21.217c0-13.915-11.28-25.195-25.196-25.195-13.915 0-25.195 11.28-25.195 25.195v100.781z" fill="#6F70E8"/><path d="M56.275 279.934l100.781-75.586 7.553 123.455H63.829c-6.964 0-12.599-5.635-12.599-12.598V290.01a12.59 12.59 0 015.045-10.076z" fill="#EBEBEB"/><path d="M328.379 256.439h-62.988v-79.564l12.597-21.217c0-13.915 11.28-25.195 25.196-25.195 13.915 0 25.195 11.28 25.195 25.195v100.781z" fill="#6F70E8"/><path d="M373.725 279.934l-100.781-75.586-7.553 123.455h100.781c6.963 0 12.598-5.635 12.598-12.598V290.01c0-3.962-1.871-7.701-5.045-10.076z" fill="#EBEBEB"/><path d="M215 338.231c-20.239 0-36.707 16.572-36.707 36.94 0 18.556 26.369 45.137 31.66 50.18a7.296 7.296 0 0010.094 0c5.292-5.043 31.661-31.624 31.661-50.18 0-20.368-16.468-36.94-36.708-36.94z" fill="#6F70E8"/><path d="M220.635 1.329A12.595 12.595 0 00215 0c-1.932 0-3.863.443-5.635 1.329-35.381 17.69-57.353 54.084-57.353 93.636v6.656l28.244 25.195h73.2l24.532-25.195v-6.656c0-39.552-21.972-75.946-57.353-93.636z" fill="#37C37D"/><path d="M215 101.621h-62.988v241.404c0 6.963 5.634 12.598 12.597 12.598h100.782c6.963 0 12.597-5.635 12.597-12.598V101.621H215z" fill="#F8F8F8"/><path d="M215 291.61c-6.963 0-12.598 5.635-12.598 12.598v50.39c0 6.964 5.635 12.598 12.598 12.598 6.963 0 12.598-5.634 12.598-12.598v-50.39c0-6.963-5.635-12.598-12.598-12.598z" fill="#37C37D"/></svg>