<svg width="430" height="430" fill="none" xmlns="http://www.w3.org/2000/svg"><path d="M329.219 409.844H100.781a40.31 40.31 0 01-40.312-40.313V60.469a40.312 40.312 0 0140.312-40.313h188.125l80.625 80.625v268.75a40.311 40.311 0 01-40.312 40.313z" fill="#fff"/><path d="M60.469 302.344H369.53v67.187a40.311 40.311 0 01-40.312 40.313H100.781a40.31 40.31 0 01-40.312-40.313v-67.187z" fill="#1DB86A"/><path d="M369.531 100.781h-40.312a40.311 40.311 0 01-40.313-40.312V20.156l80.625 80.625z" fill="#F3F3F3"/><path d="M147.812 118.219a4 4 0 014-4h45.751a4 4 0 014 4v45.751a4 4 0 01-4 4h-45.751a4 4 0 01-4-4v-45.751z" fill="#6F70E8"/><path d="M228.438 118.219a4 4 0 014-4h45.75a4 4 0 014 4v45.751a4 4 0 01-4 4h-45.751a4 4 0 01-3.999-4v-45.751zm-80.626 80.625a4 4 0 014-4h45.751a4 4 0 014 4v45.751a4 4 0 01-4 4h-45.751a4 4 0 01-4-4v-45.751z" fill="#E9E9E9"/><path d="M228.438 198.844a4 4 0 014-4h45.75a4 4 0 014 4v45.751a4 4 0 01-4 4h-45.751a4 4 0 01-3.999-4v-45.751z" fill="#6F70E8"/><path d="M275.469 322.5h-13.438a6.72 6.72 0 00-6.719 6.719v53.75a6.72 6.72 0 0013.438 0v-20.157h6.719a20.154 20.154 0 0014.252-34.408 20.155 20.155 0 00-14.252-5.904zm0 26.875h-6.719v-13.437h6.719a6.718 6.718 0 110 13.437zm-53.75-26.875h-13.438a6.72 6.72 0 00-6.719 6.719v53.75a6.72 6.72 0 0013.438 0v-20.157h6.719a20.154 20.154 0 0014.252-34.408 20.155 20.155 0 00-14.252-5.904zm0 26.875H215v-13.437h6.719a6.718 6.718 0 110 13.437zm-33.601 33.447a6.815 6.815 0 00-.181-1.408c-.021-.084-.043-.176-.067-.264a6.067 6.067 0 00-.133-.415c-.014-.042-.024-.084-.04-.126l-20.156-53.751a6.724 6.724 0 00-6.291-4.358 6.717 6.717 0 00-6.29 4.358l-20.156 53.751a6.704 6.704 0 00.128 5.178 6.726 6.726 0 003.774 3.548 6.723 6.723 0 007.31-1.749 6.717 6.717 0 001.368-2.259l3.405-9.078h20.922l3.405 9.078c.008.02.019.038.028.059.113.297.248.586.403.864.024.041.05.08.073.121.137.233.289.457.454.672.037.048.07.099.109.146.181.222.375.432.583.63l.168.155c.205.185.421.357.647.516.016.011.03.024.047.035.251.168.512.319.783.452l.154.074a6.663 6.663 0 001.717.535c.076.012.15.024.226.034.276.038.554.059.833.063.021 0 .042.005.063.005.218 0 .436-.013.655-.035.058-.005.114-.016.168-.023.148-.018.296-.039.443-.067.097-.019.193-.043.289-.066.095-.024.205-.049.308-.079a7.72 7.72 0 00.345-.112c.049-.018.097-.029.146-.048.03-.011.058-.027.089-.039.136-.052.269-.111.402-.173.076-.037.152-.072.227-.11.112-.058.22-.12.329-.184.089-.052.178-.105.263-.16.086-.055.168-.117.252-.177.099-.071.196-.141.29-.216.068-.055.133-.113.199-.168.098-.084.197-.168.29-.263.06-.059.117-.122.176-.185.088-.093.177-.186.259-.284.062-.074.119-.151.178-.227.07-.092.141-.181.206-.276.066-.095.124-.19.184-.287.052-.084.105-.168.152-.252.063-.111.119-.226.174-.341.038-.076.078-.153.112-.231a5.8 5.8 0 00.145-.366c.03-.084.062-.16.089-.243.039-.115.072-.234.104-.353.026-.096.053-.192.074-.291.022-.098.041-.208.059-.313.021-.119.041-.238.056-.359.01-.089.016-.178.024-.267.011-.14.018-.278.021-.42 0-.037.005-.071.005-.106.008-.048.002-.096.001-.145zm-32.29-20.011l5.422-14.458 5.422 14.458h-10.844z" fill="#fff"/></svg>